<?xml version="1.0" encoding="UTF-8"?>
<svg width="200px" height="200px" viewBox="0 0 200 200" version="1.1" xmlns="http://www.w3.org/2000/svg" xmlns:xlink="http://www.w3.org/1999/xlink">
    <!-- Generator: Sketch 43.1 (39012) - http://www.bohemiancoding.com/sketch -->
    <title>Jagung</title>
    <desc>Created with Sketch.</desc>
    <defs></defs>
    <g id="Page-1" stroke="none" stroke-width="1" fill="none" fill-rule="evenodd">
        <g id="Desktop-HD" transform="translate(-201.000000, -413.000000)">
            <g id="Group-4" transform="translate(104.000000, 155.000000)">
                <g id="Group-10" transform="translate(96.000000, 256.000000)">
                    <g id="Group-9" transform="translate(1.000000, 128.000000)">
                        <g id="Group-11" transform="translate(91.000000, 0.000000)" fill="#3FA94E">
                            <polygon id="Path-21" points="7.52497524 46.7419002 9.56816545 0.102899995 11.2929724 46.3727602"></polygon>
                            <path d="M10.0279729,44.3892136 C10.6050379,40.7452743 9.95085414,16.1414096 19.6769552,0.279290528 C19.6769552,0.279290528 10.744366,24.0572484 12.7585872,43.9660749 C12.7585872,44.3892136 10.0279729,44.3892136 10.0279729,44.3892136 Z" id="Path-22"></path>
                            <path d="M0.0279729346,44.3892136 C0.605037901,40.7452743 -0.0491458635,16.1414096 9.67695518,0.279290528 C9.67695518,0.279290528 0.74436598,24.0572484 2.75858722,43.9660749 C2.75858722,44.3892136 0.0279729346,44.3892136 0.0279729346,44.3892136 Z" id="Path-22-Copy" transform="translate(4.852464, 22.334252) scale(-1, 1) translate(-4.852464, -22.334252) "></path>
                        </g>
                        <g id="Group-11-Copy" transform="translate(59.000000, 12.000000)" fill="#3FA94E">
                            <polygon id="Path-21" points="7.52497524 46.7419002 9.56816545 0.102899995 11.2929724 46.3727602"></polygon>
                            <path d="M10.0279729,44.3892136 C10.6050379,40.7452743 9.95085414,16.1414096 19.6769552,0.279290528 C19.6769552,0.279290528 10.744366,24.0572484 12.7585872,43.9660749 C12.7585872,44.3892136 10.0279729,44.3892136 10.0279729,44.3892136 Z" id="Path-22"></path>
                            <path d="M0.0279729346,44.3892136 C0.605037901,40.7452743 -0.0491458635,16.1414096 9.67695518,0.279290528 C9.67695518,0.279290528 0.74436598,24.0572484 2.75858722,43.9660749 C2.75858722,44.3892136 0.0279729346,44.3892136 0.0279729346,44.3892136 Z" id="Path-22-Copy" transform="translate(4.852464, 22.334252) scale(-1, 1) translate(-4.852464, -22.334252) "></path>
                        </g>
                        <g id="Group-11-Copy-4" transform="translate(39.000000, 0.000000)" fill="#3FA94E">
                            <polygon id="Path-21" points="7.52497524 46.7419002 9.56816545 0.102899995 11.2929724 46.3727602"></polygon>
                            <path d="M10.0279729,44.3892136 C10.6050379,40.7452743 9.95085414,16.1414096 19.6769552,0.279290528 C19.6769552,0.279290528 10.744366,24.0572484 12.7585872,43.9660749 C12.7585872,44.3892136 10.0279729,44.3892136 10.0279729,44.3892136 Z" id="Path-22"></path>
                            <path d="M0.0279729346,44.3892136 C0.605037901,40.7452743 -0.0491458635,16.1414096 9.67695518,0.279290528 C9.67695518,0.279290528 0.74436598,24.0572484 2.75858722,43.9660749 C2.75858722,44.3892136 0.0279729346,44.3892136 0.0279729346,44.3892136 Z" id="Path-22-Copy" transform="translate(4.852464, 22.334252) scale(-1, 1) translate(-4.852464, -22.334252) "></path>
                        </g>
                        <g id="Group-11-Copy-3" transform="translate(5.000000, 12.000000)" fill="#3FA94E">
                            <polygon id="Path-21" points="7.52497524 46.7419002 9.56816545 0.102899995 11.2929724 46.3727602"></polygon>
                            <path d="M10.0279729,44.3892136 C10.6050379,40.7452743 9.95085414,16.1414096 19.6769552,0.279290528 C19.6769552,0.279290528 10.744366,24.0572484 12.7585872,43.9660749 C12.7585872,44.3892136 10.0279729,44.3892136 10.0279729,44.3892136 Z" id="Path-22"></path>
                            <path d="M0.0279729346,44.3892136 C0.605037901,40.7452743 -0.0491458635,16.1414096 9.67695518,0.279290528 C9.67695518,0.279290528 0.74436598,24.0572484 2.75858722,43.9660749 C2.75858722,44.3892136 0.0279729346,44.3892136 0.0279729346,44.3892136 Z" id="Path-22-Copy" transform="translate(4.852464, 22.334252) scale(-1, 1) translate(-4.852464, -22.334252) "></path>
                        </g>
                        <g id="Group-11-Copy-2" transform="translate(123.000000, 12.000000)" fill="#3FA94E">
                            <polygon id="Path-21" points="7.52497524 46.7419002 9.56816545 0.102899995 11.2929724 46.3727602"></polygon>
                            <path d="M10.0279729,44.3892136 C10.6050379,40.7452743 9.95085414,16.1414096 19.6769552,0.279290528 C19.6769552,0.279290528 10.744366,24.0572484 12.7585872,43.9660749 C12.7585872,44.3892136 10.0279729,44.3892136 10.0279729,44.3892136 Z" id="Path-22"></path>
                            <path d="M0.0279729346,44.3892136 C0.605037901,40.7452743 -0.0491458635,16.1414096 9.67695518,0.279290528 C9.67695518,0.279290528 0.74436598,24.0572484 2.75858722,43.9660749 C2.75858722,44.3892136 0.0279729346,44.3892136 0.0279729346,44.3892136 Z" id="Path-22-Copy" transform="translate(4.852464, 22.334252) scale(-1, 1) translate(-4.852464, -22.334252) "></path>
                        </g>
                        <g id="Group-11-Copy-5" transform="translate(175.000000, 12.000000)" fill="#3FA94E">
                            <polygon id="Path-21" points="7.52497524 46.7419002 9.56816545 0.102899995 11.2929724 46.3727602"></polygon>
                            <path d="M10.0279729,44.3892136 C10.6050379,40.7452743 9.95085414,16.1414096 19.6769552,0.279290528 C19.6769552,0.279290528 10.744366,24.0572484 12.7585872,43.9660749 C12.7585872,44.3892136 10.0279729,44.3892136 10.0279729,44.3892136 Z" id="Path-22"></path>
                            <path d="M0.0279729346,44.3892136 C0.605037901,40.7452743 -0.0491458635,16.1414096 9.67695518,0.279290528 C9.67695518,0.279290528 0.74436598,24.0572484 2.75858722,43.9660749 C2.75858722,44.3892136 0.0279729346,44.3892136 0.0279729346,44.3892136 Z" id="Path-22-Copy" transform="translate(4.852464, 22.334252) scale(-1, 1) translate(-4.852464, -22.334252) "></path>
                        </g>
                        <g id="Group-11-Copy-6" transform="translate(143.000000, 0.000000)" fill="#3FA94E">
                            <polygon id="Path-21" points="7.52497524 46.7419002 9.56816545 0.102899995 11.2929724 46.3727602"></polygon>
                            <path d="M10.0279729,44.3892136 C10.6050379,40.7452743 9.95085414,16.1414096 19.6769552,0.279290528 C19.6769552,0.279290528 10.744366,24.0572484 12.7585872,43.9660749 C12.7585872,44.3892136 10.0279729,44.3892136 10.0279729,44.3892136 Z" id="Path-22"></path>
                            <path d="M0.0279729346,44.3892136 C0.605037901,40.7452743 -0.0491458635,16.1414096 9.67695518,0.279290528 C9.67695518,0.279290528 0.74436598,24.0572484 2.75858722,43.9660749 C2.75858722,44.3892136 0.0279729346,44.3892136 0.0279729346,44.3892136 Z" id="Path-22-Copy" transform="translate(4.852464, 22.334252) scale(-1, 1) translate(-4.852464, -22.334252) "></path>
                        </g>
                        <path d="M0,27.0744616 C0,27.0744616 6.6211082,34.4685835 31.1993785,34.4685835 C41.1975712,34.4685835 53.0631002,28.5261236 65.1763556,27.0744616 C82.8407684,24.9575447 86.0991767,30.2629565 98.61154,30.2629565 C98.5957699,30.2629565 111.049121,25.0947236 117.768932,27.0744616 C130.846958,30.9274073 147.22441,25.6640176 162.001758,25.0597926 C182.068203,24.239304 199,32.1342257 199,32.1342257 L199,69 L0,69 L0,27.0744616 Z" id="Rectangle-2-Copy" fill="#A9C6F5" opacity="0.503849638"></path>
                        <g id="Group-13" transform="translate(100.000000, 43.000000)">
                            <path d="M80.4193024,11.9659612 C77.8436761,11.9659612 75.3364607,12.5370768 72.9670073,13.664105 C72.2039111,14.0270654 71.3284424,13.7204983 70.8582665,12.925469 C66.2126889,5.06778514 58.5885444,0.376948149 50.4641321,0.376948149 C42.33972,0.376948149 34.7158105,5.06806169 30.069998,12.9257455 C29.5998217,13.7207748 28.7248235,14.027342 27.9612571,13.6643816 C25.5915683,12.5376299 23.084353,11.9662371 20.508962,11.9662371 C12.3394129,11.9662371 4.98232859,17.8877661 2,26.7762786 L98.9282642,26.7762786 C95.9459359,17.8877661 88.5888514,11.9659612 80.4193024,11.9659612 Z" id="Shape" fill="#87635C" fill-rule="nonzero"></path>
                            <path d="M98.8300944,24.5301084 C95.6770337,15.6831539 87.2707298,9.73897698 77.9116624,9.73897698 C75.4788039,9.73897698 73.0990135,10.1295371 70.8200067,10.9014763 C65.9703444,4.57144181 58.5721011,0.713538191 50.6324797,0.376948149 C50.6324797,0.376948149 47.1075,0.458240553 47.1075,0.458240553 C39.649277,1.12850866 32.7725676,4.90758377 28.1804392,10.9014763 C25.9014324,10.1295371 23.5216419,9.73897698 21.0887838,9.73897698 C11.7297162,9.73897698 3.32318919,15.6831539 0.170351351,24.5301084 C-0.140918919,25.4032706 0.311716216,26.3646676 1.18131081,26.6775189 C2.05001351,26.9899227 3.0079054,26.535538 3.31939865,25.6621517 C3.3874054,25.4715742 3.4600946,25.2836841 3.53367567,25.0962421 C6.36231079,17.8955087 13.34025,13.0983784 21.0887838,13.0983784 C23.5316757,13.0983784 25.9096824,13.5610493 28.157027,14.4740738 C28.8812433,14.7681142 29.7111487,14.519759 30.1570946,13.8756924 C34.5632635,7.50982653 41.7945,3.70970062 49.5,3.70970062 C57.2055,3.70970062 64.4367365,7.51005057 68.8431287,13.8756924 C69.2890742,14.519759 70.1194258,14.7681142 70.8431961,14.4740738 C73.0907635,13.5612733 75.4687702,13.0983784 77.9114393,13.0983784 C85.659973,13.0983784 92.6379124,17.8955087 95.4665472,25.0962421 C95.5401287,25.2836841 95.6130404,25.4715742 95.6808242,25.6621517 C95.9254258,26.3485434 96.5689258,26.7762786 97.2554596,26.7762786 C97.4425337,26.7762786 97.6327298,26.7444783 97.8189124,26.6777429 C98.6885067,26.3648916 99.1411421,25.4034946 98.8300944,24.5301084 Z" id="Shape" fill="#4D3D36" fill-rule="nonzero"></path>
                            <path d="M19.3440203,20.0473977 C18.3604865,20.0473977 17.5602365,19.2436583 17.5602365,18.2558363 C17.5602365,17.2680143 18.3604865,16.4642749 19.3440203,16.4642749 C20.327554,16.4642749 21.127804,17.2680143 21.127804,18.2558363 C21.127804,19.2436583 20.327554,20.0473977 19.3440203,20.0473977 Z" id="Shape-path" fill="#4D3D36"></path>
                            <path d="M59.0332096,14.4487679 C58.0496758,14.4487679 57.2494258,13.6450291 57.2494258,12.6572065 C57.2494258,11.6693845 58.0496758,10.865645 59.0332096,10.865645 C60.0167433,10.865645 60.8169933,11.6693845 60.8169933,12.6572065 C60.8169933,13.6450291 60.0167433,14.4487679 59.0332096,14.4487679 Z" id="Shape-path" fill="#4D3D36"></path>
                            <path d="M64.8305067,20.0473977 C63.846973,20.0473977 63.046723,19.2436583 63.046723,18.2558363 C63.046723,17.2680143 63.846973,16.4642749 64.8305067,16.4642749 C65.8140404,16.4642749 66.6142904,17.2680143 66.6142904,18.2558363 C66.6142904,19.2436583 65.8140404,20.0473977 64.8305067,20.0473977 Z" id="Shape-path" fill="#4D3D36"></path>
                        </g>
                        <g id="Group-12" transform="translate(52.000000, 43.000000)" fill-rule="nonzero">
                            <path d="M78.5836584,12.6844232 C76.0858434,12.6844232 73.6543726,13.225266 71.3565018,14.2925546 C70.6164593,14.6362759 69.767439,14.3459587 69.3114675,13.593071 C64.8062357,6.15189376 57.4124214,1.70970062 49.5334528,1.70970062 C41.6544842,1.70970062 34.2608979,6.15215566 29.7554384,13.5933329 C29.2994663,14.3462206 28.4509024,14.6365378 27.7104038,14.2928165 C25.4123048,13.2257898 22.980834,12.6846844 20.4832473,12.6846844 C12.5605054,12.6846844 5.42568326,18.2923352 2.5334527,26.7097006 L96.5334527,26.7097006 C93.6412225,18.2923352 86.5064001,12.6844232 78.5836584,12.6844232 Z M19.3440203,20.0473977 C18.3604865,20.0473977 17.5602365,19.2436583 17.5602365,18.2558363 C17.5602365,17.2680143 18.3604865,16.4642749 19.3440203,16.4642749 C20.327554,16.4642749 21.127804,17.2680143 21.127804,18.2558363 C21.127804,19.2436583 20.327554,20.0473977 19.3440203,20.0473977 Z M59.0332096,14.4487679 C58.0496758,14.4487679 57.2494258,13.6450291 57.2494258,12.6572065 C57.2494258,11.6693845 58.0496758,10.865645 59.0332096,10.865645 C60.0167433,10.865645 60.8169933,11.6693845 60.8169933,12.6572065 C60.8169933,13.6450291 60.0167433,14.4487679 59.0332096,14.4487679 Z M64.8305067,20.0473977 C63.846973,20.0473977 63.046723,19.2436583 63.046723,18.2558363 C63.046723,17.2680143 63.846973,16.4642749 64.8305067,16.4642749 C65.8140404,16.4642749 66.6142904,17.2680143 66.6142904,18.2558363 C66.6142904,19.2436583 65.8140404,20.0473977 64.8305067,20.0473977 Z" id="Shape-Copy-3" fill="#87635C"></path>
                            <path d="M98.8300944,24.5301084 C95.6770337,15.6831539 87.2707298,9.73897698 77.9116624,9.73897698 C75.4788039,9.73897698 73.0990135,10.1295371 70.8200067,10.9014763 C65.9703444,4.57144181 58.5721011,0.713538191 50.6324797,0.376948149 C50.6324797,0.376948149 47.1075,0.458240553 47.1075,0.458240553 C39.649277,1.12850866 32.7725676,4.90758377 28.1804392,10.9014763 C25.9014324,10.1295371 23.5216419,9.73897698 21.0887838,9.73897698 C11.7297162,9.73897698 3.32318919,15.6831539 0.170351351,24.5301084 C-0.140918919,25.4032706 0.311716216,26.3646676 1.18131081,26.6775189 C2.05001351,26.9899227 3.0079054,26.535538 3.31939865,25.6621517 C3.3874054,25.4715742 3.4600946,25.2836841 3.53367567,25.0962421 C6.36231079,17.8955087 13.34025,13.0983784 21.0887838,13.0983784 C23.5316757,13.0983784 25.9096824,13.5610493 28.157027,14.4740738 C28.8812433,14.7681142 29.7111487,14.519759 30.1570946,13.8756924 C34.5632635,7.50982653 41.7945,3.70970062 49.5,3.70970062 C57.2055,3.70970062 64.4367365,7.51005057 68.8431287,13.8756924 C69.2890742,14.519759 70.1194258,14.7681142 70.8431961,14.4740738 C73.0907635,13.5612733 75.4687702,13.0983784 77.9114393,13.0983784 C85.659973,13.0983784 92.6379124,17.8955087 95.4665472,25.0962421 C95.5401287,25.2836841 95.6130404,25.4715742 95.6808242,25.6621517 C95.9254258,26.3485434 96.5689258,26.7762786 97.2554596,26.7762786 C97.4425337,26.7762786 97.6327298,26.7444783 97.8189124,26.6777429 C98.6885067,26.3648916 99.1411421,25.4034946 98.8300944,24.5301084 Z" id="Shape-Copy-2" fill="#4D3D36"></path>
                        </g>
                        <g id="Group-12-Copy" transform="translate(0.000000, 43.000000)">
                            <path d="M78.5836584,12.6844232 C76.0858434,12.6844232 73.6543726,13.225266 71.3565018,14.2925546 C70.6164593,14.6362759 69.767439,14.3459587 69.3114675,13.593071 C64.8062357,6.15189376 57.4124214,1.70970062 49.5334528,1.70970062 C41.6544842,1.70970062 34.2608979,6.15215566 29.7554384,13.5933329 C29.2994663,14.3462206 28.4509024,14.6365378 27.7104038,14.2928165 C25.4123048,13.2257898 22.980834,12.6846844 20.4832473,12.6846844 C12.5605054,12.6846844 5.42568326,18.2923352 2.5334527,26.7097006 L96.5334527,26.7097006 C93.6412225,18.2923352 86.5064001,12.6844232 78.5836584,12.6844232 Z" id="Shape-Copy-3" fill="#87635C" fill-rule="nonzero"></path>
                            <path d="M98.8300944,24.5301084 C95.6770337,15.6831539 87.2707298,9.73897698 77.9116624,9.73897698 C75.4788039,9.73897698 73.0990135,10.1295371 70.8200067,10.9014763 C65.9703444,4.57144181 58.5721011,0.713538191 50.6324797,0.376948149 C50.6324797,0.376948149 47.1075,0.458240553 47.1075,0.458240553 C39.649277,1.12850866 32.7725676,4.90758377 28.1804392,10.9014763 C25.9014324,10.1295371 23.5216419,9.73897698 21.0887838,9.73897698 C11.7297162,9.73897698 3.32318919,15.6831539 0.170351351,24.5301084 C-0.140918919,25.4032706 0.311716216,26.3646676 1.18131081,26.6775189 C2.05001351,26.9899227 3.0079054,26.535538 3.31939865,25.6621517 C3.3874054,25.4715742 3.4600946,25.2836841 3.53367567,25.0962421 C6.36231079,17.8955087 13.34025,13.0983784 21.0887838,13.0983784 C23.5316757,13.0983784 25.9096824,13.5610493 28.157027,14.4740738 C28.8812433,14.7681142 29.7111487,14.519759 30.1570946,13.8756924 C34.5632635,7.50982653 41.7945,3.70970062 49.5,3.70970062 C57.2055,3.70970062 64.4367365,7.51005057 68.8431287,13.8756924 C69.2890742,14.519759 70.1194258,14.7681142 70.8431961,14.4740738 C73.0907635,13.5612733 75.4687702,13.0983784 77.9114393,13.0983784 C85.659973,13.0983784 92.6379124,17.8955087 95.4665472,25.0962421 C95.5401287,25.2836841 95.6130404,25.4715742 95.6808242,25.6621517 C95.9254258,26.3485434 96.5689258,26.7762786 97.2554596,26.7762786 C97.4425337,26.7762786 97.6327298,26.7444783 97.8189124,26.6777429 C98.6885067,26.3648916 99.1411421,25.4034946 98.8300944,24.5301084 Z" id="Shape-Copy-2" fill="#4D3D36" fill-rule="nonzero"></path>
                            <path d="M19.3440203,20.0473977 C18.3604865,20.0473977 17.5602365,19.2436583 17.5602365,18.2558363 C17.5602365,17.2680143 18.3604865,16.4642749 19.3440203,16.4642749 C20.327554,16.4642749 21.127804,17.2680143 21.127804,18.2558363 C21.127804,19.2436583 20.327554,20.0473977 19.3440203,20.0473977 Z" id="Shape-path" fill="#4D3D36"></path>
                            <path d="M59.0332096,14.4487679 C58.0496758,14.4487679 57.2494258,13.6450291 57.2494258,12.6572065 C57.2494258,11.6693845 58.0496758,10.865645 59.0332096,10.865645 C60.0167433,10.865645 60.8169933,11.6693845 60.8169933,12.6572065 C60.8169933,13.6450291 60.0167433,14.4487679 59.0332096,14.4487679 Z" id="Shape-path" fill="#4D3D36"></path>
                            <path d="M64.8305067,20.0473977 C63.846973,20.0473977 63.046723,19.2436583 63.046723,18.2558363 C63.046723,17.2680143 63.846973,16.4642749 64.8305067,16.4642749 C65.8140404,16.4642749 66.6142904,17.2680143 66.6142904,18.2558363 C66.6142904,19.2436583 65.8140404,20.0473977 64.8305067,20.0473977 Z" id="Shape-path" fill="#4D3D36"></path>
                        </g>
                        <path d="M71.3440203,59.4642749 C70.3604865,59.4642749 69.5602365,60.2680143 69.5602365,61.2558363 C69.5602365,62.2436583 70.3604865,63.0473977 71.3440203,63.0473977 C72.327554,63.0473977 73.127804,62.2436583 73.127804,61.2558363 C73.127804,60.2680143 72.327554,59.4642749 71.3440203,59.4642749 Z" id="Shape" fill="#4D3D36" fill-rule="nonzero"></path>
                        <path d="M116.830507,59.4642749 C115.846973,59.4642749 115.046723,60.2680143 115.046723,61.2558363 C115.046723,62.2436583 115.846973,63.0473977 116.830507,63.0473977 C117.81404,63.0473977 118.61429,62.2436583 118.61429,61.2558363 C118.61429,60.2680143 117.81404,59.4642749 116.830507,59.4642749 Z" id="Shape" fill="#4D3D36" fill-rule="nonzero"></path>
                        <path d="M111.03321,53.865645 C110.049676,53.865645 109.249426,54.6693845 109.249426,55.6572065 C109.249426,56.6450291 110.049676,57.4487679 111.03321,57.4487679 C112.016743,57.4487679 112.816993,56.6450291 112.816993,55.6572065 C112.816993,54.6693845 112.016743,53.865645 111.03321,53.865645 Z" id="Shape" fill="#4D3D36" fill-rule="nonzero"></path>
                    </g>
                    <g id="Group-8-Copy" transform="translate(101.500000, 198.500000) rotate(90.000000) translate(-101.500000, -198.500000) translate(100.000000, 99.000000)" stroke="#4D3D36" stroke-width="3" stroke-linecap="round">
                        <path d="M1.5,1 L1.5,198.079987" id="Path-20"></path>
                    </g>
                    <g id="Group-20" transform="translate(3.000000, 21.000000)">
                        <g id="rainfall" transform="translate(7.000000, 42.000000)" fill-rule="nonzero" fill="#9BC3E4">
                            <path d="M127.191496,11.7993959 C126.88248,11.7993959 126.585348,11.6810286 126.347643,11.4561306 C125.884119,10.994498 125.884119,10.2487837 126.347643,9.78715102 L133.692725,2.47204898 C134.15625,2.01041633 134.90502,2.01041633 135.368545,2.47204898 C135.83207,2.93368163 135.83207,3.67939592 135.368545,4.14102857 L128.023463,11.4561306 C127.797643,11.6928653 127.500512,11.7993959 127.191496,11.7993959 Z M143.319775,11.7993959 C143.010758,11.7993959 142.713627,11.6810286 142.475922,11.4561306 C142.012398,10.994498 142.012398,10.2487837 142.475922,9.78715102 L149.821004,2.47204898 C150.284529,2.01041633 151.033299,2.01041633 151.496824,2.47204898 C151.960348,2.93368163 151.960348,3.67939592 151.496824,4.14102857 L144.151742,11.4561306 C143.925922,11.6928653 143.628791,11.7993959 143.319775,11.7993959 Z M159.448053,11.7993959 C159.150922,11.7993959 158.841906,11.6810286 158.616086,11.4561306 C158.152561,10.994498 158.140676,10.2487837 158.604201,9.78715102 L165.842316,2.47204898 C166.30584,2.01041633 167.054611,1.99857959 167.518135,2.46021224 C167.98166,2.9218449 167.993545,3.66755918 167.53002,4.12919184 L160.291906,11.4442939 C160.066086,11.6928653 159.75707,11.7993959 159.448053,11.7993959 Z M175.469365,11.7993959 C175.160348,11.7993959 174.863217,11.6810286 174.625512,11.4561306 C174.161988,10.994498 174.161988,10.2487837 174.625512,9.78715102 L181.970594,2.47204898 C182.434119,2.01041633 183.182889,2.01041633 183.646414,2.47204898 C184.109939,2.93368163 184.109939,3.67939592 183.646414,4.14102857 L176.301332,11.4561306 C176.075512,11.6928653 175.766496,11.7993959 175.469365,11.7993959 Z M133.692725,27.5185796 C133.229201,27.0569469 133.229201,26.3112327 133.692725,25.8496 L141.037807,18.534498 C141.501332,18.0728653 142.250102,18.0728653 142.713627,18.534498 C143.177152,18.9961306 143.177152,19.7418449 142.713627,20.2034776 L135.368545,27.5185796 C135.154611,27.7553143 134.845594,27.8618449 134.536578,27.8618449 C134.227561,27.8618449 133.93043,27.7434776 133.692725,27.5185796 Z M149.832889,27.5185796 C149.369365,27.0569469 149.35748,26.3112327 149.821004,25.8496 L157.059119,18.534498 C157.522643,18.0728653 158.271414,18.0610286 158.734939,18.5226612 C159.198463,18.9842939 159.210348,19.7300082 158.746824,20.1916408 L151.508709,27.5067429 C151.282889,27.7434776 150.973873,27.8618449 150.664857,27.8618449 C150.367725,27.8618449 150.058709,27.7434776 149.832889,27.5185796 Z M165.842316,27.5185796 C165.378791,27.0569469 165.378791,26.3112327 165.842316,25.8496 L173.187398,18.534498 C173.650922,18.0728653 174.399693,18.0728653 174.863217,18.534498 C175.326742,18.9961306 175.326742,19.7418449 174.863217,20.2034776 L167.518135,27.5185796 C167.292316,27.7553143 166.995184,27.8618449 166.686168,27.8618449 C166.377152,27.8618449 166.08002,27.7434776 165.842316,27.5185796 Z M135.38043,34.5969469 C135.83207,35.0585796 135.83207,35.8161306 135.368545,36.2659265 L128.023463,43.474498 C127.797643,43.7112327 127.488627,43.8177633 127.191496,43.8177633 C126.88248,43.8177633 126.573463,43.6993959 126.347643,43.4626612 C125.884119,43.0010286 125.896004,42.2434776 126.359529,41.7936816 L133.704611,34.5851102 C134.168135,34.1234776 134.928791,34.1353143 135.38043,34.5969469 Z M151.508709,34.5969469 C151.960348,35.0585796 151.960348,35.8161306 151.496824,36.2659265 L144.151742,43.474498 C143.925922,43.7112327 143.616906,43.8177633 143.319775,43.8177633 C143.010758,43.8177633 142.701742,43.6993959 142.475922,43.4626612 C142.012398,43.0010286 142.024283,42.2434776 142.487807,41.7936816 L149.832889,34.5851102 C150.296414,34.1234776 151.05707,34.1353143 151.508709,34.5969469 Z M167.518135,34.5969469 C167.98166,35.0585796 167.98166,35.8042939 167.518135,36.2659265 L160.28002,43.474498 C160.054201,43.6993959 159.745184,43.8177633 159.448053,43.8177633 C159.139037,43.8177633 158.841906,43.6993959 158.604201,43.474498 C158.140676,43.0128653 158.140676,42.267151 158.604201,41.8055184 L165.842316,34.5969469 C166.30584,34.1353143 167.054611,34.1353143 167.518135,34.5969469 Z M183.658299,34.5969469 C184.121824,35.0585796 184.109939,35.8161306 183.646414,36.2659265 L176.301332,43.474498 C176.063627,43.7112327 175.766496,43.8177633 175.469365,43.8177633 C175.160348,43.8177633 174.851332,43.6993959 174.625512,43.4626612 C174.161988,43.0010286 174.173873,42.2434776 174.637398,41.7936816 L181.98248,34.5851102 C182.446004,34.1234776 183.20666,34.1353143 183.658299,34.5969469 Z M141.037807,50.5528653 C141.501332,50.0912327 142.250102,50.0912327 142.713627,50.5528653 C143.177152,51.014498 143.177152,51.7602122 142.713627,52.2218449 L135.368545,59.5369469 C135.154611,59.7618449 134.845594,59.8802122 134.536578,59.8802122 C134.227561,59.8802122 133.93043,59.7618449 133.692725,59.5369469 C133.229201,59.0753143 133.229201,58.3296 133.692725,57.8679673 L141.037807,50.5528653 Z M157.059119,50.5528653 C157.522643,50.0912327 158.271414,50.0793959 158.734939,50.5410286 C159.198463,51.0026612 159.210348,51.7483755 158.746824,52.2100082 L151.508709,59.5251102 C151.282889,59.7618449 150.973873,59.8802122 150.664857,59.8802122 C150.367725,59.8802122 150.058709,59.7618449 149.832889,59.5369469 C149.369365,59.0753143 149.35748,58.3296 149.821004,57.8679673 L157.059119,50.5528653 Z M173.187398,50.5528653 C173.650922,50.0912327 174.399693,50.0912327 174.863217,50.5528653 C175.326742,51.014498 175.326742,51.7602122 174.863217,52.2218449 L167.518135,59.5369469 C167.292316,59.7618449 166.995184,59.8802122 166.686168,59.8802122 C166.377152,59.8802122 166.08002,59.7618449 165.842316,59.5369469 C165.378791,59.0753143 165.378791,58.3296 165.842316,57.8679673 L173.187398,50.5528653 Z" id="Combined-Shape"></path>
                            <path d="M63.1914959,11.7993959 C62.8824795,11.7993959 62.5853484,11.6810286 62.3476434,11.4561306 C61.8841189,10.994498 61.8841189,10.2487837 62.3476434,9.78715102 L69.6927254,2.47204898 C70.15625,2.01041633 70.9050205,2.01041633 71.3685451,2.47204898 C71.8320697,2.93368163 71.8320697,3.67939592 71.3685451,4.14102857 L64.0234631,11.4561306 C63.7976434,11.6928653 63.5005123,11.7993959 63.1914959,11.7993959 Z M79.3197746,11.7993959 C79.0107582,11.7993959 78.713627,11.6810286 78.4759221,11.4561306 C78.0123975,10.994498 78.0123975,10.2487837 78.4759221,9.78715102 L85.8210041,2.47204898 C86.2845287,2.01041633 87.0332992,2.01041633 87.4968238,2.47204898 C87.9603484,2.93368163 87.9603484,3.67939592 87.4968238,4.14102857 L80.1517418,11.4561306 C79.9259221,11.6928653 79.628791,11.7993959 79.3197746,11.7993959 Z M95.4480533,11.7993959 C95.1509221,11.7993959 94.8419057,11.6810286 94.6160861,11.4561306 C94.1525615,10.994498 94.1406762,10.2487837 94.6042008,9.78715102 L101.842316,2.47204898 C102.30584,2.01041633 103.054611,1.99857959 103.518135,2.46021224 C103.98166,2.9218449 103.993545,3.66755918 103.53002,4.12919184 L96.2919057,11.4442939 C96.0660861,11.6928653 95.7570697,11.7993959 95.4480533,11.7993959 Z M111.469365,11.7993959 C111.160348,11.7993959 110.863217,11.6810286 110.625512,11.4561306 C110.161988,10.994498 110.161988,10.2487837 110.625512,9.78715102 L117.970594,2.47204898 C118.434119,2.01041633 119.182889,2.01041633 119.646414,2.47204898 C120.109939,2.93368163 120.109939,3.67939592 119.646414,4.14102857 L112.301332,11.4561306 C112.075512,11.6928653 111.766496,11.7993959 111.469365,11.7993959 Z M69.6927254,27.5185796 C69.2292008,27.0569469 69.2292008,26.3112327 69.6927254,25.8496 L77.0378074,18.534498 C77.501332,18.0728653 78.2501025,18.0728653 78.713627,18.534498 C79.1771516,18.9961306 79.1771516,19.7418449 78.713627,20.2034776 L71.3685451,27.5185796 C71.1546107,27.7553143 70.8455943,27.8618449 70.5365779,27.8618449 C70.2275615,27.8618449 69.9304303,27.7434776 69.6927254,27.5185796 Z M85.8328893,27.5185796 C85.3693648,27.0569469 85.3574795,26.3112327 85.8210041,25.8496 L93.0591189,18.534498 C93.5226434,18.0728653 94.2714139,18.0610286 94.7349385,18.5226612 C95.1984631,18.9842939 95.2103484,19.7300082 94.7468238,20.1916408 L87.508709,27.5067429 C87.2828893,27.7434776 86.973873,27.8618449 86.6648566,27.8618449 C86.3677254,27.8618449 86.058709,27.7434776 85.8328893,27.5185796 Z M101.842316,27.5185796 C101.378791,27.0569469 101.378791,26.3112327 101.842316,25.8496 L109.187398,18.534498 C109.650922,18.0728653 110.399693,18.0728653 110.863217,18.534498 C111.326742,18.9961306 111.326742,19.7418449 110.863217,20.2034776 L103.518135,27.5185796 C103.292316,27.7553143 102.995184,27.8618449 102.686168,27.8618449 C102.377152,27.8618449 102.08002,27.7434776 101.842316,27.5185796 Z M71.3804303,34.5969469 C71.8320697,35.0585796 71.8320697,35.8161306 71.3685451,36.2659265 L64.0234631,43.474498 C63.7976434,43.7112327 63.488627,43.8177633 63.1914959,43.8177633 C62.8824795,43.8177633 62.5734631,43.6993959 62.3476434,43.4626612 C61.8841189,43.0010286 61.8960041,42.2434776 62.3595287,41.7936816 L69.7046107,34.5851102 C70.1681352,34.1234776 70.928791,34.1353143 71.3804303,34.5969469 Z M87.508709,34.5969469 C87.9603484,35.0585796 87.9603484,35.8161306 87.4968238,36.2659265 L80.1517418,43.474498 C79.9259221,43.7112327 79.6169057,43.8177633 79.3197746,43.8177633 C79.0107582,43.8177633 78.7017418,43.6993959 78.4759221,43.4626612 C78.0123975,43.0010286 78.0242828,42.2434776 78.4878074,41.7936816 L85.8328893,34.5851102 C86.2964139,34.1234776 87.0570697,34.1353143 87.508709,34.5969469 Z M103.518135,34.5969469 C103.98166,35.0585796 103.98166,35.8042939 103.518135,36.2659265 L96.2800205,43.474498 C96.0542008,43.6993959 95.7451844,43.8177633 95.4480533,43.8177633 C95.1390369,43.8177633 94.8419057,43.6993959 94.6042008,43.474498 C94.1406762,43.0128653 94.1406762,42.267151 94.6042008,41.8055184 L101.842316,34.5969469 C102.30584,34.1353143 103.054611,34.1353143 103.518135,34.5969469 Z M119.658299,34.5969469 C120.121824,35.0585796 120.109939,35.8161306 119.646414,36.2659265 L112.301332,43.474498 C112.063627,43.7112327 111.766496,43.8177633 111.469365,43.8177633 C111.160348,43.8177633 110.851332,43.6993959 110.625512,43.4626612 C110.161988,43.0010286 110.173873,42.2434776 110.637398,41.7936816 L117.98248,34.5851102 C118.446004,34.1234776 119.20666,34.1353143 119.658299,34.5969469 Z M77.0378074,50.5528653 C77.501332,50.0912327 78.2501025,50.0912327 78.713627,50.5528653 C79.1771516,51.014498 79.1771516,51.7602122 78.713627,52.2218449 L71.3685451,59.5369469 C71.1546107,59.7618449 70.8455943,59.8802122 70.5365779,59.8802122 C70.2275615,59.8802122 69.9304303,59.7618449 69.6927254,59.5369469 C69.2292008,59.0753143 69.2292008,58.3296 69.6927254,57.8679673 L77.0378074,50.5528653 Z M93.0591189,50.5528653 C93.5226434,50.0912327 94.2714139,50.0793959 94.7349385,50.5410286 C95.1984631,51.0026612 95.2103484,51.7483755 94.7468238,52.2100082 L87.508709,59.5251102 C87.2828893,59.7618449 86.973873,59.8802122 86.6648566,59.8802122 C86.3677254,59.8802122 86.058709,59.7618449 85.8328893,59.5369469 C85.3693648,59.0753143 85.3574795,58.3296 85.8210041,57.8679673 L93.0591189,50.5528653 Z M109.187398,50.5528653 C109.650922,50.0912327 110.399693,50.0912327 110.863217,50.5528653 C111.326742,51.014498 111.326742,51.7602122 110.863217,52.2218449 L103.518135,59.5369469 C103.292316,59.7618449 102.995184,59.8802122 102.686168,59.8802122 C102.377152,59.8802122 102.08002,59.7618449 101.842316,59.5369469 C101.378791,59.0753143 101.378791,58.3296 101.842316,57.8679673 L109.187398,50.5528653 Z" id="Combined-Shape-Copy"></path>
                            <path d="M1.1914959,9.79939592 C0.882479508,9.79939592 0.585348361,9.68102857 0.347643443,9.45613061 C-0.115881148,8.99449796 -0.115881148,8.24878367 0.347643443,7.78715102 L7.69272541,0.47204898 C8.15625,0.0104163265 8.90502049,0.0104163265 9.36854508,0.47204898 C9.83206967,0.933681633 9.83206967,1.67939592 9.36854508,2.14102857 L2.02346311,9.45613061 C1.79764344,9.69286531 1.5005123,9.79939592 1.1914959,9.79939592 Z M17.3197746,9.79939592 C17.0107582,9.79939592 16.713627,9.68102857 16.4759221,9.45613061 C16.0123975,8.99449796 16.0123975,8.24878367 16.4759221,7.78715102 L23.8210041,0.47204898 C24.2845287,0.0104163265 25.0332992,0.0104163265 25.4968238,0.47204898 C25.9603484,0.933681633 25.9603484,1.67939592 25.4968238,2.14102857 L18.1517418,9.45613061 C17.9259221,9.69286531 17.628791,9.79939592 17.3197746,9.79939592 Z M33.4480533,9.79939592 C33.1509221,9.79939592 32.8419057,9.68102857 32.6160861,9.45613061 C32.1525615,8.99449796 32.1406762,8.24878367 32.6042008,7.78715102 L39.8423156,0.47204898 C40.3058402,0.0104163265 41.0546107,-0.00142040816 41.5181352,0.460212245 C41.9816598,0.921844898 41.9935451,1.66755918 41.5300205,2.12919184 L34.2919057,9.44429388 C34.0660861,9.69286531 33.7570697,9.79939592 33.4480533,9.79939592 Z M49.4693648,9.79939592 C49.1603484,9.79939592 48.8632172,9.68102857 48.6255123,9.45613061 C48.1619877,8.99449796 48.1619877,8.24878367 48.6255123,7.78715102 L55.9705943,0.47204898 C56.4341189,0.0104163265 57.1828893,0.0104163265 57.6464139,0.47204898 C58.1099385,0.933681633 58.1099385,1.67939592 57.6464139,2.14102857 L50.301332,9.45613061 C50.0755123,9.69286531 49.7664959,9.79939592 49.4693648,9.79939592 Z M7.69272541,25.5185796 C7.22920082,25.0569469 7.22920082,24.3112327 7.69272541,23.8496 L15.0378074,16.534498 C15.501332,16.0728653 16.2501025,16.0728653 16.713627,16.534498 C17.1771516,16.9961306 17.1771516,17.7418449 16.713627,18.2034776 L9.36854508,25.5185796 C9.15461066,25.7553143 8.84559426,25.8618449 8.53657787,25.8618449 C8.22756148,25.8618449 7.93043033,25.7434776 7.69272541,25.5185796 Z M23.8328893,25.5185796 C23.3693648,25.0569469 23.3574795,24.3112327 23.8210041,23.8496 L31.0591189,16.534498 C31.5226434,16.0728653 32.2714139,16.0610286 32.7349385,16.5226612 C33.1984631,16.9842939 33.2103484,17.7300082 32.7468238,18.1916408 L25.508709,25.5067429 C25.2828893,25.7434776 24.973873,25.8618449 24.6648566,25.8618449 C24.3677254,25.8618449 24.058709,25.7434776 23.8328893,25.5185796 Z M39.8423156,25.5185796 C39.378791,25.0569469 39.378791,24.3112327 39.8423156,23.8496 L47.1873975,16.534498 C47.6509221,16.0728653 48.3996926,16.0728653 48.8632172,16.534498 C49.3267418,16.9961306 49.3267418,17.7418449 48.8632172,18.2034776 L41.5181352,25.5185796 C41.2923156,25.7553143 40.9951844,25.8618449 40.686168,25.8618449 C40.3771516,25.8618449 40.0800205,25.7434776 39.8423156,25.5185796 Z M9.38043033,32.5969469 C9.83206967,33.0585796 9.83206967,33.8161306 9.36854508,34.2659265 L2.02346311,41.474498 C1.79764344,41.7112327 1.48862705,41.8177633 1.1914959,41.8177633 C0.882479508,41.8177633 0.573463115,41.6993959 0.347643443,41.4626612 C-0.115881148,41.0010286 -0.103995902,40.2434776 0.359528689,39.7936816 L7.70461066,32.5851102 C8.16813525,32.1234776 8.92879098,32.1353143 9.38043033,32.5969469 Z M25.508709,32.5969469 C25.9603484,33.0585796 25.9603484,33.8161306 25.4968238,34.2659265 L18.1517418,41.474498 C17.9259221,41.7112327 17.6169057,41.8177633 17.3197746,41.8177633 C17.0107582,41.8177633 16.7017418,41.6993959 16.4759221,41.4626612 C16.0123975,41.0010286 16.0242828,40.2434776 16.4878074,39.7936816 L23.8328893,32.5851102 C24.2964139,32.1234776 25.0570697,32.1353143 25.508709,32.5969469 Z M41.5181352,32.5969469 C41.9816598,33.0585796 41.9816598,33.8042939 41.5181352,34.2659265 L34.2800205,41.474498 C34.0542008,41.6993959 33.7451844,41.8177633 33.4480533,41.8177633 C33.1390369,41.8177633 32.8419057,41.6993959 32.6042008,41.474498 C32.1406762,41.0128653 32.1406762,40.267151 32.6042008,39.8055184 L39.8423156,32.5969469 C40.3058402,32.1353143 41.0546107,32.1353143 41.5181352,32.5969469 Z M57.6582992,32.5969469 C58.1218238,33.0585796 58.1099385,33.8161306 57.6464139,34.2659265 L50.301332,41.474498 C50.063627,41.7112327 49.7664959,41.8177633 49.4693648,41.8177633 C49.1603484,41.8177633 48.851332,41.6993959 48.6255123,41.4626612 C48.1619877,41.0010286 48.173873,40.2434776 48.6373975,39.7936816 L55.9824795,32.5851102 C56.4460041,32.1234776 57.2066598,32.1353143 57.6582992,32.5969469 Z M15.0378074,48.5528653 C15.501332,48.0912327 16.2501025,48.0912327 16.713627,48.5528653 C17.1771516,49.014498 17.1771516,49.7602122 16.713627,50.2218449 L9.36854508,57.5369469 C9.15461066,57.7618449 8.84559426,57.8802122 8.53657787,57.8802122 C8.22756148,57.8802122 7.93043033,57.7618449 7.69272541,57.5369469 C7.22920082,57.0753143 7.22920082,56.3296 7.69272541,55.8679673 L15.0378074,48.5528653 Z M31.0591189,48.5528653 C31.5226434,48.0912327 32.2714139,48.0793959 32.7349385,48.5410286 C33.1984631,49.0026612 33.2103484,49.7483755 32.7468238,50.2100082 L25.508709,57.5251102 C25.2828893,57.7618449 24.973873,57.8802122 24.6648566,57.8802122 C24.3677254,57.8802122 24.058709,57.7618449 23.8328893,57.5369469 C23.3693648,57.0753143 23.3574795,56.3296 23.8210041,55.8679673 L31.0591189,48.5528653 Z M47.1873975,48.5528653 C47.6509221,48.0912327 48.3996926,48.0912327 48.8632172,48.5528653 C49.3267418,49.014498 49.3267418,49.7602122 48.8632172,50.2218449 L41.5181352,57.5369469 C41.2923156,57.7618449 40.9951844,57.8802122 40.686168,57.8802122 C40.3771516,57.8802122 40.0800205,57.7618449 39.8423156,57.5369469 C39.378791,57.0753143 39.378791,56.3296 39.8423156,55.8679673 L47.1873975,48.5528653 Z" id="Combined-Shape-Copy-2"></path>
                        </g>
                        <path d="M66.988026,7.85843897 C63.9225019,7.97529675 61.0691264,8.92075809 58.6452053,10.4773905 C55.7904025,5.39507719 50.3503961,1.96153846 44.1089109,1.96153846 C36.9634396,1.96153846 30.8684246,6.46169692 28.5003001,12.7840197 C25.4806442,9.73481323 21.2924368,7.84615385 16.6633663,7.84615385 C7.46044323,7.84615385 0,15.3109447 0,24.5192308 C0,33.7275169 7.46044323,41.1923077 16.6633663,41.1923077 C17.6122076,41.1923077 18.5425263,41.1129565 19.4480555,40.9605247 C22.5039225,44.694205 27.1471338,47.0769231 32.3465347,47.0769231 C40.0509418,47.0769231 46.5341269,41.8452029 48.4411739,34.7386338 C50.1114045,34.289905 51.678013,33.5879604 53.097369,32.6764557 C55.9521718,37.758769 61.3921781,41.1923077 67.6336634,41.1923077 C72.5644612,41.1923077 76.995051,39.0494149 80.045974,35.6436008 C82.7316596,41.2465562 88.4538903,45.1153846 95.0792079,45.1153846 C103.509019,45.1153846 110.476815,38.8521059 111.588014,30.7226907 C114.178795,32.3833233 117.259201,33.3461538 120.564356,33.3461538 C123.085728,33.3461538 125.476306,32.785829 127.618497,31.782839 C127.491574,32.6123193 127.425743,33.4619288 127.425743,34.3269231 C127.425743,43.5352092 134.886186,51 144.089109,51 C152.51892,51 159.486716,44.7367212 160.597915,36.6073061 C163.188696,38.2679387 166.269102,39.2307692 169.574257,39.2307692 C169.906646,39.2307692 170.236761,39.2210315 170.564333,39.2018257 C173.469152,41.6669714 177.229355,43.1538462 181.336634,43.1538462 C190.539557,43.1538462 198,35.6890553 198,26.4807692 C198,17.2724831 190.539557,9.80769231 181.336634,9.80769231 C181.004246,9.80769231 180.674131,9.81743002 180.346558,9.83663589 C177.441739,7.37149011 173.681536,5.88461538 169.574257,5.88461538 C164.845866,5.88461538 160.577458,7.85519034 157.544576,11.0203481 C156.28694,4.73517075 150.740682,0 144.089109,0 C139.549336,0 135.524443,2.2057442 133.026493,5.60457862 C129.974087,2.16634516 125.522063,0 120.564356,0 C116.505717,0 112.785981,1.45186777 109.895613,3.86485533 C107.851753,2.65555169 105.467273,1.96153846 102.920792,1.96153846 C98.3095003,1.96153846 94.2294382,4.23732825 91.7412592,7.72763613 C89.5150387,3.15268132 84.8234988,0 79.3960396,0 C73.9170081,0 69.187948,3.21288017 66.988028,7.85843496 Z" id="Combined-Shape" stroke="#979797" stroke-width="2" fill="#8EBFD4"></path>
                    </g>
                </g>
            </g>
        </g>
    </g>
</svg>