<?xml version="1.0" encoding="UTF-8"?>
<svg width="200px" height="200px" viewBox="0 0 200 200" version="1.1" xmlns="http://www.w3.org/2000/svg" xmlns:xlink="http://www.w3.org/1999/xlink">
    <!-- Generator: Sketch 42 (36781) - http://www.bohemiancoding.com/sketch -->
    <title>corn</title>
    <desc>Created with Sketch.</desc>
    <defs></defs>
    <g id="Page-1" stroke="none" stroke-width="1" fill="none" fill-rule="evenodd">
        <g id="communication" transform="translate(18.000000, 23.000000)" fill-rule="nonzero">
            <g id="Layer_1">
                <path d="M51.6964834,113.142025 C52.6240281,112.215595 53.7423146,111.779777 54.8884527,111.779777 L150.942928,111.779777 C153.452954,111.779777 155.526215,109.736405 155.526215,107.202 L155.526215,13.77 C155.526215,11.2634132 153.479962,9.19222314 150.942928,9.19222314 L13.7220077,9.19222314 C11.2124041,9.19222314 9.13872123,11.235595 9.13872123,13.77 L9.13872123,107.202421 C9.13872123,109.709008 11.1845524,111.780198 13.7220077,111.780198 L23.3249233,111.780198 C25.8345269,111.780198 27.9082097,113.82357 27.9082097,116.357975 L27.9082097,136.929942 L51.6964834,113.142025 Z" id="Shape" fill="#FFDC64"></path>
                <g id="Group" fill="#4D3D36">
                    <path d="M150.942928,0.0640661157 L13.7220077,0.0640661157 C6.16534527,0.0640661157 0,6.22242149 0,13.77 L0,107.202421 C0,114.75 6.16534527,120.907934 13.7220077,120.907934 L18.7416368,120.907934 L18.7416368,148.10105 C18.5234655,151.752397 23.5430946,154.258983 26.5164706,151.289182 L56.9342839,120.907934 L150.942928,120.907934 C158.499591,120.907934 164.664936,114.75 164.664936,107.202421 L164.664936,13.77 C164.664936,6.22242149 158.499591,0.0640661157 150.942928,0.0640661157 Z M155.525793,107.202 C155.525793,109.708587 153.47954,111.779777 150.942506,111.779777 L54.8880307,111.779777 C53.7423146,111.779777 52.5965985,112.242992 51.6960614,113.142025 L27.9073657,137.120033 L27.9073657,116.548066 C27.9073657,114.041479 25.8615345,111.970289 23.3240793,111.970289 L13.7220077,111.970289 C11.2124041,111.970289 9.13872123,109.926496 9.13872123,107.392512 L9.13872123,13.77 C9.13872123,11.2634132 11.1845524,9.19222314 13.7220077,9.19222314 L150.942928,9.19222314 C153.452954,9.19222314 155.526215,11.235595 155.526215,13.77 L155.526215,107.202 L155.525793,107.202 Z" id="Shape"></path>
                    <path d="M38.6564194,48.7286033 C29.7358696,48.7286033 22.1792072,56.030876 22.1792072,65.1860083 C22.1792072,74.3411405 29.4902685,81.6434132 38.6564194,81.6434132 C47.5769693,81.6434132 55.1336317,74.3411405 55.1336317,65.1860083 C55.1336317,56.030876 47.5769693,48.7286033 38.6564194,48.7286033 Z M38.6564194,72.2433967 C34.7554987,72.2433967 31.3453581,69.0552645 31.3453581,64.941124 C31.3453581,61.0448926 34.5373274,57.6388512 38.6564194,57.6388512 C42.5573402,57.6388512 45.9674808,60.8269835 45.9674808,64.941124 C45.7493095,69.0552645 42.5303325,72.2433967 38.6564194,72.2433967 Z" id="Shape"></path>
                    <path d="M82.332468,48.7286033 C73.4119182,48.7286033 65.8552558,56.030876 65.8552558,65.1860083 C65.8552558,74.3411405 73.1663171,81.6434132 82.332468,81.6434132 C91.2530179,81.6434132 98.8096803,74.3411405 98.8096803,65.1860083 C98.8096803,56.030876 91.2530179,48.7286033 82.332468,48.7286033 Z M82.332468,72.2433967 C78.4315473,72.2433967 75.0214066,69.0552645 75.0214066,64.941124 C75.0214066,61.0448926 78.213376,57.6388512 82.332468,57.6388512 C86.2333887,57.6388512 89.6435294,60.8269835 89.6435294,64.941124 C89.6435294,69.0552645 86.2333887,72.2433967 82.332468,72.2433967 Z" id="Shape"></path>
                    <path d="M126.008517,48.7286033 C117.087967,48.7286033 109.531304,56.030876 109.531304,65.1860083 C109.531304,74.3411405 116.842366,81.6434132 126.008517,81.6434132 C135.174668,81.6434132 142.485729,74.3411405 142.485729,65.1860083 C142.485729,56.030876 135.174668,48.7286033 126.008517,48.7286033 Z M126.008517,72.2433967 C122.107596,72.2433967 118.697455,69.0552645 118.697455,64.941124 C118.697455,61.0448926 121.889425,57.6388512 126.008517,57.6388512 C130.127609,57.6388512 133.347008,60.8269835 133.347008,64.941124 C133.347008,69.0552645 129.909437,72.2433967 126.008517,72.2433967 Z" id="Shape"></path>
                </g>
            </g>
        </g>
    </g>
</svg>