<?xml version="1.0" encoding="UTF-8"?>
<svg width="200px" height="200px" viewBox="0 0 200 200" version="1.1" xmlns="http://www.w3.org/2000/svg" xmlns:xlink="http://www.w3.org/1999/xlink">
    <!-- Generator: Sketch 43.1 (39012) - http://www.bohemiancoding.com/sketch -->
    <title>Jagung</title>
    <desc>Created with Sketch.</desc>
    <defs>
        <path d="M36.0892402,109.486021 C36.0892402,106.021042 38.9063289,103.212121 42.3656298,103.212121 L42.3656298,103.212121 C45.831984,103.212121 48.6420194,106.023006 48.6420194,109.486021 L48.6420194,152.848485 L36.0892402,152.848485 L36.0892402,109.486021 Z" id="path-1"></path>
        <path d="M25.1055584,108.056182 C25.1055584,103.640347 28.6859498,100.060606 33.1119392,100.060606 L51.6193204,100.060606 C56.0411224,100.060606 59.6257012,103.641824 59.6257012,108.056182 L59.6257012,111.090909 C59.6257012,117.182777 54.6798064,122.121212 48.596524,122.121212 L36.1347355,122.121212 C30.0434892,122.121212 25.1055584,117.184117 25.1055584,111.090909 L25.1055584,108.056182 Z" id="path-2"></path>
        <path d="M41.289304,93.4393501 C41.5152077,93.4483445 41.7432236,93.4551797 41.9733554,93.4597764 C42.0621347,93.4615497 42.1506037,93.4629463 42.2387624,93.4639713 C48.9811951,84.4101049 57.8073096,79.7583459 63.3710302,79.7583459 C96.7109319,79.7583459 78.8748317,129.09468 72.9152285,126.412632 C71.4131084,107.339688 68.5216047,100.518856 66.1006215,98.3559142 C64.0205117,103.120278 59.7807799,107.091477 54.8327682,108.135601 C54.8327682,108.135601 54.7222718,109.341187 41.9733554,109.341187 C29.2244391,109.341187 29.1139427,108.135601 29.1139427,108.135601 C24.2852464,106.966016 20.0890289,103.161185 17.9610888,98.5484829 C15.8173599,100.267261 12.4078195,106.385068 10.1018197,127.15976 C4.87785857,129.349331 -13.1383343,79.5942218 19.9556657,79.5942218 C25.6061618,79.5942218 33.9211262,82.6039001 41.289304,93.4393501 Z" id="path-3"></path>
        <path d="M36.0892402,109.486021 C36.0892402,106.021042 38.9063289,103.212121 42.3656298,103.212121 L42.3656298,103.212121 C45.831984,103.212121 48.6420194,106.023006 48.6420194,109.486021 L48.6420194,152.848485 L36.0892402,152.848485 L36.0892402,109.486021 Z" id="path-4"></path>
        <path d="M25.1055584,108.056182 C25.1055584,103.640347 28.6859498,100.060606 33.1119392,100.060606 L51.6193204,100.060606 C56.0411224,100.060606 59.6257012,103.641824 59.6257012,108.056182 L59.6257012,111.090909 C59.6257012,117.182777 54.6798064,122.121212 48.596524,122.121212 L36.1347355,122.121212 C30.0434892,122.121212 25.1055584,117.184117 25.1055584,111.090909 L25.1055584,108.056182 Z" id="path-5"></path>
        <path d="M41.289304,93.4393501 C41.5152077,93.4483445 41.7432236,93.4551797 41.9733554,93.4597764 C42.0621347,93.4615497 42.1506037,93.4629463 42.2387624,93.4639713 C48.9811951,84.4101049 57.8073096,79.7583459 63.3710302,79.7583459 C96.7109319,79.7583459 78.8748317,129.09468 72.9152285,126.412632 C71.4131084,107.339688 68.5216047,100.518856 66.1006215,98.3559142 C64.0205117,103.120278 59.7807799,107.091477 54.8327682,108.135601 C54.8327682,108.135601 54.7222718,109.341187 41.9733554,109.341187 C29.2244391,109.341187 29.1139427,108.135601 29.1139427,108.135601 C24.2852464,106.966016 20.0890289,103.161185 17.9610888,98.5484829 C15.8173599,100.267261 12.4078195,106.385068 10.1018197,127.15976 C4.87785857,129.349331 -13.1383343,79.5942218 19.9556657,79.5942218 C25.6061618,79.5942218 33.9211262,82.6039001 41.289304,93.4393501 Z" id="path-6"></path>
        <path d="M45.854564,138.978994 C45.854564,134.572317 49.4339237,131 53.8292708,131 L53.8292708,131 C58.2335797,131 61.8039776,134.567661 61.8039776,138.978994 L61.8039776,194 L45.854564,194 L45.854564,138.978994 Z" id="path-7"></path>
        <path d="M31.8988271,135.004934 C31.8988271,130.583931 35.4881476,127 39.8925893,127 L67.7659523,127 C72.1807852,127 75.7597144,130.57466 75.7597144,135.004934 L75.7597144,143.00363 C75.7597144,149.629042 70.3815087,155 63.760038,155 L43.8985035,155 C37.2712653,155 31.8988271,149.634448 31.8988271,143.00363 L31.8988271,135.004934 Z" id="path-8"></path>
        <path d="M52.4609219,118.59495 C52.7487246,118.607132 53.0387056,118.616195 53.3308516,118.622024 C53.4436225,118.624274 53.5560753,118.625986 53.6682092,118.627168 C62.2350478,107.13584 73.4493246,101.231747 80.5184854,101.231747 C122.879772,101.231747 100.217433,163.85094 92.6452315,160.446802 C90.7362487,136.233677 87.0611791,127.577936 83.9847059,124.834599 C81.3410379,130.883389 75.955197,135.924127 69.6698702,137.249031 C69.6698702,137.249031 69.5294748,138.779199 53.3308516,138.779199 C37.1322285,138.779199 36.9710251,137.245418 36.9710251,137.245418 C30.8452648,135.762707 25.5216709,130.936798 22.8207843,125.081058 C20.0969655,127.262984 15.765099,135.028376 12.8352533,161.395081 C6.19774972,164.174151 -16.693413,101.023435 25.3554341,101.023435 C32.5346873,101.023435 43.0991932,104.843198 52.4609189,118.594945 Z" id="path-9"></path>
    </defs>
    <g id="Page-1" stroke="none" stroke-width="1" fill="none" fill-rule="evenodd">
        <g id="Desktop-HD" transform="translate(-732.000000, -398.000000)">
            <g id="Group" transform="translate(742.000000, 401.000000)">
                <g id="Jagung-Copy-4" transform="translate(97.837838, 20.575758)">
                    <g id="Path">
                        <use fill="#BDA445" fill-rule="evenodd" xlink:href="#path-1"></use>
                        <path stroke="#4D3D36" stroke-width="5" d="M46.1420194,150.348485 L38.5892402,150.348485 L38.5892402,109.486021 C38.5892402,107.404844 40.2839489,105.712121 42.3656298,105.712121 C44.4506949,105.712121 46.1420194,107.40314 46.1420194,109.486021 L46.1420194,150.348485 Z"></path>
                    </g>
                    <g id="Rectangle">
                        <use fill="#E1C34F" fill-rule="evenodd" xlink:href="#path-2"></use>
                        <path stroke="#4D3D36" stroke-width="5" d="M27.6055584,108.056182 C27.6055584,105.020168 30.0675546,102.560606 33.1119392,102.560606 L51.6193204,102.560606 C54.6605837,102.560606 57.1257012,105.022711 57.1257012,108.056182 L57.1257012,111.090909 C57.1257012,115.799094 53.3020669,119.621212 48.596524,119.621212 L36.1347355,119.621212 C31.4237487,119.621212 27.6055584,115.802952 27.6055584,111.090909 L27.6055584,108.056182 Z"></path>
                    </g>
                    <ellipse id="Oval" stroke="#4D3D36" stroke-width="5" fill="#FCDB5A" cx="41.9733554" cy="50.030303" rx="22.3596379" ry="50.030303"></ellipse>
                    <path d="M57.3177636,13.6400183 C53.3135315,5.18377149 47.9139954,0 41.9733554,0 C36.0858709,0 30.7298503,5.09142014 26.7367686,13.413812 C26.7367686,13.413812 57.3177636,13.6400183 57.3177636,13.6400183 Z" id="Oval-Copy-2" stroke="#4D3D36" stroke-width="4" fill="#FFE6B8"></path>
                    <ellipse id="Oval-Copy" stroke="#4D3D36" stroke-width="5" fill="#FCDB5A" cx="41.9733554" cy="50.030303" rx="7.45321265" ry="49.2424242"></ellipse>
                    <path d="M46.9871191,13.5945368 C45.663251,5.63793769 43.9040315,0.787878788 41.9733554,0.787878788 C40.0483001,0.787878788 38.2937046,5.60973891 36.9711653,13.5251239 C36.9711653,13.5251239 46.9871191,13.5251239 46.9871191,13.5945368 Z" id="Oval-Copy-3" stroke="#4D3D36" stroke-width="4" fill="#FFE6B8"></path>
                    <g id="Combined-Shape">
                        <use fill="#FFE6B8" fill-rule="evenodd" xlink:href="#path-3"></use>
                        <path stroke="#4D3D36" stroke-width="5" d="M75.0097997,121.737093 C73.5797181,107.39292 71.1585818,99.5223551 67.7662393,96.4915865 L65.1911451,94.1909596 L63.8094696,97.3556028 C61.9629985,101.584832 58.2763076,104.853894 54.3165886,105.689469 L52.5115764,106.070361 L52.4884557,106.322622 C50.5893016,106.641371 47.1849074,106.841187 41.9733554,106.841187 C36.7618034,106.841187 33.3574093,106.641371 31.4582552,106.322622 L31.4403066,106.126792 L29.7024635,105.705859 C25.7577525,104.750389 22.1052204,101.563583 20.2311743,97.5012429 L18.8918119,94.5979283 L16.3972468,96.5979963 C12.9574044,99.3559594 10.1930783,107.133497 8.21208644,121.993281 C7.83519057,121.299394 7.45154739,120.511657 7.07407434,119.649095 C5.09568505,115.128288 3.6025577,109.375969 3.15076054,103.989137 C2.0028189,90.3020904 7.11367276,82.0942218 19.9556657,82.0942218 C26.2590435,82.0942218 33.2562131,86.0720127 39.2219941,94.8451346 L39.9306294,95.8872351 L41.1898451,95.9373709 C41.4332582,95.9470625 41.6777871,95.9543714 41.9234305,95.9592778 C42.0668713,95.9619432 42.0668713,95.9619432 42.2096979,95.9638023 L43.483178,95.9786085 L44.2438498,94.957164 C50.0336215,87.1825488 58.0696877,82.2583459 63.3710302,82.2583459 C76.3446296,82.2583459 81.551834,90.4229627 80.3897192,103.876102 C79.9293296,109.205771 78.3935691,114.856839 76.3625142,119.194195 C75.9131959,120.153722 75.4555188,121.01026 75.0097997,121.737093 Z M42.2466173,92.7883708 L43.3566139,92.0335657 C42.8613175,91.3051957 42.3574437,90.6041764 41.8457979,89.9303516 C41.2931513,90.5902306 40.7549588,91.2707888 40.2336749,91.9707786 L41.3156931,92.7765597 L41.7683089,93.1136236 L42.2387624,93.4639713 L42.2466173,92.7883708 L42.2678268,90.9641402 C42.1458671,90.9625528 42.1458671,90.9625528 42.0232803,90.9602749 C41.8106656,90.9560282 41.5991609,90.9497064 41.388763,90.9413293 L41.3156931,92.7765597 L41.289304,93.4393501 L41.7683089,93.1136236 L42.2466173,92.7883708 Z"></path>
                    </g>
                    <path d="M27.4592045,13.5093358 L58.3911048,13.5093358" id="Path-5" stroke="#4D3D36" stroke-width="5"></path>
                    <path d="M22.7519123,25.8607285 L61.5321548,25.8607285" id="Path-5-Copy-3" stroke="#4D3D36" stroke-width="5"></path>
                    <path d="M20.3982662,37.4401592 L64.6703496,37.4401592" id="Path-5-Copy-4" stroke="#4D3D36" stroke-width="5"></path>
                    <path d="M19.6137175,49.7915519 L64.6703436,49.7915519" id="Path-5-Copy-5" stroke="#4D3D36" stroke-width="5"></path>
                    <path d="M19.6137175,61.3709826 L64.6703436,61.3709826" id="Path-5-Copy-6" stroke="#4D3D36" stroke-width="5"></path>
                    <path d="M21.9673636,72.9504132 L63.1012462,72.9504132" id="Path-5-Copy-7" stroke="#4D3D36" stroke-width="5"></path>
                    <path d="M29.0283019,85.3018059 L55.2557592,85.3018059" id="Path-5-Copy-8" stroke="#4D3D36" stroke-width="5"></path>
                </g>
                <g id="Jagung-Copy-3" transform="translate(0.000000, 28.414141)">
                    <g id="Path">
                        <use fill="#BDA445" fill-rule="evenodd" xlink:href="#path-4"></use>
                        <path stroke="#4D3D36" stroke-width="5" d="M46.1420194,150.348485 L38.5892402,150.348485 L38.5892402,109.486021 C38.5892402,107.404844 40.2839489,105.712121 42.3656298,105.712121 C44.4506949,105.712121 46.1420194,107.40314 46.1420194,109.486021 L46.1420194,150.348485 Z"></path>
                    </g>
                    <g id="Rectangle">
                        <use fill="#E1C34F" fill-rule="evenodd" xlink:href="#path-5"></use>
                        <path stroke="#4D3D36" stroke-width="5" d="M27.6055584,108.056182 C27.6055584,105.020168 30.0675546,102.560606 33.1119392,102.560606 L51.6193204,102.560606 C54.6605837,102.560606 57.1257012,105.022711 57.1257012,108.056182 L57.1257012,111.090909 C57.1257012,115.799094 53.3020669,119.621212 48.596524,119.621212 L36.1347355,119.621212 C31.4237487,119.621212 27.6055584,115.802952 27.6055584,111.090909 L27.6055584,108.056182 Z"></path>
                    </g>
                    <ellipse id="Oval" stroke="#4D3D36" stroke-width="5" fill="#FCDB5A" cx="41.9733554" cy="50.030303" rx="22.3596379" ry="50.030303"></ellipse>
                    <path d="M57.3177636,13.6400183 C53.3135315,5.18377149 47.9139954,0 41.9733554,0 C36.0858709,0 30.7298503,5.09142014 26.7367686,13.413812 C26.7367686,13.413812 57.3177636,13.6400183 57.3177636,13.6400183 Z" id="Oval-Copy-2" stroke="#4D3D36" stroke-width="4" fill="#FFE6B8"></path>
                    <ellipse id="Oval-Copy" stroke="#4D3D36" stroke-width="5" fill="#FCDB5A" cx="41.9733554" cy="50.030303" rx="7.45321265" ry="49.2424242"></ellipse>
                    <path d="M46.9871191,13.5945368 C45.663251,5.63793769 43.9040315,0.787878788 41.9733554,0.787878788 C40.0483001,0.787878788 38.2937046,5.60973891 36.9711653,13.5251239 C36.9711653,13.5251239 46.9871191,13.5251239 46.9871191,13.5945368 Z" id="Oval-Copy-3" stroke="#4D3D36" stroke-width="4" fill="#FFE6B8"></path>
                    <g id="Combined-Shape">
                        <use fill="#FFE6B8" fill-rule="evenodd" xlink:href="#path-6"></use>
                        <path stroke="#4D3D36" stroke-width="5" d="M75.0097997,121.737093 C73.5797181,107.39292 71.1585818,99.5223551 67.7662393,96.4915865 L65.1911451,94.1909596 L63.8094696,97.3556028 C61.9629985,101.584832 58.2763076,104.853894 54.3165886,105.689469 L52.5115764,106.070361 L52.4884557,106.322622 C50.5893016,106.641371 47.1849074,106.841187 41.9733554,106.841187 C36.7618034,106.841187 33.3574093,106.641371 31.4582552,106.322622 L31.4403066,106.126792 L29.7024635,105.705859 C25.7577525,104.750389 22.1052204,101.563583 20.2311743,97.5012429 L18.8918119,94.5979283 L16.3972468,96.5979963 C12.9574044,99.3559594 10.1930783,107.133497 8.21208644,121.993281 C7.83519057,121.299394 7.45154739,120.511657 7.07407434,119.649095 C5.09568505,115.128288 3.6025577,109.375969 3.15076054,103.989137 C2.0028189,90.3020904 7.11367276,82.0942218 19.9556657,82.0942218 C26.2590435,82.0942218 33.2562131,86.0720127 39.2219941,94.8451346 L39.9306294,95.8872351 L41.1898451,95.9373709 C41.4332582,95.9470625 41.6777871,95.9543714 41.9234305,95.9592778 C42.0668713,95.9619432 42.0668713,95.9619432 42.2096979,95.9638023 L43.483178,95.9786085 L44.2438498,94.957164 C50.0336215,87.1825488 58.0696877,82.2583459 63.3710302,82.2583459 C76.3446296,82.2583459 81.551834,90.4229627 80.3897192,103.876102 C79.9293296,109.205771 78.3935691,114.856839 76.3625142,119.194195 C75.9131959,120.153722 75.4555188,121.01026 75.0097997,121.737093 Z M66.2607582,103.109578 C66.3419087,103.299403 66.4226033,103.49728 66.5028024,103.703281 L66.2607582,103.109578 Z M41.3156931,92.7765597 L41.7683089,93.1136236 L42.2387624,93.4639713 L42.2466173,92.7883708 L42.2678268,90.9641402 C42.1458671,90.9625528 42.1458671,90.9625528 42.0232803,90.9602749 C41.8106656,90.9560282 41.5991609,90.9497064 41.388763,90.9413293 L41.3156931,92.7765597 L41.289304,93.4393501 L41.7683089,93.1136236 L42.2466173,92.7883708 L43.3566139,92.0335657 C42.8613175,91.3051957 42.3574437,90.6041764 41.8457979,89.9303516 C41.2931513,90.5902306 40.7549588,91.2707888 40.2336749,91.9707786 L41.3156931,92.7765597 Z"></path>
                    </g>
                    <path d="M27.4592045,13.5093358 L58.3911048,13.5093358" id="Path-5" stroke="#4D3D36" stroke-width="5"></path>
                    <path d="M22.7519123,25.8607285 L61.5321548,25.8607285" id="Path-5-Copy-3" stroke="#4D3D36" stroke-width="5"></path>
                    <path d="M20.3982662,37.4401592 L64.6703496,37.4401592" id="Path-5-Copy-4" stroke="#4D3D36" stroke-width="5"></path>
                    <path d="M19.6137175,49.7915519 L64.6703436,49.7915519" id="Path-5-Copy-5" stroke="#4D3D36" stroke-width="5"></path>
                    <path d="M19.6137175,61.3709826 L64.6703436,61.3709826" id="Path-5-Copy-6" stroke="#4D3D36" stroke-width="5"></path>
                    <path d="M21.9673636,72.9504132 L63.1012462,72.9504132" id="Path-5-Copy-7" stroke="#4D3D36" stroke-width="5"></path>
                    <path d="M29.0283019,85.3018059 L55.2557592,85.3018059" id="Path-5-Copy-8" stroke="#4D3D36" stroke-width="5"></path>
                </g>
                <g id="Jagung" transform="translate(33.264865, 0.000000)">
                    <g id="Path">
                        <use fill="#BDA445" fill-rule="evenodd" xlink:href="#path-7"></use>
                        <path stroke="#4D3D36" stroke-width="5" d="M59.3039776,191.5 L48.354564,191.5 L48.354564,138.978994 C48.354564,135.956257 50.8114069,133.5 53.8292708,133.5 C56.8544006,133.5 59.3039776,135.949906 59.3039776,138.978994 L59.3039776,191.5 Z"></path>
                    </g>
                    <g id="Rectangle">
                        <use fill="#E1C34F" fill-rule="evenodd" xlink:href="#path-8"></use>
                        <path stroke="#4D3D36" stroke-width="5" d="M34.3988271,135.004934 C34.3988271,131.967954 36.8655501,129.5 39.8925893,129.5 L67.7659523,129.5 C70.8029397,129.5 73.2597144,131.95824 73.2597144,135.004934 L73.2597144,143.00363 C73.2597144,148.245999 69.0031287,152.5 63.760038,152.5 L43.8985035,152.5 C38.6497806,152.5 34.3988271,148.251541 34.3988271,143.00363 L34.3988271,135.004934 Z"></path>
                    </g>
                    <ellipse id="Oval" stroke="#4D3D36" stroke-width="5" fill="#FCDB5A" cx="53.3308516" cy="63.5" rx="28.4098929" ry="63.5"></ellipse>
                    <path d="M72.8272761,17.3123309 C67.7395459,6.57940228 60.8789588,0 53.3308516,0 C45.8502831,0 39.0449862,6.4621871 33.9714236,17.0252229 C33.9714236,17.0252229 72.8272761,17.3123309 72.8272761,17.3123309 Z" id="Oval-Copy-2" stroke="#4D3D36" stroke-width="4" fill="#FFE6B8"></path>
                    <ellipse id="Oval-Copy" stroke="#4D3D36" stroke-width="5" fill="#FCDB5A" cx="53.3308516" cy="63.5" rx="9.4699643" ry="62.5"></ellipse>
                    <path d="M59.7012807,17.2546045 C58.0191894,7.155844 55.7839459,1 53.3308516,1 C50.884899,1 48.6555305,7.12005323 46.9751277,17.1665034 C46.9751277,17.1665034 59.7012807,17.1665034 59.7012807,17.2546045 Z" id="Oval-Copy-3" stroke="#4D3D36" stroke-width="4" fill="#FFE6B8"></path>
                    <g id="Combined-Shape">
                        <use fill="#FFE6B8" fill-rule="evenodd" xlink:href="#path-9"></use>
                        <path stroke="#4D3D36" stroke-width="5" d="M94.81221,156.44177 C93.0362622,137.210335 89.9396836,126.795157 85.6485593,122.968696 L83.0749003,120.673725 L81.6939403,123.833403 C79.2637199,129.393819 74.409113,133.695092 69.1542185,134.802789 L67.3489,135.183338 L67.3182226,135.51769 C67.2550259,135.530295 67.1884217,135.543133 67.1183823,135.55614 C64.7239264,136.000807 60.2777096,136.279199 53.3308516,136.279199 C46.3839585,136.279199 41.9339532,136.000149 39.5328448,135.55432 C39.451446,135.539206 39.3746364,135.524313 39.3023724,135.509742 L39.2730144,135.230414 L37.5591554,134.815582 C32.3474247,133.554107 27.5523963,129.370606 25.0909426,124.033976 L23.7522877,121.131665 L21.2577929,123.12989 C16.9159788,126.607918 13.3643249,136.906953 10.8531494,156.868421 C10.0498487,155.638814 9.19610965,154.021281 8.36811533,152.131257 C5.82531445,146.326924 3.90952459,138.95417 3.32919682,132.042245 C1.84147012,114.322851 8.57321334,103.523435 25.3554341,103.523435 C33.5968267,103.523435 42.692705,108.688619 50.3943392,120.001803 L51.1008488,121.039618 L52.3551944,121.092713 C52.6628686,121.105736 52.971466,121.115351 53.28098,121.121526 C53.4014071,121.123929 53.5217043,121.125763 53.6418712,121.127029 L54.9128381,121.140419 L55.6725256,120.121395 C63.1463955,110.096147 73.5439531,103.731747 80.5184854,103.731747 C97.4636082,103.731747 104.323033,114.475467 102.816212,131.900443 C102.224388,138.744338 100.252207,145.993527 97.638377,151.569447 C96.694482,153.582999 95.7179466,155.254159 94.81221,156.44177 Z M84.2969777,129.510012 C84.4225758,129.76096 84.5473068,130.025304 84.6711019,130.303189 L84.2969777,129.510012 Z M52.4965321,117.753677 L53.0693759,118.180735 L53.6682092,118.627168 L53.6772728,117.766899 L53.6945472,116.127306 C53.5900668,116.126206 53.4854588,116.124611 53.3807232,116.122521 C53.1084889,116.11709 52.837131,116.108635 52.5666495,116.097186 L52.4965321,117.753677 L52.4609219,118.59495 L53.0693759,118.180735 L53.6772728,117.766899 L54.5275016,117.188092 C54.0714636,116.518203 53.6097757,115.866887 53.1428356,115.234059 C52.6392231,115.85332 52.1458257,116.486488 51.6638927,117.13294 L52.4965321,117.753677 Z"></path>
                    </g>
                    <path d="M34.8893422,17.1464646 L74.1910508,17.1464646" id="Path-5" stroke="#4D3D36" stroke-width="5"></path>
                    <path d="M28.9083121,32.8232323 L78.1820319,32.8232323" id="Path-5-Copy-3" stroke="#4D3D36" stroke-width="5"></path>
                    <path d="M25.917797,47.520202 L82.1693853,47.520202" id="Path-5-Copy-4" stroke="#4D3D36" stroke-width="5"></path>
                    <path d="M24.9209587,63.1969697 L82.1693777,63.1969697" id="Path-5-Copy-5" stroke="#4D3D36" stroke-width="5"></path>
                    <path d="M24.9209587,77.8939394 L82.1693777,77.8939394" id="Path-5-Copy-6" stroke="#4D3D36" stroke-width="5"></path>
                    <path d="M27.9114737,92.5909091 L80.175701,92.5909091" id="Path-5-Copy-7" stroke="#4D3D36" stroke-width="5"></path>
                    <path d="M36.8830189,108.267677 L70.2073175,108.267677" id="Path-5-Copy-8" stroke="#4D3D36" stroke-width="5"></path>
                </g>
            </g>
        </g>
    </g>
</svg>