<?xml version="1.0" encoding="UTF-8"?>
<svg width="200px" height="200px" viewBox="0 0 200 200" version="1.1" xmlns="http://www.w3.org/2000/svg" xmlns:xlink="http://www.w3.org/1999/xlink">
    <!-- Generator: Sketch 42 (36781) - http://www.bohemiancoding.com/sketch -->
    <title>corn</title>
    <desc>Created with Sketch.</desc>
    <defs></defs>
    <g id="Page-1" stroke="none" stroke-width="1" fill="none" fill-rule="evenodd">
        <g id="corn" transform="translate(31.000000, 2.000000)">
            <g id="Group">
                <path d="M136.527986,75.9424227 C135.907938,74.4926289 134.393842,73.5419278 132.711089,73.5419278 L132.671791,73.5419278 C123.624333,73.6212371 115.131424,75.5423402 107.32952,79.2228969 C104.334623,40.6998041 91.0243365,0 68.4078744,0 C45.791958,0 32.4811254,40.6998041 29.4856831,79.2223918 C21.6843246,75.5418351 13.1914162,73.6212371 4.14395802,73.5414227 L4.10520503,73.5414227 C2.42245205,73.5414227 0.908356429,74.4921237 0.28830862,75.9419175 C-0.336651539,77.4033299 0.0748942777,79.0698351 1.32426878,80.134701 C1.43452376,80.2291649 12.5266114,89.9407629 21.6379301,119.816113 C23.8310218,127.006485 25.1065955,133.883155 26.2331612,139.950062 C28.809962,153.834237 31.0281612,165.768515 42.7097309,172.169835 L42.7097309,182.73666 C42.7097309,189.993206 49.0886911,195.896948 56.9304401,195.896948 L79.8864003,195.896948 C87.7276034,195.896948 94.1065636,189.992701 94.1065636,182.73666 L94.1065636,172.169835 C105.788679,165.76801 108.006878,153.832722 110.583679,139.948546 C111.709153,133.881639 112.985819,127.006485 115.178364,119.815608 C124.182157,90.2928557 135.400329,80.2150206 135.492572,80.1341959 C136.7414,79.0703402 137.152946,77.4038351 136.527986,75.9424227 Z M79.8864003,188.299423 L56.9304401,188.299423 C53.6162409,188.299423 50.9193604,185.804464 50.9193604,182.737165 L50.9193604,175.313918 C55.6466791,176.520732 61.3875795,177.173897 68.4078744,177.173897 C75.428715,177.173897 81.1690696,176.520732 85.8969341,175.313918 L85.8969341,182.737165 C85.8969341,185.804464 83.2005995,188.299423 79.8864003,188.299423 Z M68.4078744,169.575866 C53.5567469,169.575866 48.4768305,166.409557 48.2055596,166.318124 C38.6199262,161.79699 36.9055158,152.570845 34.3243485,138.663433 C33.1639421,132.412144 31.8490696,125.327351 29.5391732,117.752557 C24.0526234,99.7609691 17.7216951,88.4672268 13.1466592,81.9562887 C28.5370536,84.6659381 41.4565357,94.0815155 51.6387469,110.044402 C60.9651174,124.665598 64.3551851,139.518155 64.3879341,139.666165 C64.8453285,141.719619 67.0149501,143.043124 69.2342409,142.620309 C70.8907947,142.305093 72.1068744,141.106866 72.4283604,139.666165 L72.4289062,139.666165 C72.4289062,139.666165 72.4305437,139.659093 72.4310895,139.657577 C72.4327269,139.649495 72.4349102,139.641918 72.4365477,139.633835 C72.5866473,138.98067 76.0171054,124.405948 85.1786393,110.043897 C95.3608505,94.0810103 108.280333,84.665433 123.671273,81.9557835 C119.095691,88.4667216 112.764763,99.7604639 107.278213,117.752052 C104.968317,125.32634 103.653444,132.411134 102.493584,138.662928 C99.9124162,152.570845 98.19746,161.796485 88.6112807,166.318124 C88.3389182,166.409557 81.7547309,169.575866 68.4078744,169.575866 Z M54.0801851,41.1781856 L44.4410616,41.1781856 C45.6756991,37.0111649 47.0473365,33.1088454 48.5445118,29.5252784 C48.6842409,29.5384124 48.8261532,29.5454845 48.969703,29.5454845 L56.0211094,29.5454845 C55.2848026,33.2861546 54.6423763,37.1955464 54.0801851,41.1781856 Z M75.4800218,48.7762165 C75.9254082,52.6542887 76.3031134,56.5626701 76.6240536,60.4079072 L60.1938783,60.4079072 C60.5142728,56.5621649 60.8925238,52.6537835 61.3379102,48.7762165 L75.4800218,48.7762165 Z M62.3083724,41.1781856 C62.8798425,37.1531134 63.5348226,33.2381649 64.2853206,29.5459897 L72.5315198,29.5459897 C73.2820178,33.2381649 73.9369979,37.1531134 74.508468,41.1781856 L62.3083724,41.1781856 Z M77.1938863,68.0064433 C77.4662489,72.0835464 77.6785716,76.0010206 77.8434082,79.638134 L58.9745238,79.638134 C59.1399062,76.0005155 59.3511373,72.0835464 59.6245915,68.0064433 L77.1938863,68.0064433 Z M78.1392409,87.2366701 C78.3499262,93.7319485 78.4034162,98.6026495 78.41597,100.731371 L58.4014162,100.731371 C58.41397,98.6026495 58.46746,93.7319485 58.6786911,87.2366701 L78.1392409,87.2366701 Z M86.3712489,87.2366701 L94.6753046,87.2366701 C91.8408783,89.5396701 89.1336273,92.1255567 86.5633763,94.9902887 C86.525715,92.8090309 86.4651293,90.1918247 86.3712489,87.2366701 Z M68.4078744,125.492536 C66.4707708,120.494031 63.7416871,114.480165 60.0366831,108.329907 L76.7790656,108.329907 C73.0740616,114.47966 70.3449779,120.493526 68.4078744,125.492536 Z M50.2540098,94.991299 C47.6837588,92.1260619 44.975962,89.5406804 42.1415357,87.2366701 L50.4461373,87.2366701 C50.3522568,90.1918247 50.2916712,92.8100412 50.2540098,94.991299 Z M98.9697907,79.6386392 L86.0797827,79.6386392 C85.9160377,76.0085979 85.7042608,72.0931443 85.4291692,68.0069485 L97.9196393,68.0069485 C98.4196074,71.8041959 98.8262409,75.6913608 99.1335357,79.6467216 C99.0784082,79.644701 99.0249182,79.6386392 98.9697907,79.6386392 Z M84.85497,60.4084124 C84.5334839,56.5788351 84.1535955,52.6734845 83.7054799,48.7767216 L94.4056712,48.7767216 C95.2986273,52.5027423 96.0900616,56.3914227 96.77397,60.4084124 L84.85497,60.4084124 Z M82.7366552,41.1781856 C82.174464,37.1955464 81.5314919,33.2861546 80.7957309,29.5459897 L87.8476831,29.5459897 C87.9901413,29.5459897 88.1320536,29.5389175 88.2717827,29.5257835 C89.7684122,33.1093505 91.1405955,37.0111649 92.3746871,41.1786907 L82.7366552,41.1786907 L82.7366552,41.1781856 Z M79.1026074,21.9474536 C78.0011493,17.5859485 76.7375835,13.6113918 75.2906234,10.2091753 C78.5103963,12.6015876 81.6985118,16.5877629 84.6491971,21.9474536 L79.1026074,21.9474536 Z M70.7548863,21.9474536 L66.0614082,21.9474536 C66.7753365,19.3085258 67.5553086,16.8640825 68.4078744,14.6762577 L70.7548863,21.9474536 Z M61.5256712,10.2086701 C60.078711,13.6108866 58.8151453,17.5859485 57.7142329,21.9474536 L52.1665516,21.9474536 C55.1172369,16.5872577 58.3058983,12.6010825 61.5256712,10.2086701 Z M53.1119062,48.7762165 C52.6632449,52.6734845 52.2833564,56.5783299 51.9624162,60.4079072 L40.0423246,60.4079072 C40.7267787,56.3904124 41.5176672,52.501732 42.4106234,48.7762165 L53.1119062,48.7762165 Z M51.388217,68.0064433 C51.1136712,72.0931443 50.9013485,76.0085979 50.7376034,79.638134 L37.6843963,79.638134 C37.9911453,75.6858041 38.3977787,71.8006598 38.8972011,68.0064433 L51.388217,68.0064433 Z" id="Shape" fill="#4D3D36" fill-rule="nonzero"></path>
                <path d="M79.8864003,188.299423 L56.9304401,188.299423 C53.6162409,188.299423 50.9193604,185.804464 50.9193604,182.737165 L50.9193604,175.313918 C55.6466791,176.520732 61.3875795,177.173897 68.4078744,177.173897 C75.428715,177.173897 81.1690696,176.520732 85.8969341,175.313918 L85.8969341,182.737165 C85.8969341,185.804464 83.2005995,188.299423 79.8864003,188.299423 Z" id="Path-Copy-2" fill="#FCDB5A"></path>
                <path d="M68.4078744,169.575866 C53.5567469,169.575866 48.4768305,166.409557 48.2055596,166.318124 C38.6199262,161.79699 36.9055158,152.570845 34.3243485,138.663433 C33.1639421,132.412144 31.8490696,125.327351 29.5391732,117.752557 C24.0526234,99.7609691 17.7216951,88.4672268 13.1466592,81.9562887 C28.5370536,84.6659381 41.4565357,94.0815155 51.6387469,110.044402 C60.9651174,124.665598 64.3551851,139.518155 64.3879341,139.666165 C64.8453285,141.719619 67.0149501,143.043124 69.2342409,142.620309 C70.8907947,142.305093 72.1068744,141.106866 72.4283604,139.666165 L72.4289062,139.666165 C72.4289062,139.666165 72.4305437,139.659093 72.4310895,139.657577 C72.4327269,139.649495 72.4349102,139.641918 72.4365477,139.633835 C72.5866473,138.98067 76.0171054,124.405948 85.1786393,110.043897 C95.3608505,94.0810103 108.280333,84.665433 123.671273,81.9557835 C119.095691,88.4667216 112.764763,99.7604639 107.278213,117.752052 C104.968317,125.32634 103.653444,132.411134 102.493584,138.662928 C99.9124162,152.570845 98.19746,161.796485 88.6112807,166.318124 C88.3389182,166.409557 81.7547309,169.575866 68.4078744,169.575866 Z" id="Path-Copy" fill="#FCDB5A"></path>
                <path d="M51.388217,68.0064433 C51.1136712,72.0931443 50.9013485,76.0085979 50.7376034,79.638134 L37.6843963,79.638134 C37.9911453,75.6858041 38.3977787,71.8006598 38.8972011,68.0064433 L51.388217,68.0064433 Z" id="Path-Copy-3" fill="#FFE6B8"></path>
                <path d="M53.1119062,48.7762165 C52.6632449,52.6734845 52.2833564,56.5783299 51.9624162,60.4079072 L40.0423246,60.4079072 C40.7267787,56.3904124 41.5176672,52.501732 42.4106234,48.7762165 L53.1119062,48.7762165 Z" id="Path-Copy-4" fill="#FFE6B8"></path>
                <path d="M61.5256712,10.2086701 C60.078711,13.6108866 58.8151453,17.5859485 57.7142329,21.9474536 L52.1665516,21.9474536 C55.1172369,16.5872577 58.3058983,12.6010825 61.5256712,10.2086701 Z" id="Path-Copy-5" fill="#FFE6B8"></path>
                <path d="M70.7548863,21.9474536 L66.0614082,21.9474536 C66.7753365,19.3085258 67.5553086,16.8640825 68.4078744,14.6762577 L70.7548863,21.9474536 Z" id="Path-Copy-6" fill="#FFE6B8"></path>
                <path d="M79.1026074,21.9474536 C78.0011493,17.5859485 76.7375835,13.6113918 75.2906234,10.2091753 C78.5103963,12.6015876 81.6985118,16.5877629 84.6491971,21.9474536 L79.1026074,21.9474536 Z" id="Path-Copy-7" fill="#FFE6B8"></path>
                <path d="M82.7366552,41.1781856 C82.174464,37.1955464 81.5314919,33.2861546 80.7957309,29.5459897 L87.8476831,29.5459897 C87.9901413,29.5459897 88.1320536,29.5389175 88.2717827,29.5257835 C89.7684122,33.1093505 91.1405955,37.0111649 92.3746871,41.1786907 L82.7366552,41.1786907 L82.7366552,41.1781856 Z" id="Path-Copy-8" fill="#FFE6B8"></path>
                <path d="M84.85497,60.4084124 C84.5334839,56.5788351 84.1535955,52.6734845 83.7054799,48.7767216 L94.4056712,48.7767216 C95.2986273,52.5027423 96.0900616,56.3914227 96.77397,60.4084124 L84.85497,60.4084124 Z" id="Path-Copy-9" fill="#FFE6B8"></path>
                <path d="M98.9697907,79.6386392 L86.0797827,79.6386392 C85.9160377,76.0085979 85.7042608,72.0931443 85.4291692,68.0069485 L97.9196393,68.0069485 C98.4196074,71.8041959 98.8262409,75.6913608 99.1335357,79.6467216 C99.0784082,79.644701 99.0249182,79.6386392 98.9697907,79.6386392 Z" id="Path-Copy-10" fill="#FFE6B8"></path>
                <path d="M50.2540098,94.991299 C47.6837588,92.1260619 44.975962,89.5406804 42.1415357,87.2366701 L50.4461373,87.2366701 C50.3522568,90.1918247 50.2916712,92.8100412 50.2540098,94.991299 Z" id="Path-Copy-11" fill="#FFE6B8"></path>
                <path d="M68.4078744,125.492536 C66.4707708,120.494031 63.7416871,114.480165 60.0366831,108.329907 L76.7790656,108.329907 C73.0740616,114.47966 70.3449779,120.493526 68.4078744,125.492536 Z" id="Path-Copy-12" fill="#FFE6B8"></path>
                <path d="M86.3712489,87.2366701 L94.6753046,87.2366701 C91.8408783,89.5396701 89.1336273,92.1255567 86.5633763,94.9902887 C86.525715,92.8090309 86.4651293,90.1918247 86.3712489,87.2366701 Z" id="Path-Copy-13" fill="#FFE6B8"></path>
                <path d="M78.1392409,87.2366701 C78.3499262,93.7319485 78.4034162,98.6026495 78.41597,100.731371 L58.4014162,100.731371 C58.41397,98.6026495 58.46746,93.7319485 58.6786911,87.2366701 L78.1392409,87.2366701 Z" id="Path-Copy-14" fill="#FFE6B8"></path>
                <path d="M77.1938863,68.0064433 C77.4662489,72.0835464 77.6785716,76.0010206 77.8434082,79.638134 L58.9745238,79.638134 C59.1399062,76.0005155 59.3511373,72.0835464 59.6245915,68.0064433 L77.1938863,68.0064433 Z" id="Path-Copy-15" fill="#FFE6B8"></path>
                <path d="M62.3083724,41.1781856 C62.8798425,37.1531134 63.5348226,33.2381649 64.2853206,29.5459897 L72.5315198,29.5459897 C73.2820178,33.2381649 73.9369979,37.1531134 74.508468,41.1781856 L62.3083724,41.1781856 Z" id="Path-Copy-16" fill="#FFE6B8"></path>
                <path d="M75.4800218,48.7762165 C75.9254082,52.6542887 76.3031134,56.5626701 76.6240536,60.4079072 L60.1938783,60.4079072 C60.5142728,56.5621649 60.8925238,52.6537835 61.3379102,48.7762165 L75.4800218,48.7762165 Z" id="Path-Copy-17" fill="#FFE6B8"></path>
                <path d="M54.0801851,41.1781856 L44.4410616,41.1781856 C45.6756991,37.0111649 47.0473365,33.1088454 48.5445118,29.5252784 C48.6842409,29.5384124 48.8261532,29.5454845 48.969703,29.5454845 L56.0211094,29.5454845 C55.2848026,33.2861546 54.6423763,37.1955464 54.0801851,41.1781856 Z" id="Path-Copy-18" fill="#FFE6B8"></path>
            </g>
        </g>
    </g>
</svg>