<?xml version="1.0" encoding="UTF-8"?>
<svg width="200px" height="200px" viewBox="0 0 200 200" version="1.1" xmlns="http://www.w3.org/2000/svg" xmlns:xlink="http://www.w3.org/1999/xlink">
    <!-- Generator: Sketch 42 (36781) - http://www.bohemiancoding.com/sketch -->
    <title>003-plant</title>
    <desc>Created with Sketch.</desc>
    <defs></defs>
    <g id="Page-1" stroke="none" stroke-width="1" fill="none" fill-rule="evenodd">
        <g id="disease" transform="translate(0.000000, 13.000000)">
            <g id="Group-2" transform="translate(23.036364, 45.833333)">
                <path d="M64.1909091,96.1666667 C46.4424855,96.1666667 32.0545455,81.8024691 32.0545455,64.0833333 C32.0545455,46.3641976 46.4424855,32 64.1909091,32 C81.9393326,32 96.3272727,46.3641976 96.3272727,64.0833333 C96.3272727,81.8024691 81.9393326,96.1666667 64.1909091,96.1666667 Z M64.1909091,88.8333333 C77.8825501,88.8333333 88.9818182,77.7523809 88.9818182,64.0833333 C88.9818182,50.4142858 77.8825501,39.3333333 64.1909091,39.3333333 C50.4992681,39.3333333 39.4,50.4142858 39.4,64.0833333 C39.4,77.7523809 50.4992681,88.8333333 64.1909091,88.8333333 Z" id="Combined-Shape" fill="#4D3D36"></path>
                <g id="Group-3" transform="translate(39.400000, 39.333333)">
                    <ellipse id="Oval-Copy-2" fill="#D4ED85" cx="24.7909091" cy="24.75" rx="24.7909091" ry="24.75"></ellipse>
                    <ellipse id="Oval-Copy-3" fill="#4D3D36" cx="24.7909091" cy="24.75" rx="6.42727273" ry="6.41666667"></ellipse>
                </g>
                <path d="M61.4363636,21.1740518 C61.4363636,20.0654036 62.3370605,19.1666667 63.4435414,19.1666667 L66.7746404,19.1666667 C67.8831741,19.1666667 68.7818182,20.0592243 68.7818182,21.1740518 L68.7818182,37.3259482 C68.7818182,38.4345964 67.8811213,39.3333333 66.7746404,39.3333333 L63.4435414,39.3333333 C62.3350077,39.3333333 61.4363636,38.4407757 61.4363636,37.3259482 L61.4363636,21.1740518 Z M61.4363636,90.8407184 C61.4363636,89.7320703 62.3370605,88.8333333 63.4435414,88.8333333 L66.7746404,88.8333333 C67.8831741,88.8333333 68.7818182,89.725891 68.7818182,90.8407184 L68.7818182,106.992615 C68.7818182,108.101263 67.8811213,109 66.7746404,109 L63.4435414,109 C62.3350077,109 61.4363636,108.107442 61.4363636,106.992615 L61.4363636,90.8407184 Z M107.157766,59.4939394 C108.266415,59.4939394 109.165152,60.3946363 109.165152,61.5011171 L109.165152,64.8322162 C109.165152,65.9407499 108.272594,66.8393939 107.157766,66.8393939 L91.0058699,66.8393939 C89.8972218,66.8393939 88.9984848,65.938697 88.9984848,64.8322162 L88.9984848,61.5011171 C88.9984848,60.3925835 89.8910425,59.4939394 91.0058699,59.4939394 L107.157766,59.4939394 Z M37.3759482,59.4939394 C38.4845964,59.4939394 39.3833333,60.3946363 39.3833333,61.5011171 L39.3833333,64.8322162 C39.3833333,65.9407499 38.4907757,66.8393939 37.3759482,66.8393939 L21.2240518,66.8393939 C20.1154036,66.8393939 19.2166667,65.938697 19.2166667,64.8322162 L19.2166667,61.5011171 C19.2166667,60.3925835 20.1092243,59.4939394 21.2240518,59.4939394 L37.3759482,59.4939394 Z" id="Combined-Shape" fill="#4D3D36"></path>
                <path d="M61.4363636,21.1740518 C61.4363636,20.0654036 62.3370605,19.1666667 63.4435414,19.1666667 L66.7746404,19.1666667 C67.8831741,19.1666667 68.7818182,20.0592243 68.7818182,21.1740518 L68.7818182,37.3259482 C68.7818182,38.4345964 67.8811213,39.3333333 66.7746404,39.3333333 L63.4435414,39.3333333 C62.3350077,39.3333333 61.4363636,38.4407757 61.4363636,37.3259482 L61.4363636,21.1740518 Z M61.4363636,90.8407184 C61.4363636,89.7320703 62.3370605,88.8333333 63.4435414,88.8333333 L66.7746404,88.8333333 C67.8831741,88.8333333 68.7818182,89.725891 68.7818182,90.8407184 L68.7818182,106.992615 C68.7818182,108.101263 67.8811213,109 66.7746404,109 L63.4435414,109 C62.3350077,109 61.4363636,108.107442 61.4363636,106.992615 L61.4363636,90.8407184 Z M107.157766,59.4939394 C108.266415,59.4939394 109.165152,60.3946363 109.165152,61.5011171 L109.165152,64.8322162 C109.165152,65.9407499 108.272594,66.8393939 107.157766,66.8393939 L91.0058699,66.8393939 C89.8972218,66.8393939 88.9984848,65.938697 88.9984848,64.8322162 L88.9984848,61.5011171 C88.9984848,60.3925835 89.8910425,59.4939394 91.0058699,59.4939394 L107.157766,59.4939394 Z M37.3759482,59.4939394 C38.4845964,59.4939394 39.3833333,60.3946363 39.3833333,61.5011171 L39.3833333,64.8322162 C39.3833333,65.9407499 38.4907757,66.8393939 37.3759482,66.8393939 L21.2240518,66.8393939 C20.1154036,66.8393939 19.2166667,65.938697 19.2166667,64.8322162 L19.2166667,61.5011171 C19.2166667,60.3925835 20.1092243,59.4939394 21.2240518,59.4939394 L37.3759482,59.4939394 Z" id="Combined-Shape-Copy" fill="#4D3D36" transform="translate(64.190909, 64.083333) rotate(-45.000000) translate(-64.190909, -64.083333) "></path>
            </g>
            <g id="Group-2-Copy" transform="translate(103.836364, 0.000000)">
                <path d="M48.5818182,72.9014085 C35.0830172,72.9014085 24.1400768,61.9765258 24.1400768,48.5 C24.1400768,35.0234742 35.0830172,24.0985915 48.5818182,24.0985915 C62.0806192,24.0985915 73.0235595,35.0234742 73.0235595,48.5 C73.0235595,61.9765258 62.0806192,72.9014085 48.5818182,72.9014085 Z M48.5818182,67.3239437 C58.995179,67.3239437 67.4368758,58.896177 67.4368758,48.5 C67.4368758,38.103823 58.995179,29.6760563 48.5818182,29.6760563 C38.1684574,29.6760563 29.7267606,38.103823 29.7267606,48.5 C29.7267606,58.896177 38.1684574,67.3239437 48.5818182,67.3239437 Z" id="Combined-Shape" fill="#4D3D36"></path>
                <g id="Group-3" transform="translate(29.726761, 29.676056)">
                    <ellipse id="Oval-Copy-2" fill="#BCC987" cx="18.8550576" cy="18.8239437" rx="18.8550576" ry="18.8239437"></ellipse>
                    <ellipse id="Oval-Copy-3" fill="#4D3D36" cx="18.8550576" cy="18.8239437" rx="4.88834827" ry="4.88028169"></ellipse>
                </g>
                <path d="M46.4868118,16.3432075 C46.4868118,15.2357775 47.3844092,14.3380282 48.4879531,14.3380282 L50.0723542,14.3380282 C51.177554,14.3380282 52.0734955,15.2289619 52.0734955,16.3432075 L52.0734955,27.670877 C52.0734955,28.778307 51.1758981,29.6760563 50.0723542,29.6760563 L48.4879531,29.6760563 C47.3827533,29.6760563 46.4868118,28.7851226 46.4868118,27.670877 L46.4868118,16.3432075 Z M46.4868118,69.329123 C46.4868118,68.221693 47.3844092,67.3239437 48.4879531,67.3239437 L50.0723542,67.3239437 C51.177554,67.3239437 52.0734955,68.2148774 52.0734955,69.329123 L52.0734955,80.6567925 C52.0734955,81.7642225 51.1758981,82.6619718 50.0723542,82.6619718 L48.4879531,82.6619718 C47.3827533,82.6619718 46.4868118,81.7710381 46.4868118,80.6567925 L46.4868118,69.329123 Z M80.7824007,45.009475 C81.8898307,45.009475 82.78758,45.9070724 82.78758,47.0106163 L82.78758,48.5950175 C82.78758,49.7002173 81.8966463,50.5961588 80.7824007,50.5961588 L69.4547312,50.5961588 C68.3473012,50.5961588 67.4495519,49.6985614 67.4495519,48.5950175 L67.4495519,47.0106163 C67.4495519,45.9054165 68.3404856,45.009475 69.4547312,45.009475 L80.7824007,45.009475 Z M27.7089052,45.009475 C28.8163351,45.009475 29.7140845,45.9070724 29.7140845,47.0106163 L29.7140845,48.5950175 C29.7140845,49.7002173 28.8231508,50.5961588 27.7089052,50.5961588 L16.3812357,50.5961588 C15.2738057,50.5961588 14.3760563,49.6985614 14.3760563,48.5950175 L14.3760563,47.0106163 C14.3760563,45.9054165 15.2669901,45.009475 16.3812357,45.009475 L27.7089052,45.009475 Z" id="Combined-Shape" fill="#4D3D36"></path>
                <path d="M46.4868118,16.3432075 C46.4868118,15.2357775 47.3844092,14.3380282 48.4879531,14.3380282 L50.0723542,14.3380282 C51.177554,14.3380282 52.0734955,15.2289619 52.0734955,16.3432075 L52.0734955,27.670877 C52.0734955,28.778307 51.1758981,29.6760563 50.0723542,29.6760563 L48.4879531,29.6760563 C47.3827533,29.6760563 46.4868118,28.7851226 46.4868118,27.670877 L46.4868118,16.3432075 Z M46.4868118,69.329123 C46.4868118,68.221693 47.3844092,67.3239437 48.4879531,67.3239437 L50.0723542,67.3239437 C51.177554,67.3239437 52.0734955,68.2148774 52.0734955,69.329123 L52.0734955,80.6567925 C52.0734955,81.7642225 51.1758981,82.6619718 50.0723542,82.6619718 L48.4879531,82.6619718 C47.3827533,82.6619718 46.4868118,81.7710381 46.4868118,80.6567925 L46.4868118,69.329123 Z M80.7824007,45.009475 C81.8898307,45.009475 82.78758,45.9070724 82.78758,47.0106163 L82.78758,48.5950175 C82.78758,49.7002173 81.8966463,50.5961588 80.7824007,50.5961588 L69.4547312,50.5961588 C68.3473012,50.5961588 67.4495519,49.6985614 67.4495519,48.5950175 L67.4495519,47.0106163 C67.4495519,45.9054165 68.3404856,45.009475 69.4547312,45.009475 L80.7824007,45.009475 Z M27.7089052,45.009475 C28.8163351,45.009475 29.7140845,45.9070724 29.7140845,47.0106163 L29.7140845,48.5950175 C29.7140845,49.7002173 28.8231508,50.5961588 27.7089052,50.5961588 L16.3812357,50.5961588 C15.2738057,50.5961588 14.3760563,49.6985614 14.3760563,48.5950175 L14.3760563,47.0106163 C14.3760563,45.9054165 15.2669901,45.009475 16.3812357,45.009475 L27.7089052,45.009475 Z" id="Combined-Shape-Copy" fill="#4D3D36" transform="translate(48.581818, 48.500000) rotate(-45.000000) translate(-48.581818, -48.500000) "></path>
            </g>
            <g id="Group-2-Copy-2" transform="translate(0.000000, 6.333333)">
                <path d="M38.5636364,57.4788732 C28.0645689,57.4788732 19.5533931,48.9817423 19.5533931,38.5 C19.5533931,28.0182577 28.0645689,19.5211268 38.5636364,19.5211268 C49.0627038,19.5211268 57.5738796,28.0182577 57.5738796,38.5 C57.5738796,48.9817423 49.0627038,57.4788732 38.5636364,57.4788732 Z M38.5636364,53.1408451 C46.662917,53.1408451 53.2286812,46.5859155 53.2286812,38.5 C53.2286812,30.4140845 46.662917,23.8591549 38.5636364,23.8591549 C30.4643558,23.8591549 23.8985915,30.4140845 23.8985915,38.5 C23.8985915,46.5859155 30.4643558,53.1408451 38.5636364,53.1408451 Z" id="Combined-Shape" fill="#4D3D36"></path>
                <g id="Group-3" transform="translate(23.898592, 23.859155)">
                    <ellipse id="Oval-Copy-2" fill="#D4ED85" cx="14.6650448" cy="14.6408451" rx="14.6650448" ry="14.6408451"></ellipse>
                    <ellipse id="Oval-Copy-3" fill="#4D3D36" cx="14.6650448" cy="14.6408451" rx="3.80204866" ry="3.79577465"></ellipse>
                </g>
                <path d="M36.9341869,13.9263205 C36.9341869,12.8235498 37.8345149,11.9295775 38.9287428,11.9295775 L39.2848295,11.9295775 C40.3863923,11.9295775 41.2793854,12.8262347 41.2793854,13.9263205 L41.2793854,21.8624119 C41.2793854,22.9651826 40.3790575,23.8591549 39.2848295,23.8591549 L38.9287428,23.8591549 C37.82718,23.8591549 36.9341869,22.9624977 36.9341869,21.8624119 L36.9341869,13.9263205 Z M36.9341869,55.1375881 C36.9341869,54.0348174 37.8345149,53.1408451 38.9287428,53.1408451 L39.2848295,53.1408451 C40.3863923,53.1408451 41.2793854,54.0375023 41.2793854,55.1375881 L41.2793854,63.0736795 C41.2793854,64.1764502 40.3790575,65.0704225 39.2848295,65.0704225 L38.9287428,65.0704225 C37.82718,65.0704225 36.9341869,64.1737653 36.9341869,63.0736795 L36.9341869,55.1375881 Z M63.1713747,35.7851472 C64.2741455,35.7851472 65.1681178,36.6854752 65.1681178,37.7797031 L65.1681178,38.1357898 C65.1681178,39.2373526 64.2714606,40.1303457 63.1713747,40.1303457 L55.2352834,40.1303457 C54.1325126,40.1303457 53.2385403,39.2300178 53.2385403,38.1357898 L53.2385403,37.7797031 C53.2385403,36.6781403 54.1351976,35.7851472 55.2352834,35.7851472 L63.1713747,35.7851472 Z M21.8919893,35.7851472 C22.9947601,35.7851472 23.8887324,36.6854752 23.8887324,37.7797031 L23.8887324,38.1357898 C23.8887324,39.2373526 22.9920752,40.1303457 21.8919893,40.1303457 L13.955898,40.1303457 C12.8531272,40.1303457 11.9591549,39.2300178 11.9591549,38.1357898 L11.9591549,37.7797031 C11.9591549,36.6781403 12.8558122,35.7851472 13.955898,35.7851472 L21.8919893,35.7851472 Z" id="Combined-Shape" fill="#4D3D36"></path>
                <path d="M36.9341869,13.9263205 C36.9341869,12.8235498 37.8345149,11.9295775 38.9287428,11.9295775 L39.2848295,11.9295775 C40.3863923,11.9295775 41.2793854,12.8262347 41.2793854,13.9263205 L41.2793854,21.8624119 C41.2793854,22.9651826 40.3790575,23.8591549 39.2848295,23.8591549 L38.9287428,23.8591549 C37.82718,23.8591549 36.9341869,22.9624977 36.9341869,21.8624119 L36.9341869,13.9263205 Z M36.9341869,55.1375881 C36.9341869,54.0348174 37.8345149,53.1408451 38.9287428,53.1408451 L39.2848295,53.1408451 C40.3863923,53.1408451 41.2793854,54.0375023 41.2793854,55.1375881 L41.2793854,63.0736795 C41.2793854,64.1764502 40.3790575,65.0704225 39.2848295,65.0704225 L38.9287428,65.0704225 C37.82718,65.0704225 36.9341869,64.1737653 36.9341869,63.0736795 L36.9341869,55.1375881 Z M63.1713747,35.7851472 C64.2741455,35.7851472 65.1681178,36.6854752 65.1681178,37.7797031 L65.1681178,38.1357898 C65.1681178,39.2373526 64.2714606,40.1303457 63.1713747,40.1303457 L55.2352834,40.1303457 C54.1325126,40.1303457 53.2385403,39.2300178 53.2385403,38.1357898 L53.2385403,37.7797031 C53.2385403,36.6781403 54.1351976,35.7851472 55.2352834,35.7851472 L63.1713747,35.7851472 Z M21.8919893,35.7851472 C22.9947601,35.7851472 23.8887324,36.6854752 23.8887324,37.7797031 L23.8887324,38.1357898 C23.8887324,39.2373526 22.9920752,40.1303457 21.8919893,40.1303457 L13.955898,40.1303457 C12.8531272,40.1303457 11.9591549,39.2300178 11.9591549,38.1357898 L11.9591549,37.7797031 C11.9591549,36.6781403 12.8558122,35.7851472 13.955898,35.7851472 L21.8919893,35.7851472 Z" id="Combined-Shape-Copy" fill="#4D3D36" transform="translate(38.563636, 38.500000) rotate(-45.000000) translate(-38.563636, -38.500000) "></path>
            </g>
        </g>
    </g>
</svg>