<?xml version="1.0" encoding="UTF-8"?>
<svg width="200px" height="200px" viewBox="0 0 200 200" version="1.1" xmlns="http://www.w3.org/2000/svg" xmlns:xlink="http://www.w3.org/1999/xlink">
    <!-- Generator: Sketch 42 (36781) - http://www.bohemiancoding.com/sketch -->
    <title>003-plant</title>
    <desc>Created with Sketch.</desc>
    <defs></defs>
    <g id="Page-1" stroke="none" stroke-width="1" fill="none" fill-rule="evenodd">
        <g id="004-field" transform="translate(5.000000, 4.000000)" fill-rule="nonzero">
            <g id="Capa_1">
                <g id="Group">
                    <path d="M187.553484,124.934276 L187.553484,100.631047 C147.865631,100.631047 125.150824,106.417414 105.140431,112.788541 C125.151229,119.156425 147.879013,124.934276 187.553484,124.934276 Z" id="Shape" fill="#FFE6B8"></path>
                    <path d="M3.04221231,168.10352 L3.04221231,187.553079 L108.090996,187.553079 C103.354115,186.107399 98.8037728,184.611841 94.3479172,183.144263 C71.897104,175.750008 48.6826964,168.10352 3.04221231,168.10352 Z" id="Shape" fill="#D4ED85"></path>
                    <path d="M46.4531465,125.962675 C44.7990297,125.720174 43.6530297,124.188524 43.8825541,122.535219 C41.8841507,122.268792 39.82938,122.021019 37.7141868,121.793117 C37.5531953,123.355992 36.2352548,124.523484 34.6930616,124.523484 C34.5957367,124.523484 34.4976008,124.518618 34.3986539,124.509291 C24.679552,123.575783 14.4227304,123.122006 3.04221231,123.122006 L3.04221231,139.530163 C49.6583779,139.530163 73.3444055,147.331155 96.2502123,154.875452 C110.111703,159.441204 124.444408,164.161459 143.814484,167.026864 C145.468601,167.271393 146.612573,168.80507 146.38021,170.458376 C148.338873,170.722369 150.350658,170.96852 152.421244,171.195611 C152.594807,169.534195 154.069684,168.328989 155.741643,168.484304 C165.588079,169.44782 175.994132,169.91579 187.55389,169.91579 L187.55389,153.507633 C140.93813,153.507633 117.252507,145.706641 94.3471062,138.162344 C80.4073503,133.571045 65.9935414,128.824025 46.4531465,125.962675 Z" id="Shape" fill="#D4ED85"></path>
                    <path d="M152.418,171.215076 C150.350253,170.96852 148.338467,170.721964 146.379805,170.458376 C146.378588,170.465675 146.378588,170.472975 146.377777,170.480679 C146.154335,171.991648 144.85586,173.077225 143.373278,173.077225 C143.225263,173.077225 143.075221,173.066682 142.924367,173.043972 C123.038064,170.102735 108.45272,165.298943 94.3475117,160.653304 C71.8975096,153.259049 48.6831019,145.612966 3.04261783,145.612966 L3.04261783,162.020718 C49.659189,162.020718 73.3452166,169.822115 96.2510234,177.366817 C103.748686,179.836435 111.50142,182.389996 119.930157,184.613057 C121.294732,184.973159 122.193365,186.205535 122.19296,187.553079 L187.554701,187.553079 L187.554701,175.998592 C175.795427,175.998592 165.195941,175.52089 155.149989,174.538314 C153.477624,174.37489 152.254981,172.887036 152.418,171.215076 Z" id="Shape" fill="#BCC987"></path>
                    <path d="M94.3462951,115.671384 C71.8966985,108.27713 48.6822909,100.631047 3.04221231,100.631047 L3.04221231,117.039204 C14.6190021,117.039204 25.0664183,117.502308 34.9801699,118.454064 C36.6521295,118.61465 37.8776115,120.100476 37.7170255,121.772435 C37.7162144,121.779329 37.7145924,121.786223 37.7141868,121.793117 C39.82938,122.021019 41.8837452,122.268792 43.8825541,122.535219 C43.8837707,122.527514 43.8837707,122.520214 43.8845817,122.51251 C44.1278938,120.850282 45.6717091,119.70266 47.3347473,119.943945 C67.3962357,122.881127 82.0647113,127.712495 96.2498068,132.384898 C118.699809,139.778747 141.913811,147.42483 187.55389,147.42483 L187.55389,131.017079 C140.93813,131.017079 117.252507,123.216087 94.3462951,115.671384 Z" id="Shape" fill="#BCC987"></path>
                    <path d="M119.929346,184.613057 C111.501015,182.389996 103.74828,179.836435 96.2502123,177.366817 C73.3444055,169.82252 49.6583779,162.020718 3.04180679,162.020718 C1.36173673,162.020718 0.00040552017,163.382454 0.00040552017,165.062119 C0.00040552017,166.741783 1.36173673,168.10352 3.04180679,168.10352 C48.6822909,168.10352 71.8966985,175.749603 94.3475117,183.144263 C98.8033673,184.611841 103.353709,186.107399 108.09059,187.553079 C111.415045,188.56769 114.828713,189.558376 118.37742,190.494722 C118.637764,190.563255 118.898514,190.596102 119.155208,190.596102 C120.502346,190.596102 121.733911,189.69382 122.094013,188.32965 C122.162546,188.070117 122.191743,187.809773 122.191743,187.553079 C122.192554,186.205535 121.293921,184.973159 119.929346,184.613057 Z" id="Shape" fill="#4D3D36"></path>
                    <path d="M152.421244,171.195206 C152.254981,172.887036 153.477624,174.37489 155.149178,174.538314 C165.194724,175.52089 175.794616,175.998592 187.55389,175.998592 C189.23396,175.998592 190.595291,174.637261 190.595291,172.957191 C190.595291,171.277121 189.23396,169.91579 187.55389,169.91579 C175.994132,169.91579 165.588079,169.44782 155.741643,168.484304 C154.069684,168.328584 152.594807,169.534195 152.421244,171.195206 Z" id="Shape" fill="#4D3D36"></path>
                    <path d="M94.3471062,160.653304 C108.452314,165.298943 123.037658,170.102735 142.923962,173.043972 C143.074815,173.066682 143.224858,173.077225 143.372873,173.077225 C144.855454,173.077225 146.15393,171.991242 146.377372,170.480679 C146.378588,170.47338 146.378588,170.466081 146.379399,170.458376 C146.611762,168.80507 145.468195,167.271393 143.813673,167.026864 C124.443597,164.161864 110.110892,159.441204 96.2494013,154.875452 C73.3435945,147.331155 49.6575669,139.530163 3.04140127,139.530163 C1.36133121,139.530163 0,140.8919 0,142.571565 C0,144.251229 1.36133121,145.612966 3.04140127,145.612966 C48.6826964,145.612966 71.897104,153.259049 94.3471062,160.653304 Z" id="Shape" fill="#4D3D36"></path>
                    <path d="M47.3347473,119.943945 C45.6717091,119.70266 44.1278938,120.850282 43.8845817,122.51251 C43.8833652,122.520214 43.8833652,122.527514 43.8825541,122.535219 C43.6534352,124.188524 44.7990297,125.720174 46.4531465,125.962675 C65.9939469,128.824025 80.4073503,133.571045 94.3467006,138.162344 C117.252102,145.706641 140.937724,153.507633 187.553484,153.507633 C189.233554,153.507633 190.594885,152.146301 190.594885,150.466231 C190.594885,148.786161 189.233554,147.42483 187.553484,147.42483 C141.913406,147.42483 118.699403,139.779153 96.2494013,132.384898 C82.0643057,127.7129 67.3958301,122.881127 47.3347473,119.943945 Z" id="Shape" fill="#4D3D36"></path>
                    <path d="M34.3986539,124.509291 C34.4971953,124.518618 34.5953312,124.523484 34.6930616,124.523484 C36.2348493,124.523484 37.5527898,123.355992 37.7141868,121.793117 C37.7149979,121.786223 37.71662,121.779329 37.7170255,121.772435 C37.8776115,120.100476 36.6521295,118.615055 34.9801699,118.454064 C25.0664183,117.501902 14.6190021,117.039204 3.04221231,117.039204 C1.36214225,117.039204 0.00081104034,118.400941 0.00081104034,120.080605 C0.00081104034,121.76027 1.36214225,123.122006 3.04221231,123.122006 C14.4227304,123.122006 24.679552,123.575783 34.3986539,124.509291 Z" id="Shape" fill="#4D3D36"></path>
                    <path d="M94.3462951,115.671384 C117.252102,123.215682 140.937724,131.017079 187.553484,131.017079 C189.233554,131.017079 190.594885,129.655747 190.594885,127.975677 C190.594885,126.295607 189.233554,124.934276 187.553484,124.934276 C147.878607,124.934276 125.150824,119.156425 105.140025,112.788541 C125.150418,106.417414 147.865225,100.631452 187.553079,100.631047 C189.233149,100.631047 190.594885,99.2697155 190.594885,97.5896454 C190.594885,95.9095754 189.233554,94.5482442 187.553484,94.5482442 C141.581285,94.5482442 117.929321,102.141204 95.3171104,109.58696 C72.6967898,102.139582 49.0257665,94.5482442 3.04180679,94.5482442 C1.36173673,94.5482442 0.00040552017,95.9095754 0.00040552017,97.5896454 C0.00040552017,99.26931 1.36173673,100.631047 3.04180679,100.631047 C48.6822909,100.631047 71.8966985,108.27713 94.3462951,115.671384 Z" id="Shape" fill="#4D3D36"></path>
                    <path d="M95.298051,18.2484076 C83.376569,18.2484076 73.6773376,27.9476391 73.6773376,39.869121 C73.6773376,51.790603 83.376569,61.4898344 95.298051,61.4898344 C107.219533,61.4898344 116.918359,51.790603 116.918359,39.869121 C116.918359,27.9476391 107.219533,18.2484076 95.298051,18.2484076 Z" id="Shape" fill="#FFAD61"></path>
                    <path d="M123.001161,39.869121 C123.001161,24.5931762 110.57359,12.1656051 95.298051,12.1656051 C80.0221062,12.1656051 67.594535,24.5931762 67.594535,39.869121 C67.594535,55.1450658 80.0221062,67.5726369 95.298051,67.5726369 C110.57359,67.5730425 123.001161,55.1450658 123.001161,39.869121 Z M95.298051,61.4902399 C83.376569,61.4902399 73.6773376,51.7910085 73.6773376,39.8695265 C73.6773376,27.9480446 83.376569,18.2484076 95.298051,18.2484076 C107.219533,18.2484076 116.918359,27.9476391 116.918359,39.869121 C116.918359,51.790603 107.219533,61.4902399 95.298051,61.4902399 Z" id="Shape" fill="#4D3D36"></path>
                    <path d="M88.7140255,79.1916008 C88.8839384,79.2199873 89.0522293,79.2337749 89.2184926,79.2337749 C90.6783652,79.2337749 91.9662972,78.179828 92.2148811,76.6927856 C92.4918514,75.0358301 91.3726157,73.4684947 89.7160658,73.1919299 C73.3731975,70.4635902 61.5117325,56.4496242 61.5117325,39.869121 C61.5117325,21.2395244 76.6684544,6.08280255 95.298051,6.08280255 C111.878554,6.08280255 125.89252,17.944673 128.62086,34.2875414 C128.897425,35.9440913 130.463949,37.064949 132.121715,36.7863567 C133.778265,36.5097919 134.897501,34.9424565 134.620531,33.2855011 C133.086042,24.0931699 128.314287,15.6705159 121.184025,9.56987049 C113.972255,3.39866454 104.778707,0 95.298051,0 C73.3139915,0 55.4289299,17.8850616 55.4289299,39.869121 C55.4289299,49.3501826 58.8275945,58.5433248 64.9983949,65.7555011 C71.0990403,72.8853567 79.5212887,77.6571125 88.7140255,79.1916008 Z" id="Shape" fill="#4D3D36"></path>
                    <path d="M101.376798,79.2337749 C101.543062,79.2337749 101.711352,79.2203928 101.88086,79.1916008 C118.662501,76.390673 131.819197,63.2335711 134.620125,46.452741 C134.897096,44.7961911 133.77786,43.2288556 132.120904,42.9522909 C130.463138,42.672482 128.897019,43.7945563 128.620454,45.4515117 C126.246945,59.6702654 115.09879,70.8188259 100.879631,73.1919299 C99.2226752,73.4684947 98.1034395,75.0358301 98.3804098,76.69238 C98.6289936,78.179828 99.9173312,79.2337749 101.376798,79.2337749 Z" id="Shape" fill="#4D3D36"></path>
                </g>
            </g>
        </g>
    </g>
</svg>