<?xml version="1.0" encoding="UTF-8"?>
<svg width="200px" height="200px" viewBox="0 0 200 200" version="1.1" xmlns="http://www.w3.org/2000/svg" xmlns:xlink="http://www.w3.org/1999/xlink">
    <!-- Generator: Sketch 43.1 (39012) - http://www.bohemiancoding.com/sketch -->
    <title>Jagung</title>
    <desc>Created with Sketch.</desc>
    <defs></defs>
    <g id="Page-1" stroke="none" stroke-width="1" fill="none" fill-rule="evenodd">
        <g id="Desktop-HD" transform="translate(-732.000000, -398.000000)" fill-rule="nonzero">
            <g id="mouse" transform="translate(732.000000, 439.000000)">
                <path d="M182.458203,73.479915 C184.648047,69.5691327 185.902734,65.064966 185.902734,60.2678231 C185.820703,37.4070748 171.171094,17.370085 149.445703,10.4075 C142.264844,8.10045918 134.312891,7.46522109 126.451953,8.57102041 L85.1226563,14.3730442 C83.8816406,12.3538946 82.2394531,10.6179422 80.2546875,9.26532313 C77.00625,7.04981293 73.1238281,6.00346939 69.0085938,6.17714286 C66.134375,2.91059524 62.375,0.813605442 58.1914063,0.19244898 C47.40625,-1.40190476 36.9816406,7.41045918 34.9511719,19.832415 C34.7140625,21.2851701 34.5953125,22.7332313 34.6,24.1722959 C25.1515625,27.0320408 16.6933594,32.7562245 10.5433594,40.5226361 C3.74570313,49.1073469 0,59.8661054 0,70.8165306 C0,79.9398639 7.4046875,87.3589286 16.5152344,87.3589286 L158.866797,87.3589286 C164.688281,87.3589286 170.080859,85.4993707 174.501563,82.3517347 L179.141406,82.3517347 C185.610547,82.3517347 190.875391,87.6237415 190.875391,94.1016837 C190.875391,100.58432 185.610547,105.856327 179.141406,105.856327 L110.93125,105.856327 C108.408203,105.856327 106.369141,107.902857 106.369141,110.424643 C106.369141,112.946429 108.408594,114.992959 110.93125,114.992959 L179.141406,114.992959 C190.642969,114.992959 200,105.623197 200,94.1012925 C200,83.7133503 192.390234,75.0789626 182.458203,73.479915 Z" id="Shape-Copy" fill="#87635C"></path>
                <path d="M30.2613281,47.0881973 C27.7382812,47.0881973 25.6992188,49.1304252 25.6992188,51.6565136 C25.6992188,54.1782993 27.7386719,56.2248299 30.2613281,56.2248299 C32.7796875,56.2248299 34.8234375,54.1782993 34.8234375,51.6565136 C34.8238281,49.130034 32.7796875,47.0881973 30.2613281,47.0881973 Z" id="Shape" fill="#4D3D36"></path>
                <g id="SVGCleanerId_1" transform="translate(98.437500, 29.336735)" fill="#4D3D36">
                    <path d="M54.265625,6.73688776 C51.3414063,4.42085034 48.0425781,2.66651361 44.4703125,1.51964286 C40.3414063,0.194795918 35.7109375,-0.166241497 30.9707031,0.501071429 L4.09921875,4.40715986 C1.60820312,4.76819728 -0.120703125,7.08892857 0.239453125,9.58333333 C0.604296875,12.082432 2.91757812,13.8089966 5.41289062,13.4483503 L32.2570313,9.54695578 C33.365625,9.39166667 34.4832031,9.31382653 35.5738281,9.31382653 C37.75,9.31382653 39.803125,9.62010204 41.6871094,10.2228741 C44.2144531,11.0313946 46.5460938,12.2740986 48.6082031,13.9052211 C49.4476563,14.567449 50.4421875,14.887415 51.4320313,14.887415 C52.7824219,14.887415 54.1144531,14.2936395 55.0179688,13.1514626 C56.5785156,11.172602 56.2410156,8.29916667 54.265625,6.73688776 Z" id="Shape"></path>
                </g>
                <path d="M182.458203,73.479915 C184.648047,69.5691327 185.902734,65.064966 185.902734,60.2678231 C185.820703,37.4070748 171.171094,17.370085 149.445703,10.4075 C142.264844,8.10045918 134.312891,7.46522109 126.451953,8.57102041 L85.1226563,14.3730442 C83.8816406,12.3538946 82.2394531,10.6179422 80.2546875,9.26532313 C77.00625,7.04981293 73.1238281,6.00346939 69.0085938,6.17714286 C66.134375,2.91059524 62.375,0.813605442 58.1914063,0.19244898 C47.40625,-1.40190476 36.9816406,7.41045918 34.9511719,19.832415 C34.7140625,21.2851701 34.5953125,22.7332313 34.6,24.1722959 C25.1515625,27.0320408 16.6933594,32.7562245 10.5433594,40.5226361 C3.74570313,49.1073469 0,59.8661054 0,70.8165306 C0,79.9398639 7.4046875,87.3589286 16.5152344,87.3589286 L158.866797,87.3589286 C164.688281,87.3589286 170.080859,85.4993707 174.501563,82.3517347 L179.141406,82.3517347 C185.610547,82.3517347 190.875391,87.6237415 190.875391,94.1016837 C190.875391,100.58432 185.610547,105.856327 179.141406,105.856327 L110.93125,105.856327 C108.408203,105.856327 106.369141,107.902857 106.369141,110.424643 C106.369141,112.946429 108.408594,114.992959 110.93125,114.992959 L179.141406,114.992959 C190.642969,114.992959 200,105.623197 200,94.1012925 C200,83.7133503 192.390234,75.0789626 182.458203,73.479915 Z M43.9527344,21.3082483 C45.184375,13.7792687 50.9742187,8.36566327 56.8546875,9.23363946 C57.2515625,9.28840136 57.6441406,9.37993197 58.0273437,9.49845238 C55.0753906,11.2207143 52.415625,13.5461395 50.253125,16.3558163 C49.0988281,17.8496429 48.1269531,19.4396939 47.3378906,21.0794218 L43.8707031,21.8879422 C43.8980469,21.6966667 43.9207031,21.499915 43.9527344,21.3082483 Z M158.866797,78.2219048 L131.119141,78.2219048 C132.373828,76.1432993 134.463281,74.5990136 136.963281,74.0967687 L148.533203,71.7807313 C151.005859,71.287483 152.607422,68.879915 152.114453,66.4081973 C151.621875,63.9321769 149.217578,62.3284354 146.744531,62.8220748 L135.174609,65.1381122 C128.340234,66.5087245 123.034375,71.707585 121.314453,78.2222959 L51.7722656,78.2222959 C53.0222656,76.1436905 55.1117187,74.5994048 57.6121094,74.0971599 L69.1867187,71.7811224 C71.6550781,71.2878741 73.25625,68.8803061 72.7636719,66.4085884 C72.2710937,63.932568 69.8667969,62.3288265 67.39375,62.822466 L55.8238281,65.1385034 C48.9894531,66.5091156 43.6835937,71.7079762 41.9683594,78.2226871 L16.5152344,78.2226871 C12.4367187,78.2226871 9.12421875,74.9013776 9.12421875,70.8173129 C9.12421875,61.9181122 12.1671875,53.1785034 17.6921875,46.202619 C23.2171875,39.2267347 31.0230469,34.2743027 39.6960937,32.2504592 L44.965625,31.0171429 C44.9519531,32.7714796 45.1527344,34.507432 45.590625,36.174932 C46.2292969,38.6145748 48.7203125,40.0763265 51.1566406,39.4367857 C53.5972656,38.7972449 55.0574219,36.3028401 54.41875,33.8631973 C53.446875,30.1397789 54.5875,25.6856803 57.4753906,21.9395748 C62.1746094,15.8453571 70.2496094,13.4972449 75.1128906,16.8181633 C77.4671875,18.4215136 78.2835937,20.7837075 78.5527344,22.4828912 C79.1140625,26.0373299 77.9277344,30.0298639 75.290625,33.4517007 C72.334375,37.2893367 68.0183594,39.7653571 63.7527344,40.0669388 C61.2390625,40.2453061 59.3457031,42.4287415 59.5234375,44.9462245 C59.696875,47.3537925 61.6996094,49.1902721 64.071875,49.1902721 C64.18125,49.1902721 75.5914062,48.9708333 82.5171875,39.0346769 C85.9480469,34.1053231 88.0464844,28.6232653 87.7867187,23.2276531 L127.715625,17.6219898 C134.230469,16.7082483 140.777344,17.219881 146.6625,19.1111224 C164.610547,24.8626871 176.709375,41.4144728 176.778125,60.2865986 C176.778125,70.1769898 168.739453,78.2219048 158.866797,78.2219048 Z" id="Shape" fill="#4D3D36"></path>
            </g>
        </g>
    </g>
</svg>