<?xml version="1.0" encoding="UTF-8"?>
<svg width="200px" height="200px" viewBox="0 0 200 200" version="1.1" xmlns="http://www.w3.org/2000/svg" xmlns:xlink="http://www.w3.org/1999/xlink">
    <!-- Generator: Sketch 43.1 (39012) - http://www.bohemiancoding.com/sketch -->
    <title>Jagung</title>
    <desc>Created with Sketch.</desc>
    <defs>
        <polygon id="path-1" points="0.388400435 130.511901 39.1906852 145.63425 21.651146 150.452795 85.8096797 158.829182 155.075481 151.208407 185.878943 136.130505 144.818453 122.757782 152.495542 115.242065 113.399852 109.50628 111.562531 100.968264 96.1597885 98.8691167 70.4595477 102.374431 70.6558254 110.007328 62.6974719 112.161026 72.7845281 119.304997 41.9122681 122.480994"></polygon>
        <polygon id="path-2" points="1.33819943 130.81766 1.33819943 143.663585 21.5647012 150.470842 38.935735 145.51224"></polygon>
        <polygon id="path-3" points="22.4884693 150.552521 22.4884693 167.56037 88.830434 178.813047 161.114219 171.834015 185.311224 158.898275 185.311224 136.394832 154.932731 151.114518 85.4218981 158.898275"></polygon>
        <polygon id="path-4" points="152.282863 115.825519 152.405398 123.590615 150.938501 124.650868 144.957081 122.681591"></polygon>
        <polygon id="path-5" points="62.8527607 112.587612 63.061188 120.025924 72.0393784 119.064513"></polygon>
        <polygon id="path-6" points="85.8986369 125.799211 100.491439 124.078153 104.529836 128.768778 103.605259 134.374804 86.2801058 134.873175 88.7989601 130.033243"></polygon>
        <path d="M91.0958325,131.579414 C91.0958325,131.579414 93.5224439,134.715256 98.4778502,131.312444 L106.447783,100.751852 L101.174043,77.2436289 L129.785283,49.7770913 L151.512964,55.6646895 L129.903867,47.4431371 L99.2815716,72.6673594 L95.6371432,58.1786777 L98.5034655,43.3023552 L112.139005,31.2936012 L98.8762742,38.7017568 L101.278819,14.5593603 L126.831241,4.11333378 L137.360041,22.7371206 L118.899919,33.9835686 L140.011125,23.8619276 L127.605286,0.327754113 L97.3395551,12.4119278 L89.6551475,58.914222 L70.7271869,47.5939763 L50.3981479,63.9559848 L58.2921081,83.4012781 L53.8443947,64.7174799 L73.4002009,51.8004463 L91.4566501,64.9964515 L100.877583,100.236079 L91.0958325,131.579414 Z" id="path-7"></path>
    </defs>
    <g id="Page-1" stroke="none" stroke-width="1" fill="none" fill-rule="evenodd">
        <g id="Desktop-HD" transform="translate(-201.000000, -239.000000)">
            <g id="Group-4" transform="translate(205.000000, 241.000000)">
                <g id="Group-6" transform="translate(0.000000, 19.000000)">
                    <g id="Path-9">
                        <use fill="#C0B092" fill-rule="evenodd" xlink:href="#path-1"></use>
                        <path stroke="#4D3D36" stroke-width="4" d="M7.56272173,131.161416 L42.2050626,124.461428 L72.9891988,121.294497 L78.2848441,120.749706 L73.9404522,117.67287 L67.3179135,112.982579 L71.1782744,111.937884 L72.6955714,111.527272 L72.6551645,109.955916 L72.5049406,104.113972 L96.1598958,100.887619 L109.902425,102.760506 L111.444612,109.927035 L111.736549,111.283664 L113.109537,111.485098 L148.213491,116.635249 L143.419339,121.328628 L141.060966,123.637428 L144.199105,124.659468 L180.566999,136.50389 L154.509748,149.258582 L85.8300672,156.814871 L31.7455268,149.75372 L39.7205045,147.562797 L45.54271,145.963293 L39.9169363,143.77077 L7.56272173,131.161416 Z"></path>
                    </g>
                    <g id="Path-10">
                        <use fill="#87635C" fill-rule="evenodd" xlink:href="#path-2"></use>
                        <path stroke="#4D3D36" stroke-width="4" d="M3.33819943,133.746667 L32.6851493,145.216597 L21.6134817,148.37703 L3.33819943,142.226459 L3.33819943,133.746667 Z"></path>
                    </g>
                    <g id="Path-11">
                        <use fill="#87635C" fill-rule="evenodd" xlink:href="#path-3"></use>
                        <path stroke="#4D3D36" stroke-width="4" d="M24.4884693,152.835255 L85.158975,160.880918 L85.4014184,160.913069 L85.6444651,160.885853 L155.155298,153.102095 L155.496163,153.063926 L155.804833,152.914362 L183.311224,139.586333 L183.311224,157.699616 L160.523966,169.881703 L88.9028146,176.796758 L24.4884693,165.871037 L24.4884693,152.835255 Z"></path>
                    </g>
                    <g id="Path-12">
                        <use fill="#87635C" fill-rule="evenodd" xlink:href="#path-4"></use>
                        <path stroke="#4D3D36" stroke-width="2" d="M151.318592,118.097589 L151.397301,123.08539 L150.766393,123.541402 L146.871871,122.259199 L151.318592,118.097589 Z"></path>
                    </g>
                    <g id="Path-13">
                        <use fill="#87635C" fill-rule="evenodd" xlink:href="#path-5"></use>
                        <path stroke="#4D3D36" stroke-width="2" d="M63.9082908,114.55535 L69.2943788,118.352739 L64.0304911,118.916411 L63.9082908,114.55535 Z"></path>
                    </g>
                    <g id="Path-15">
                        <use fill="#4D3D36" fill-rule="evenodd" xlink:href="#path-6"></use>
                        <path stroke="#4D3D36" stroke-width="4" d="M89.4180448,127.397998 L99.6696048,126.188941 L102.404414,129.365439 L101.90014,132.423026 L89.6261308,132.776097 L90.5730801,130.956551 L91.12682,129.89255 L90.4489653,128.902985 L89.4180448,127.397998 Z"></path>
                    </g>
                    <g id="Path-14">
                        <use fill="#4EA25A" fill-rule="evenodd" xlink:href="#path-7"></use>
                        <path stroke="#4D3D36" stroke-width="4" d="M130.278631,49.7255872 L131.175457,48.9868525 L129.192668,49.3124141 L130.278631,49.7255872 Z M71.71619,50.5158666 L63.7448137,55.7811333 L52.742104,63.0486614 L52.3054252,63.3370972 L52.1983323,63.4078345 L51.5747884,63.8196987 L51.8221076,64.8586285 L51.8987633,65.1806411 L51.9257113,65.2938433 L56.3464767,83.8644393 L60.1452303,82.6489895 L52.8106404,64.5816003 L52.3054252,63.3370972 L52.2512701,63.2036962 L52.1983323,63.4078345 L51.8221076,64.8586285 L51.6521486,65.5140227 L51.9257113,65.2938433 L52.8106404,64.5816003 L63.7448137,55.7811333 L70.8960725,50.0253789 L71.71619,50.5158666 L88.6285928,60.6306676 L89.9708878,61.433454 L91.1494914,62.1383414 L91.6283874,59.2402958 L99.1288688,13.8510335 L99.3481422,13.7634843 L126.675356,2.8525701 L128.095423,2.28558106 L128.346897,2.18517521 L127.957598,2.04179004 L127.250388,1.78131329 L125.836052,1.26039073 L126.312719,2.1646395 L126.675356,2.8525701 L137.273069,22.9566853 L138.141039,24.603245 L138.241891,24.7945642 L138.346535,24.4780506 L139.146478,22.0584905 L137.273069,22.9566853 L118.035272,32.1801314 L119.940478,35.6915607 L138.141039,24.603245 L138.346535,24.4780506 L138.4006,24.4451128 L140.053745,23.437968 L139.101074,21.7528424 L128.572274,3.12905549 L128.095423,2.28558106 L127.957598,2.04179004 L127.70522,1.59537426 L127.250388,1.78131329 L126.312719,2.1646395 L126.074424,2.26205618 L100.522003,12.7080827 L99.4078441,13.1635592 L99.3481422,13.7634843 L99.2886495,14.3613074 L96.8861046,38.5037038 L96.506704,42.3161774 L96.7540148,42.1780371 L96.6688594,42.253033 L96.5395871,42.9239614 L93.6732649,57.8002839 L93.5892905,58.2361143 L93.6975614,58.6665528 L97.3419897,73.1552345 L98.1131349,76.2209762 L100.553162,74.2110749 L106.836044,69.0357343 L99.7889858,75.8008479 L98.9757953,76.5815035 L99.2225462,77.6814199 L104.390128,100.716429 L96.7388015,130.055328 C95.279638,130.932895 94.2336851,131.074261 93.4355473,130.795711 L102.786769,100.831905 L102.959307,100.279047 L102.809729,99.7195402 L93.3887961,64.4799132 L93.2065265,63.7981219 L92.6367362,63.3817079 L89.9708878,61.433454 L74.580287,50.1857027 L73.4578921,49.3654346 L72.2979101,50.1316278 L71.71619,50.5158666 Z"></path>
                    </g>
                    <polygon id="Path-16" fill="#4D3D36" points="87.173303 133.625591 77.6444329 136.438837 74.7330303 141.973437 62.0166611 145.023476 75.0804559 142.806647 78.1492437 137.521977 89.35884 134.846739"></polygon>
                    <polygon id="Path-17" fill="#4D3D36" points="101.480506 134.32571 106.006123 138.43288 112.17151 138.734938 118.470172 145.712474 113.12283 137.97367 106.342581 137.601404 103.328773 132.620307"></polygon>
                    <polygon id="Path-18" fill="#4D3D36" points="88.3877126 125.355499 80.6882234 124.024013 79.9748346 121.549284 80.1757435 124.212211 87.0387477 126.877443"></polygon>
                    <polygon id="Path-19" fill="#4D3D36" points="102.524096 128.389983 108.402463 127.404231 112.369801 124.384065 123.625085 123.621875 112.656195 125.146255 109.183538 128.431576 103.303088 130.272323"></polygon>
                </g>
                <g id="Group-5" transform="translate(14.000000, 0.000000)" fill-rule="nonzero">
                    <path d="M29.216087,13.2300955 C20.5730125,13.2300955 13.5410698,20.2620383 13.5410698,28.9051127 C13.5410698,37.5481872 20.5730125,44.5801299 29.216087,44.5801299 C37.8591614,44.5801299 44.8908103,37.5481872 44.8908103,28.9051127 C44.8908103,20.2620383 37.8591614,13.2300955 29.216087,13.2300955 Z" id="Shape" fill="#D4ED85"></path>
                    <path d="M49.3008417,28.9051127 C49.3008417,17.8300527 40.2908527,8.8200637 29.216087,8.8200637 C18.141027,8.8200637 9.13103787,17.8300527 9.13103787,28.9051127 C9.13103787,39.9801727 18.141027,48.9901618 29.216087,48.9901618 C40.2908527,48.9904558 49.3008417,39.9801727 49.3008417,28.9051127 Z M29.216087,44.5804239 C20.5730125,44.5804239 13.5410698,37.5484812 13.5410698,28.9054067 C13.5410698,20.2623323 20.5730125,13.2300955 29.216087,13.2300955 C37.8591614,13.2300955 44.8908103,20.2620383 44.8908103,28.9051127 C44.8908103,37.5481872 37.8591614,44.5804239 29.216087,44.5804239 Z" id="Shape" fill="#4D3D36"></path>
                    <path d="M24.4426685,57.4139106 C24.5658553,57.4344908 24.6878662,57.4444868 24.8084071,57.4444868 C25.8668148,57.4444868 26.8005655,56.6803753 26.9807888,55.6022696 C27.1815923,54.4009768 26.3701464,53.2646587 25.1691477,53.0641492 C13.3205682,51.0861029 4.72100606,40.9259775 4.72100606,28.9051127 C4.72100606,15.3986552 15.7096294,4.41003185 29.216087,4.41003185 C41.2369516,4.41003185 51.397077,13.0098879 53.3751235,24.8584675 C53.5756331,26.0594662 54.711363,26.872088 55.9132434,26.6701086 C57.1142421,26.4695991 57.9256882,25.333281 57.724885,24.1319883 C56.6123804,17.4675482 53.1528581,11.361124 47.9834181,6.93815611 C42.7548849,2.46403179 36.0895626,0 29.216087,0 C13.2776438,0 0.310974177,12.9666697 0.310974177,28.9051127 C0.310974177,35.7788824 2.77500601,42.4439105 7.2488363,47.6727383 C11.6718042,52.8418836 17.7779343,56.3014066 24.4426685,57.4139106 Z" id="Shape" fill="#4D3D36"></path>
                    <path d="M33.6231785,57.4444868 C33.7437199,57.4444868 33.8657302,57.4347848 33.9886235,57.4139106 C46.1553132,55.3832379 55.6939178,45.844339 57.7245906,33.6782372 C57.9253946,32.4772385 57.1139485,31.3409203 55.9126554,31.1404109 C54.710775,30.9375494 53.5753388,31.7510533 53.3748291,32.952346 C51.6540351,43.2609424 43.5716227,51.3436488 33.2627325,53.0641492 C32.0614395,53.2646587 31.2499936,54.4009768 31.4507971,55.6019755 C31.6310204,56.6803753 32.5650651,57.4444868 33.6231785,57.4444868 Z" id="Shape" fill="#4D3D36"></path>
                </g>
            </g>
        </g>
    </g>
</svg>