<?xml version="1.0" encoding="UTF-8"?>
<svg width="200px" height="200px" viewBox="0 0 200 200" version="1.1" xmlns="http://www.w3.org/2000/svg" xmlns:xlink="http://www.w3.org/1999/xlink">
    <!-- Generator: Sketch 42 (36781) - http://www.bohemiancoding.com/sketch -->
    <title>003-plant</title>
    <desc>Created with Sketch.</desc>
    <defs></defs>
    <g id="Page-1" stroke="none" stroke-width="1" fill="none" fill-rule="evenodd">
        <g id="001-cockroach" transform="translate(20.000000, 4.000000)" fill-rule="nonzero">
            <g id="Layer_1">
                <g id="Group">
                    <path d="M108.769806,111.416791 C108.769806,146.433582 95.9934165,175.083582 80.0226495,175.083582 C64.0518826,175.083582 51.2754936,146.433582 51.2754936,111.416791 C51.2754936,76.4 64.0518826,47.75 80.0226495,47.75 C95.9934165,47.75 108.769806,76.4 108.769806,111.416791" id="Shape" fill="#D4ED85"></path>
                    <path d="M51.2754936,111.416791 C51.2754936,76.4 64.0518826,47.75 80.0226495,47.75 C95.9934165,47.75 108.769806,76.4 108.769806,111.416791 C108.769806,146.433582 51.2754936,146.433582 51.2754936,111.416791 Z" id="Shape-Copy" fill="#BCC987"></path>
                    <path d="M80.0226495,178.266791 C62.1354055,178.266791 48.0814899,148.98 48.0814899,111.416791 C48.0814899,73.853582 62.1357798,44.566791 80.0226495,44.566791 C97.9095193,44.566791 111.963809,73.853582 111.963809,111.416791 C111.963809,148.98 97.9098936,178.266791 80.0226495,178.266791 Z M80.0226495,50.933209 C67.5655486,50.933209 54.4694972,75.126418 54.4694972,111.416418 C54.4694972,147.706418 67.5655486,171.9 80.0226495,171.9 C92.4797505,171.9 105.575802,147.706791 105.575802,111.416791 C105.575802,75.126791 92.4797505,50.933209 80.0226495,50.933209 Z" id="Shape" fill="#4D3D36"></path>
                    <path d="M35.3047266,191 C34.9854385,191 34.3464881,191 34.0272,190.681791 C32.430011,190.045 31.7914349,188.135 32.7496734,186.543582 L44.8874862,162.350373 L35.9440514,138.157164 C35.6247633,137.202164 35.6247633,135.928955 36.5830018,134.973955 L49.3593908,119.057164 C50.3176294,117.783955 52.5533945,117.465373 53.8312954,118.420373 C55.108822,119.375373 55.4284844,121.603582 54.4702459,122.877164 L42.9713835,137.520373 L51.9148183,161.395373 C52.2341064,162.350373 52.2341064,162.987164 51.9148183,163.942164 L39.1384294,189.408955 C37.5408661,190.363209 36.5826275,191 35.3047266,191 Z" id="Shape" fill="#4D3D36"></path>
                    <path d="M12.9459523,149.616791 C12.6266642,149.616791 11.9877138,149.616791 11.6684257,149.298582 C10.0712367,148.661791 9.43266055,146.751791 10.3908991,145.160373 L32.7496734,100.593582 C33.0689615,99.956791 33.3886239,99.638582 34.0272,99.320373 L49.997967,89.770373 C51.595156,88.815373 53.511633,89.4521641 54.4698716,90.725373 C55.4281101,92.3171641 54.7891596,94.2271641 53.511633,95.1821641 L38.1798165,104.413955 L15.8206679,147.706791 C15.1817174,148.98 14.2234789,149.616791 12.9459523,149.616791 Z" id="Shape" fill="#4D3D36"></path>
                    <path d="M57.6638752,73.216791 L57.0249248,73.216791 L41.0541578,70.033582 C40.0959193,69.715373 39.4569688,69.396791 39.1376807,68.760373 L26.9998679,50.615373 L12.3070018,47.75 C11.3487633,47.431791 10.7098128,47.113209 10.3905248,46.476791 L4.00214312,36.926791 C3.04390459,35.335 3.36319266,33.425 4.64109358,32.47 C6.23828257,31.515 8.15475963,31.833209 9.11299817,33.106791 L14.8624294,41.701791 L29.5552954,44.566791 C30.5135339,44.885 31.1524844,45.203582 31.4717725,45.84 L43.6095853,63.985 L58.3024514,66.85 C59.8996404,67.168209 61.177167,68.76 60.8578789,70.67 C60.5385908,72.261791 59.2606899,73.216791 57.6638752,73.216791 Z" id="Shape" fill="#4D3D36"></path>
                    <path d="M73.6342679,50.933209 C72.6760294,50.933209 71.7177908,50.615 71.0788404,49.66 L49.0393541,21.646791 L19.3343339,6.685 L4.64109358,12.415 C3.04390459,13.051791 1.12742752,12.415 0.488851376,10.505 C-0.150099083,8.91320898 0.488851376,7.00320898 2.40532844,6.36679102 L18.3760954,0 C19.0150459,0 19.9732844,0 20.6118606,0.318208984 L52.5530202,16.235 C52.8723083,16.553209 53.5112587,16.871791 53.5112587,17.19 L75.870033,45.84 C76.8282716,47.113209 76.8282716,49.341791 75.2310826,50.296791 C74.9121688,50.615 74.2732183,50.933209 73.6342679,50.933209 Z" id="Shape" fill="#4D3D36"></path>
                    <path d="M124.740572,191 C123.463046,191 122.504807,190.363209 121.865857,189.09 L109.089468,163.623209 C108.77018,162.986418 108.77018,162.031418 109.089468,161.076418 L118.032903,137.201418 L106.53404,122.558209 C105.575802,121.285 105.575802,119.056418 107.172991,118.101418 C108.450517,117.146418 110.686657,117.146418 111.644895,118.738209 L124.421284,134.655 C125.060235,135.61 125.379523,136.565 125.060235,137.838209 L116.1168,162.031418 L128.254613,186.224627 C128.893563,187.816418 128.254613,189.726418 126.977086,190.362836 C125.698811,191 125.379149,191 124.740572,191 Z" id="Shape" fill="#4D3D36"></path>
                    <path d="M147.099347,149.616791 C145.82182,149.616791 144.863582,148.98 144.224631,147.706791 L122.185145,104.095 L106.853328,94.863209 C105.256139,93.908209 104.936851,91.998209 105.89509,90.406418 C106.853328,88.814627 108.769806,88.496418 110.366994,89.451418 L126.337761,99.001418 C126.976712,99.319627 127.296,99.638209 127.615288,100.274627 L149.974062,144.841418 C150.613013,146.433209 149.974062,148.343209 148.696536,148.979627 C148.057585,149.616791 147.738297,149.616791 147.099347,149.616791 Z" id="Shape" fill="#4D3D36"></path>
                    <path d="M102.381424,73.216791 C100.784235,73.216791 99.5067083,72.261791 99.1874202,70.67 C98.8681321,69.078209 99.8263706,67.168209 101.742848,66.85 L116.435714,63.985 L128.573527,45.84 C128.892815,45.203209 129.851053,44.566791 130.490004,44.566791 L145.18287,41.701791 L150.932301,33.106791 C151.890539,31.515 153.807017,31.196791 155.404206,32.151791 C157.001394,33.106791 157.320683,35.016791 156.362444,36.608582 L149.974062,46.158582 C149.654774,46.795373 148.696536,47.431791 148.057585,47.431791 L133.364719,50.296791 L121.226906,68.441791 C120.907618,69.078582 119.94938,69.715 119.310429,69.715 L103.339662,72.898209 C102.701086,73.216791 102.701086,73.216791 102.381424,73.216791 Z" id="Shape" fill="#4D3D36"></path>
                    <path d="M86.4110312,50.933209 C85.7720807,50.933209 85.1335046,50.615 84.4945541,50.296418 C83.2170275,49.341418 82.8973651,47.113209 83.8556037,45.839627 L106.214378,17.189627 C106.533666,16.871418 106.853328,16.5528359 107.172617,16.234627 L139.113776,0.317835938 C140.072015,-0.000373046875 141.030253,-0.000373046875 141.669204,0.317835938 L157.639971,6.68462695 C159.23716,7.32141797 160.195398,9.23141797 159.556448,10.8228359 C158.917497,12.414627 157.00102,13.369627 155.404206,12.7328359 L140.710965,6.685 L110.686283,21.646791 L88.6467963,49.66 C88.3275083,50.615 87.3692697,50.933209 86.4110312,50.933209 Z" id="Shape" fill="#4D3D36"></path>
                    <path d="M80.0226495,155.983209 C71.0792147,155.983209 62.4550679,154.391418 55.7473982,151.845 L54.4698716,151.208209 L54.1505835,149.935 C51.9148183,143.25 50.3176294,135.61 49.3593908,127.651791 L49.0401028,125.741791 L50.9565798,124.786791 C57.6642495,120.33 68.5241615,117.783582 80.0230239,117.783582 C91.5218862,117.783582 102.381798,120.330373 109.40913,124.468582 L111.325607,125.423582 L111.006319,127.333582 C110.048081,135.291791 108.450892,142.931791 106.215127,149.616791 L105.895839,150.89 L104.618312,151.526791 C97.5902312,154.391791 88.9660844,155.983209 80.0226495,155.983209 Z M59.2606899,146.433209 C65.0101211,148.661418 72.3567413,149.616418 80.0226495,149.616418 C87.6885578,149.616418 94.7155156,148.343209 100.784609,146.433209 C102.381798,141.021418 103.659325,135.291418 104.617563,128.925 C98.548844,125.741791 89.6050349,124.15 80.3423119,124.15 C71.079589,124.15 62.1357798,126.06 56.0670606,128.925 C56.3859743,135.291791 57.6638752,141.021791 59.2606899,146.433209 Z" id="Shape" fill="#4D3D36"></path>
                    <path d="M80.0226495,105.05 C68.5237872,105.05 57.6638752,102.503209 50.6365431,98.365 L48.7200661,97.41 L49.0393541,95.5 C49.9975927,87.541791 51.5947817,79.901791 53.8305468,73.216791 L54.1498349,71.943582 L55.4273615,71.306791 C62.1350312,68.441791 70.759178,67.168582 79.7026128,67.168582 C88.6460477,67.168582 97.2701945,68.760373 103.977864,71.306791 L105.255391,71.943582 L105.574679,73.216791 C107.810444,79.901791 109.407633,87.541791 110.365872,95.5 L110.68516,97.41 L108.768683,98.365 C102.381424,102.503209 91.5215119,105.05 80.0226495,105.05 Z M55.7473982,93.908209 C61.8161174,97.091418 70.7599266,98.683209 80.0226495,98.683209 C89.2853725,98.683209 98.2291817,96.773209 104.297901,93.908209 C103.339662,87.541418 102.381424,81.811418 100.464947,76.4 C94.7155156,74.171791 87.3688954,73.216791 79.7029872,73.216791 C72.0370789,73.216791 65.0101211,74.49 58.9410275,76.4 C57.6638752,81.811791 56.3859743,87.541791 55.7473982,93.908209 Z" id="Shape" fill="#4D3D36"></path>
                </g>
            </g>
        </g>
    </g>
</svg>