<?xml version="1.0" encoding="UTF-8"?>
<svg width="200px" height="200px" viewBox="0 0 200 200" version="1.1" xmlns="http://www.w3.org/2000/svg" xmlns:xlink="http://www.w3.org/1999/xlink">
    <!-- Generator: Sketch 43.1 (39012) - http://www.bohemiancoding.com/sketch -->
    <title>Jagung</title>
    <desc>Created with Sketch.</desc>
    <defs></defs>
    <g id="Page-1" stroke="none" stroke-width="1" fill="none" fill-rule="evenodd">
        <g id="Desktop-HD" transform="translate(-201.000000, -155.000000)">
            <g id="Group-4" transform="translate(104.000000, 155.000000)">
                <g id="Group-14" transform="translate(97.000000, 0.000000)">
                    <g id="Group-19" transform="translate(0.000000, 18.000000)">
                        <g id="Group-13-Copy" transform="translate(101.000000, 153.000000)">
                            <path d="M80.4193024,11.9659612 C77.8436761,11.9659612 75.3364607,12.5370768 72.9670073,13.664105 C72.2039111,14.0270654 71.3284424,13.7204983 70.8582665,12.925469 C66.2126889,5.06778514 58.5885444,0.376948149 50.4641321,0.376948149 C42.33972,0.376948149 34.7158105,5.06806169 30.069998,12.9257455 C29.5998217,13.7207748 28.7248235,14.027342 27.9612571,13.6643816 C25.5915683,12.5376299 23.084353,11.9662371 20.508962,11.9662371 C12.3394129,11.9662371 4.98232859,17.8877661 2,26.7762786 L98.9282642,26.7762786 C95.9459359,17.8877661 88.5888514,11.9659612 80.4193024,11.9659612 Z" id="Shape" fill="#84775F" fill-rule="nonzero"></path>
                            <path d="M98.8300944,24.5301084 C95.6770337,15.6831539 87.2707298,9.73897698 77.9116624,9.73897698 C75.4788039,9.73897698 73.0990135,10.1295371 70.8200067,10.9014763 C65.9703444,4.57144181 58.5721011,0.713538191 50.6324797,0.376948149 C50.6324797,0.376948149 47.1075,0.458240553 47.1075,0.458240553 C39.649277,1.12850866 32.7725676,4.90758377 28.1804392,10.9014763 C25.9014324,10.1295371 23.5216419,9.73897698 21.0887838,9.73897698 C11.7297162,9.73897698 3.32318919,15.6831539 0.170351351,24.5301084 C-0.140918919,25.4032706 0.311716216,26.3646676 1.18131081,26.6775189 C2.05001351,26.9899227 3.0079054,26.535538 3.31939865,25.6621517 C3.3874054,25.4715742 3.4600946,25.2836841 3.53367567,25.0962421 C6.36231079,17.8955087 13.34025,13.0983784 21.0887838,13.0983784 C23.5316757,13.0983784 25.9096824,13.5610493 28.157027,14.4740738 C28.8812433,14.7681142 29.7111487,14.519759 30.1570946,13.8756924 C34.5632635,7.50982653 41.7945,3.70970062 49.5,3.70970062 C57.2055,3.70970062 64.4367365,7.51005057 68.8431287,13.8756924 C69.2890742,14.519759 70.1194258,14.7681142 70.8431961,14.4740738 C73.0907635,13.5612733 75.4687702,13.0983784 77.9114393,13.0983784 C85.659973,13.0983784 92.6379124,17.8955087 95.4665472,25.0962421 C95.5401287,25.2836841 95.6130404,25.4715742 95.6808242,25.6621517 C95.9254258,26.3485434 96.5689258,26.7762786 97.2554596,26.7762786 C97.4425337,26.7762786 97.6327298,26.7444783 97.8189124,26.6777429 C98.6885067,26.3648916 99.1411421,25.4034946 98.8300944,24.5301084 Z" id="Shape" fill="#C0B092" fill-rule="nonzero"></path>
                            <path d="M19.3440203,20.0473977 C18.3604865,20.0473977 17.5602365,19.2436583 17.5602365,18.2558363 C17.5602365,17.2680143 18.3604865,16.4642749 19.3440203,16.4642749 C20.327554,16.4642749 21.127804,17.2680143 21.127804,18.2558363 C21.127804,19.2436583 20.327554,20.0473977 19.3440203,20.0473977 Z" id="Shape-path" fill="#4D3D36"></path>
                            <path d="M59.0332096,14.4487679 C58.0496758,14.4487679 57.2494258,13.6450291 57.2494258,12.6572065 C57.2494258,11.6693845 58.0496758,10.865645 59.0332096,10.865645 C60.0167433,10.865645 60.8169933,11.6693845 60.8169933,12.6572065 C60.8169933,13.6450291 60.0167433,14.4487679 59.0332096,14.4487679 Z" id="Shape-path" fill="#4D3D36"></path>
                            <path d="M64.8305067,20.0473977 C63.846973,20.0473977 63.046723,19.2436583 63.046723,18.2558363 C63.046723,17.2680143 63.846973,16.4642749 64.8305067,16.4642749 C65.8140404,16.4642749 66.6142904,17.2680143 66.6142904,18.2558363 C66.6142904,19.2436583 65.8140404,20.0473977 64.8305067,20.0473977 Z" id="Shape-path" fill="#4D3D36"></path>
                        </g>
                        <g id="Group-12-Copy-3" transform="translate(53.000000, 153.000000)">
                            <path d="M78.5836584,12.6844232 C76.0858434,12.6844232 73.6543726,13.225266 71.3565018,14.2925546 C70.6164593,14.6362759 69.767439,14.3459587 69.3114675,13.593071 C64.8062357,6.15189376 57.4124214,1.70970062 49.5334528,1.70970062 C41.6544842,1.70970062 34.2608979,6.15215566 29.7554384,13.5933329 C29.2994663,14.3462206 28.4509024,14.6365378 27.7104038,14.2928165 C25.4123048,13.2257898 22.980834,12.6846844 20.4832473,12.6846844 C12.5605054,12.6846844 5.42568326,18.2923352 2.5334527,26.7097006 L96.5334527,26.7097006 C93.6412225,18.2923352 86.5064001,12.6844232 78.5836584,12.6844232 Z" id="Shape-Copy-3" fill="#84775F" fill-rule="nonzero"></path>
                            <path d="M98.8300944,24.5301084 C95.6770337,15.6831539 87.2707298,9.73897698 77.9116624,9.73897698 C75.4788039,9.73897698 73.0990135,10.1295371 70.8200067,10.9014763 C65.9703444,4.57144181 58.5721011,0.713538191 50.6324797,0.376948149 C50.6324797,0.376948149 47.1075,0.458240553 47.1075,0.458240553 C39.649277,1.12850866 32.7725676,4.90758377 28.1804392,10.9014763 C25.9014324,10.1295371 23.5216419,9.73897698 21.0887838,9.73897698 C11.7297162,9.73897698 3.32318919,15.6831539 0.170351351,24.5301084 C-0.140918919,25.4032706 0.311716216,26.3646676 1.18131081,26.6775189 C2.05001351,26.9899227 3.0079054,26.535538 3.31939865,25.6621517 C3.3874054,25.4715742 3.4600946,25.2836841 3.53367567,25.0962421 C6.36231079,17.8955087 13.34025,13.0983784 21.0887838,13.0983784 C23.5316757,13.0983784 25.9096824,13.5610493 28.157027,14.4740738 C28.8812433,14.7681142 29.7111487,14.519759 30.1570946,13.8756924 C34.5632635,7.50982653 41.7945,3.70970062 49.5,3.70970062 C57.2055,3.70970062 64.4367365,7.51005057 68.8431287,13.8756924 C69.2890742,14.519759 70.1194258,14.7681142 70.8431961,14.4740738 C73.0907635,13.5612733 75.4687702,13.0983784 77.9114393,13.0983784 C85.659973,13.0983784 92.6379124,17.8955087 95.4665472,25.0962421 C95.5401287,25.2836841 95.6130404,25.4715742 95.6808242,25.6621517 C95.9254258,26.3485434 96.5689258,26.7762786 97.2554596,26.7762786 C97.4425337,26.7762786 97.6327298,26.7444783 97.8189124,26.6777429 C98.6885067,26.3648916 99.1411421,25.4034946 98.8300944,24.5301084 Z" id="Shape-Copy-2" fill="#C0B092" fill-rule="nonzero"></path>
                            <path d="M19.3440203,20.0473977 C18.3604865,20.0473977 17.5602365,19.2436583 17.5602365,18.2558363 C17.5602365,17.2680143 18.3604865,16.4642749 19.3440203,16.4642749 C20.327554,16.4642749 21.127804,17.2680143 21.127804,18.2558363 C21.127804,19.2436583 20.327554,20.0473977 19.3440203,20.0473977 Z" id="Shape-path" fill="#4D3D36"></path>
                            <path d="M59.0332096,14.4487679 C58.0496758,14.4487679 57.2494258,13.6450291 57.2494258,12.6572065 C57.2494258,11.6693845 58.0496758,10.865645 59.0332096,10.865645 C60.0167433,10.865645 60.8169933,11.6693845 60.8169933,12.6572065 C60.8169933,13.6450291 60.0167433,14.4487679 59.0332096,14.4487679 Z" id="Shape-path" fill="#4D3D36"></path>
                            <path d="M64.8305067,20.0473977 C63.846973,20.0473977 63.046723,19.2436583 63.046723,18.2558363 C63.046723,17.2680143 63.846973,16.4642749 64.8305067,16.4642749 C65.8140404,16.4642749 66.6142904,17.2680143 66.6142904,18.2558363 C66.6142904,19.2436583 65.8140404,20.0473977 64.8305067,20.0473977 Z" id="Shape-path" fill="#4D3D36"></path>
                        </g>
                        <g id="Group-12-Copy-2" transform="translate(1.000000, 153.000000)">
                            <path d="M78.5836584,12.6844232 C76.0858434,12.6844232 73.6543726,13.225266 71.3565018,14.2925546 C70.6164593,14.6362759 69.767439,14.3459587 69.3114675,13.593071 C64.8062357,6.15189376 57.4124214,1.70970062 49.5334528,1.70970062 C41.6544842,1.70970062 34.2608979,6.15215566 29.7554384,13.5933329 C29.2994663,14.3462206 28.4509024,14.6365378 27.7104038,14.2928165 C25.4123048,13.2257898 22.980834,12.6846844 20.4832473,12.6846844 C12.5605054,12.6846844 5.42568326,18.2923352 2.5334527,26.7097006 L96.5334527,26.7097006 C93.6412225,18.2923352 86.5064001,12.6844232 78.5836584,12.6844232 Z" id="Shape-Copy-3" fill="#84775F" fill-rule="nonzero"></path>
                            <path d="M98.8300944,24.5301084 C95.6770337,15.6831539 87.2707298,9.73897698 77.9116624,9.73897698 C75.4788039,9.73897698 73.0990135,10.1295371 70.8200067,10.9014763 C65.9703444,4.57144181 58.5721011,0.713538191 50.6324797,0.376948149 C50.6324797,0.376948149 47.1075,0.458240553 47.1075,0.458240553 C39.649277,1.12850866 32.7725676,4.90758377 28.1804392,10.9014763 C25.9014324,10.1295371 23.5216419,9.73897698 21.0887838,9.73897698 C11.7297162,9.73897698 3.32318919,15.6831539 0.170351351,24.5301084 C-0.140918919,25.4032706 0.311716216,26.3646676 1.18131081,26.6775189 C2.05001351,26.9899227 3.0079054,26.535538 3.31939865,25.6621517 C3.3874054,25.4715742 3.4600946,25.2836841 3.53367567,25.0962421 C6.36231079,17.8955087 13.34025,13.0983784 21.0887838,13.0983784 C23.5316757,13.0983784 25.9096824,13.5610493 28.157027,14.4740738 C28.8812433,14.7681142 29.7111487,14.519759 30.1570946,13.8756924 C34.5632635,7.50982653 41.7945,3.70970062 49.5,3.70970062 C57.2055,3.70970062 64.4367365,7.51005057 68.8431287,13.8756924 C69.2890742,14.519759 70.1194258,14.7681142 70.8431961,14.4740738 C73.0907635,13.5612733 75.4687702,13.0983784 77.9114393,13.0983784 C85.659973,13.0983784 92.6379124,17.8955087 95.4665472,25.0962421 C95.5401287,25.2836841 95.6130404,25.4715742 95.6808242,25.6621517 C95.9254258,26.3485434 96.5689258,26.7762786 97.2554596,26.7762786 C97.4425337,26.7762786 97.6327298,26.7444783 97.8189124,26.6777429 C98.6885067,26.3648916 99.1411421,25.4034946 98.8300944,24.5301084 Z" id="Shape-Copy-2" fill="#C0B092" fill-rule="nonzero"></path>
                            <path d="M19.3440203,20.0473977 C18.3604865,20.0473977 17.5602365,19.2436583 17.5602365,18.2558363 C17.5602365,17.2680143 18.3604865,16.4642749 19.3440203,16.4642749 C20.327554,16.4642749 21.127804,17.2680143 21.127804,18.2558363 C21.127804,19.2436583 20.327554,20.0473977 19.3440203,20.0473977 Z" id="Shape-path" fill="#4D3D36"></path>
                            <path d="M59.0332096,14.4487679 C58.0496758,14.4487679 57.2494258,13.6450291 57.2494258,12.6572065 C57.2494258,11.6693845 58.0496758,10.865645 59.0332096,10.865645 C60.0167433,10.865645 60.8169933,11.6693845 60.8169933,12.6572065 C60.8169933,13.6450291 60.0167433,14.4487679 59.0332096,14.4487679 Z" id="Shape-path" fill="#4D3D36"></path>
                            <path d="M64.8305067,20.0473977 C63.846973,20.0473977 63.046723,19.2436583 63.046723,18.2558363 C63.046723,17.2680143 63.846973,16.4642749 64.8305067,16.4642749 C65.8140404,16.4642749 66.6142904,17.2680143 66.6142904,18.2558363 C66.6142904,19.2436583 65.8140404,20.0473977 64.8305067,20.0473977 Z" id="Shape-path" fill="#4D3D36"></path>
                        </g>
                        <g id="Group-16" transform="translate(1.000000, 123.000000)">
                            <g id="Group-15" transform="translate(28.000000, 0.000000)">
                                <polygon id="Path-23" fill="#594A2B" points="19.577476 34.4368105 22.6054046 16.2960822 13.0411231 8.59204404 3.69158819 18.1241136 13.1364169 10.6992461 19.9841526 17.0356162 17.1937876 34.7052439"></polygon>
                                <polygon id="Path-23-Copy" fill="#594A2B" transform="translate(29.148496, 23.648644) scale(-1, 1) rotate(-19.000000) translate(-29.148496, -23.648644) " points="35.577476 36.4368105 38.6054046 18.2960822 29.0411231 10.592044 19.6915882 20.1241136 29.1364169 12.6992461 35.9841526 19.0356162 33.1937876 36.7052439"></polygon>
                                <polygon id="Path-6" fill="#5A4A2C" points="18.4077797 34.2431202 21.0048664 34.6227451 23.9052763 6.16971455 29.760732 2.43657896 42.3260349 4.2866618 29.6373303 0.498890371 22.1135973 5.35394482"></polygon>
                                <polygon id="Path-6-Copy" fill="#5A4A2C" transform="translate(11.366907, 17.560818) scale(-1, 1) translate(-11.366907, -17.560818) " points="0.407779652 34.2431202 3.0048664 34.6227451 3.90527631 6.16971455 9.76073197 2.43657896 22.3260349 4.2866618 9.63733031 0.498890371 2.11359731 5.35394482"></polygon>
                            </g>
                            <g id="Group-15-Copy" transform="translate(0.000000, 10.000000)">
                                <polygon id="Path-23" fill="#594A2B" points="19.577476 34.4368105 22.6054046 16.2960822 13.0411231 8.59204404 3.69158819 18.1241136 13.1364169 10.6992461 19.9841526 17.0356162 17.1937876 34.7052439"></polygon>
                                <polygon id="Path-23-Copy" fill="#594A2B" transform="translate(29.148496, 23.648644) scale(-1, 1) rotate(-19.000000) translate(-29.148496, -23.648644) " points="35.577476 36.4368105 38.6054046 18.2960822 29.0411231 10.592044 19.6915882 20.1241136 29.1364169 12.6992461 35.9841526 19.0356162 33.1937876 36.7052439"></polygon>
                                <polygon id="Path-6" fill="#5A4A2C" points="18.4077797 34.2431202 21.0048664 34.6227451 23.9052763 6.16971455 29.760732 2.43657896 42.3260349 4.2866618 29.6373303 0.498890371 22.1135973 5.35394482"></polygon>
                                <polygon id="Path-6-Copy" fill="#5A4A2C" transform="translate(11.366907, 17.560818) scale(-1, 1) translate(-11.366907, -17.560818) " points="0.407779652 34.2431202 3.0048664 34.6227451 3.90527631 6.16971455 9.76073197 2.43657896 22.3260349 4.2866618 9.63733031 0.498890371 2.11359731 5.35394482"></polygon>
                            </g>
                            <g id="Group-15-Copy-2" transform="translate(64.000000, 10.000000)">
                                <polygon id="Path-23" fill="#594A2B" points="19.577476 34.4368105 22.6054046 16.2960822 13.0411231 8.59204404 3.69158819 18.1241136 13.1364169 10.6992461 19.9841526 17.0356162 17.1937876 34.7052439"></polygon>
                                <polygon id="Path-23-Copy" fill="#594A2B" transform="translate(29.148496, 23.648644) scale(-1, 1) rotate(-19.000000) translate(-29.148496, -23.648644) " points="35.577476 36.4368105 38.6054046 18.2960822 29.0411231 10.592044 19.6915882 20.1241136 29.1364169 12.6992461 35.9841526 19.0356162 33.1937876 36.7052439"></polygon>
                                <polygon id="Path-6" fill="#5A4A2C" points="18.4077797 34.2431202 21.0048664 34.6227451 23.9052763 6.16971455 29.760732 2.43657896 42.3260349 4.2866618 29.6373303 0.498890371 22.1135973 5.35394482"></polygon>
                                <polygon id="Path-6-Copy" fill="#5A4A2C" transform="translate(11.366907, 17.560818) scale(-1, 1) translate(-11.366907, -17.560818) " points="0.407779652 34.2431202 3.0048664 34.6227451 3.90527631 6.16971455 9.76073197 2.43657896 22.3260349 4.2866618 9.63733031 0.498890371 2.11359731 5.35394482"></polygon>
                            </g>
                            <g id="Group-15-Copy-3" transform="translate(86.000000, 0.000000)">
                                <polygon id="Path-23" fill="#594A2B" points="19.577476 34.4368105 22.6054046 16.2960822 13.0411231 8.59204404 3.69158819 18.1241136 13.1364169 10.6992461 19.9841526 17.0356162 17.1937876 34.7052439"></polygon>
                                <polygon id="Path-23-Copy" fill="#594A2B" transform="translate(29.148496, 23.648644) scale(-1, 1) rotate(-19.000000) translate(-29.148496, -23.648644) " points="35.577476 36.4368105 38.6054046 18.2960822 29.0411231 10.592044 19.6915882 20.1241136 29.1364169 12.6992461 35.9841526 19.0356162 33.1937876 36.7052439"></polygon>
                                <polygon id="Path-6" fill="#5A4A2C" points="18.4077797 34.2431202 21.0048664 34.6227451 23.9052763 6.16971455 29.760732 2.43657896 42.3260349 4.2866618 29.6373303 0.498890371 22.1135973 5.35394482"></polygon>
                                <polygon id="Path-6-Copy" fill="#5A4A2C" transform="translate(11.366907, 17.560818) scale(-1, 1) translate(-11.366907, -17.560818) " points="0.407779652 34.2431202 3.0048664 34.6227451 3.90527631 6.16971455 9.76073197 2.43657896 22.3260349 4.2866618 9.63733031 0.498890371 2.11359731 5.35394482"></polygon>
                            </g>
                            <g id="Group-15-Copy-4" transform="translate(112.000000, 8.000000)">
                                <polygon id="Path-23" fill="#594A2B" points="19.577476 34.4368105 22.6054046 16.2960822 13.0411231 8.59204404 3.69158819 18.1241136 13.1364169 10.6992461 19.9841526 17.0356162 17.1937876 34.7052439"></polygon>
                                <polygon id="Path-23-Copy" fill="#594A2B" transform="translate(29.148496, 23.648644) scale(-1, 1) rotate(-19.000000) translate(-29.148496, -23.648644) " points="35.577476 36.4368105 38.6054046 18.2960822 29.0411231 10.592044 19.6915882 20.1241136 29.1364169 12.6992461 35.9841526 19.0356162 33.1937876 36.7052439"></polygon>
                                <polygon id="Path-6" fill="#5A4A2C" points="18.4077797 34.2431202 21.0048664 34.6227451 23.9052763 6.16971455 29.760732 2.43657896 42.3260349 4.2866618 29.6373303 0.498890371 22.1135973 5.35394482"></polygon>
                                <polygon id="Path-6-Copy" fill="#5A4A2C" transform="translate(11.366907, 17.560818) scale(-1, 1) translate(-11.366907, -17.560818) " points="0.407779652 34.2431202 3.0048664 34.6227451 3.90527631 6.16971455 9.76073197 2.43657896 22.3260349 4.2866618 9.63733031 0.498890371 2.11359731 5.35394482"></polygon>
                            </g>
                            <g id="Group-15-Copy-5" transform="translate(134.000000, 2.000000)">
                                <polygon id="Path-23" fill="#594A2B" points="19.577476 34.4368105 22.6054046 16.2960822 13.0411231 8.59204404 3.69158819 18.1241136 13.1364169 10.6992461 19.9841526 17.0356162 17.1937876 34.7052439"></polygon>
                                <polygon id="Path-23-Copy" fill="#594A2B" transform="translate(29.148496, 23.648644) scale(-1, 1) rotate(-19.000000) translate(-29.148496, -23.648644) " points="35.577476 36.4368105 38.6054046 18.2960822 29.0411231 10.592044 19.6915882 20.1241136 29.1364169 12.6992461 35.9841526 19.0356162 33.1937876 36.7052439"></polygon>
                                <polygon id="Path-6" fill="#5A4A2C" points="18.4077797 34.2431202 21.0048664 34.6227451 23.9052763 6.16971455 29.760732 2.43657896 42.3260349 4.2866618 29.6373303 0.498890371 22.1135973 5.35394482"></polygon>
                                <polygon id="Path-6-Copy" fill="#5A4A2C" transform="translate(11.366907, 17.560818) scale(-1, 1) translate(-11.366907, -17.560818) " points="0.407779652 34.2431202 3.0048664 34.6227451 3.90527631 6.16971455 9.76073197 2.43657896 22.3260349 4.2866618 9.63733031 0.498890371 2.11359731 5.35394482"></polygon>
                            </g>
                            <g id="Group-15-Copy-6" transform="translate(158.000000, 10.000000)">
                                <polygon id="Path-23" fill="#594A2B" points="19.577476 34.4368105 22.6054046 16.2960822 13.0411231 8.59204404 3.69158819 18.1241136 13.1364169 10.6992461 19.9841526 17.0356162 17.1937876 34.7052439"></polygon>
                                <polygon id="Path-23-Copy" fill="#594A2B" transform="translate(29.148496, 23.648644) scale(-1, 1) rotate(-19.000000) translate(-29.148496, -23.648644) " points="35.577476 36.4368105 38.6054046 18.2960822 29.0411231 10.592044 19.6915882 20.1241136 29.1364169 12.6992461 35.9841526 19.0356162 33.1937876 36.7052439"></polygon>
                                <polygon id="Path-6" fill="#5A4A2C" points="18.4077797 34.2431202 21.0048664 34.6227451 23.9052763 6.16971455 29.760732 2.43657896 42.3260349 4.2866618 29.6373303 0.498890371 22.1135973 5.35394482"></polygon>
                                <polygon id="Path-6-Copy" fill="#5A4A2C" transform="translate(11.366907, 17.560818) scale(-1, 1) translate(-11.366907, -17.560818) " points="0.407779652 34.2431202 3.0048664 34.6227451 3.90527631 6.16971455 9.76073197 2.43657896 22.3260349 4.2866618 9.63733031 0.498890371 2.11359731 5.35394482"></polygon>
                            </g>
                            <g id="Group-17" transform="translate(168.000000, 42.000000)" fill="#4D3D36">
                                <polygon id="Path-7" points="7.85271415 0.126898731 5.52211146 4.88434976 9.71597414 4.50166631 14.5577895 5.85932281 12.639766 0.589257477"></polygon>
                                <polygon id="Path-8" points="5.32581976 2.46625861 4.35374881 5.12167193 0.445204566 7.47059192 4.70076305 5.71612241 6.59619363 3.5779974"></polygon>
                                <polygon id="Path-8-Copy" points="9.32581976 4.46625861 8.35374881 7.12167193 4.44520457 9.47059192 8.70076305 7.71612241 10.5961936 5.5779974"></polygon>
                                <polygon id="Path-8-Copy-2" transform="translate(17.520699, 6.968425) scale(-1, 1) translate(-17.520699, -6.968425) " points="19.3258198 4.46625861 18.3537488 7.12167193 14.4452046 9.47059192 18.7007631 7.71612241 20.5961936 5.5779974"></polygon>
                            </g>
                            <g id="Group-17-Copy" transform="translate(144.000000, 34.000000)" fill="#4D3D36">
                                <polygon id="Path-7" points="7.85271415 0.126898731 5.52211146 4.88434976 9.71597414 4.50166631 14.5577895 5.85932281 12.639766 0.589257477"></polygon>
                                <polygon id="Path-8" points="5.32581976 2.46625861 4.35374881 5.12167193 0.445204566 7.47059192 4.70076305 5.71612241 6.59619363 3.5779974"></polygon>
                                <polygon id="Path-8-Copy" points="9.32581976 4.46625861 8.35374881 7.12167193 4.44520457 9.47059192 8.70076305 7.71612241 10.5961936 5.5779974"></polygon>
                                <polygon id="Path-8-Copy-2" transform="translate(17.520699, 6.968425) scale(-1, 1) translate(-17.520699, -6.968425) " points="19.3258198 4.46625861 18.3537488 7.12167193 14.4452046 9.47059192 18.7007631 7.71612241 20.5961936 5.5779974"></polygon>
                            </g>
                            <g id="Group-17-Copy-2" transform="translate(122.000000, 40.000000)" fill="#4D3D36">
                                <polygon id="Path-7" points="7.85271415 0.126898731 5.52211146 4.88434976 9.71597414 4.50166631 14.5577895 5.85932281 12.639766 0.589257477"></polygon>
                                <polygon id="Path-8" points="5.32581976 2.46625861 4.35374881 5.12167193 0.445204566 7.47059192 4.70076305 5.71612241 6.59619363 3.5779974"></polygon>
                                <polygon id="Path-8-Copy" points="9.32581976 4.46625861 8.35374881 7.12167193 4.44520457 9.47059192 8.70076305 7.71612241 10.5961936 5.5779974"></polygon>
                                <polygon id="Path-8-Copy-2" transform="translate(17.520699, 6.968425) scale(-1, 1) translate(-17.520699, -6.968425) " points="19.3258198 4.46625861 18.3537488 7.12167193 14.4452046 9.47059192 18.7007631 7.71612241 20.5961936 5.5779974"></polygon>
                            </g>
                            <g id="Group-17-Copy-3" transform="translate(96.000000, 32.000000)" fill="#4D3D36">
                                <polygon id="Path-7" points="7.85271415 0.126898731 5.52211146 4.88434976 9.71597414 4.50166631 14.5577895 5.85932281 12.639766 0.589257477"></polygon>
                                <polygon id="Path-8" points="5.32581976 2.46625861 4.35374881 5.12167193 0.445204566 7.47059192 4.70076305 5.71612241 6.59619363 3.5779974"></polygon>
                                <polygon id="Path-8-Copy" points="9.32581976 4.46625861 8.35374881 7.12167193 4.44520457 9.47059192 8.70076305 7.71612241 10.5961936 5.5779974"></polygon>
                                <polygon id="Path-8-Copy-2" transform="translate(17.520699, 6.968425) scale(-1, 1) translate(-17.520699, -6.968425) " points="19.3258198 4.46625861 18.3537488 7.12167193 14.4452046 9.47059192 18.7007631 7.71612241 20.5961936 5.5779974"></polygon>
                            </g>
                            <g id="Group-17-Copy-4" transform="translate(74.000000, 42.000000)" fill="#4D3D36">
                                <polygon id="Path-7" points="7.85271415 0.126898731 5.52211146 4.88434976 9.71597414 4.50166631 14.5577895 5.85932281 12.639766 0.589257477"></polygon>
                                <polygon id="Path-8" points="5.32581976 2.46625861 4.35374881 5.12167193 0.445204566 7.47059192 4.70076305 5.71612241 6.59619363 3.5779974"></polygon>
                                <polygon id="Path-8-Copy" points="9.32581976 4.46625861 8.35374881 7.12167193 4.44520457 9.47059192 8.70076305 7.71612241 10.5961936 5.5779974"></polygon>
                                <polygon id="Path-8-Copy-2" transform="translate(17.520699, 6.968425) scale(-1, 1) translate(-17.520699, -6.968425) " points="19.3258198 4.46625861 18.3537488 7.12167193 14.4452046 9.47059192 18.7007631 7.71612241 20.5961936 5.5779974"></polygon>
                            </g>
                            <g id="Group-17-Copy-5" transform="translate(38.000000, 30.000000)" fill="#4D3D36">
                                <polygon id="Path-7" points="7.85271415 0.126898731 5.52211146 4.88434976 9.71597414 4.50166631 14.5577895 5.85932281 12.639766 0.589257477"></polygon>
                                <polygon id="Path-8" points="5.32581976 2.46625861 4.35374881 5.12167193 0.445204566 7.47059192 4.70076305 5.71612241 6.59619363 3.5779974"></polygon>
                                <polygon id="Path-8-Copy" points="9.32581976 4.46625861 8.35374881 7.12167193 4.44520457 9.47059192 8.70076305 7.71612241 10.5961936 5.5779974"></polygon>
                                <polygon id="Path-8-Copy-2" transform="translate(17.520699, 6.968425) scale(-1, 1) translate(-17.520699, -6.968425) " points="19.3258198 4.46625861 18.3537488 7.12167193 14.4452046 9.47059192 18.7007631 7.71612241 20.5961936 5.5779974"></polygon>
                            </g>
                            <g id="Group-17-Copy-6" transform="translate(10.000000, 42.000000)" fill="#4D3D36">
                                <polygon id="Path-7" points="7.85271415 0.126898731 5.52211146 4.88434976 9.71597414 4.50166631 14.5577895 5.85932281 12.639766 0.589257477"></polygon>
                                <polygon id="Path-8" points="5.32581976 2.46625861 4.35374881 5.12167193 0.445204566 7.47059192 4.70076305 5.71612241 6.59619363 3.5779974"></polygon>
                                <polygon id="Path-8-Copy" points="9.32581976 4.46625861 8.35374881 7.12167193 4.44520457 9.47059192 8.70076305 7.71612241 10.5961936 5.5779974"></polygon>
                                <polygon id="Path-8-Copy-2" transform="translate(17.520699, 6.968425) scale(-1, 1) translate(-17.520699, -6.968425) " points="19.3258198 4.46625861 18.3537488 7.12167193 14.4452046 9.47059192 18.7007631 7.71612241 20.5961936 5.5779974"></polygon>
                            </g>
                            <g id="Group-18" transform="translate(36.000000, 41.000000)" stroke="#4D3D36">
                                <polyline id="Path-24" points="13.3596115 0.202598791 9.31315497 2.33082618 8.94596514 8.78796386 1.71023763 9.1490134 0.2955129 11.9993399"></polyline>
                                <polyline id="Path-25" points="22.6823292 7.18036184 18.5595662 9.5373031 12.6376033 8.0848071"></polyline>
                            </g>
                            <g id="Group-18-Copy" transform="translate(92.000000, 43.000000)" stroke="#4D3D36">
                                <polyline id="Path-25" points="22.6823292 7.18036184 18.5595662 9.5373031 12.6376033 8.0848071"></polyline>
                            </g>
                        </g>
                        <g id="Group-8" transform="translate(99.500000, 180.000000) rotate(90.000000) translate(-99.500000, -180.000000) translate(98.500000, 80.500000)" stroke="#4D3D36" stroke-width="4" stroke-linecap="round">
                            <path d="M1,1 L1,198.079987" id="Path-20"></path>
                        </g>
                        <g id="cloud" transform="translate(19.000000, 37.000000)" fill-rule="nonzero" stroke-width="2" stroke-linecap="round">
                            <path d="M49.003,16 C48.888,7.301 41.81,0 33.084,0 C27.525,0 22.305,3.005 19.423,7.336 C18.157,6.493 16.636,6 15,6 C10.582,6 7,9.582 7,14 C7,14.153 7.014,14.302 7.023,14.454 C7.013,14.636 7,14.82 7,15 C3.012,16.912 0,21.457 0,26.155 C0,32.67 5.33,38 11.845,38 L36.352,38 C36.49,38 36.624,37.984 36.76,37.979 C36.897,37.984 37.031,38 37.169,38 L46.972,38 C53.037,38 58,33.037 58,26.972 C58,21.601 54.106,16.961 49.003,16 Z" id="Shape" stroke="#F3F3F3" fill="#F3FEFF"></path>
                            <path d="M49.003,16 C49.003,16 46.468,15.625 44,16" id="Shape" stroke="#EEEEEE" fill="#7FABDA"></path>
                            <path d="M7,14 C7,9.582 10.582,6 15,6 C19.418,6 23,9.582 23,14" id="Shape" stroke="#EFEFEF"></path>
                        </g>
                        <g id="cloud-copy-2" transform="translate(74.000000, 0.000000)" fill-rule="nonzero" stroke-width="2" stroke-linecap="round">
                            <path d="M37.1746897,12.2105263 C37.0874483,5.57181579 31.717931,0 25.0982069,0 C20.8810345,0 16.9210345,2.29328947 14.7346897,5.59852632 C13.7742759,4.95518421 12.6204138,4.57894737 11.3793103,4.57894737 C8.02772414,4.57894737 5.31034483,7.31257895 5.31034483,10.6842105 C5.31034483,10.8009737 5.32096552,10.9146842 5.3277931,11.0306842 C5.3202069,11.1695789 5.31034483,11.31 5.31034483,11.4473684 C2.28496552,12.9065263 0,16.3750789 0,19.9603947 C0,24.9323684 4.04344828,29 8.98586207,29 L27.5773793,29 C27.682069,29 27.7837241,28.9877895 27.8868966,28.9839737 C27.9908276,28.9877895 28.0924828,29 28.1971724,29 L35.633931,29 C40.2349655,29 44,25.2124474 44,20.5838947 C44,16.4849737 41.045931,12.9439211 37.1746897,12.2105263 Z" id="Shape" stroke="#F3F3F3" fill="#F3FEFF"></path>
                            <path d="M37.1746897,12.2105263 C37.1746897,12.2105263 35.2515862,11.9243421 33.3793103,12.2105263" id="Shape" stroke="#EEEEEE" fill="#7FABDA"></path>
                            <path d="M5.31034483,10.6842105 C5.31034483,7.31257895 8.02772414,4.57894737 11.3793103,4.57894737 C14.7308966,4.57894737 17.4482759,7.31257895 17.4482759,10.6842105" id="Shape" stroke="#EFEFEF"></path>
                        </g>
                        <g id="cloud-copy" transform="translate(131.000000, 7.000000)" fill-rule="nonzero" stroke-width="2" stroke-linecap="round">
                            <path d="M49.003,16 C48.888,7.301 41.81,0 33.084,0 C27.525,0 22.305,3.005 19.423,7.336 C18.157,6.493 16.636,6 15,6 C10.582,6 7,9.582 7,14 C7,14.153 7.014,14.302 7.023,14.454 C7.013,14.636 7,14.82 7,15 C3.012,16.912 0,21.457 0,26.155 C0,32.67 5.33,38 11.845,38 L36.352,38 C36.49,38 36.624,37.984 36.76,37.979 C36.897,37.984 37.031,38 37.169,38 L46.972,38 C53.037,38 58,33.037 58,26.972 C58,21.601 54.106,16.961 49.003,16 Z" id="Shape" stroke="#F3F3F3" fill="#F3FEFF"></path>
                            <path d="M49.003,16 C49.003,16 46.468,15.625 44,16" id="Shape" stroke="#EEEEEE" fill="#7FABDA"></path>
                            <path d="M7,14 C7,9.582 10.582,6 15,6 C19.418,6 23,9.582 23,14" id="Shape" stroke="#EFEFEF"></path>
                        </g>
                    </g>
                    <g id="Group-5" transform="translate(1.000000, 12.000000)" fill-rule="nonzero">
                        <path d="M18.6378486,8.43988852 C13.1241632,8.43988852 8.63826864,12.9257831 8.63826864,18.4394685 C8.63826864,23.9531539 13.1241632,28.4390484 18.6378486,28.4390484 C24.151534,28.4390484 28.637241,23.9531539 28.637241,18.4394685 C28.637241,12.9257831 24.151534,8.43988852 18.6378486,8.43988852 Z" id="Shape" fill="#D4ED85"></path>
                        <path d="M31.450537,18.4394685 C31.450537,11.374344 25.7027854,5.62659236 18.6378486,5.62659236 C11.5727241,5.62659236 5.82497244,11.374344 5.82497244,18.4394685 C5.82497244,25.5045929 11.5727241,31.2523446 18.6378486,31.2523446 C25.7027854,31.2525322 31.450537,25.5045929 31.450537,18.4394685 Z M18.6378486,28.439236 C13.1241632,28.439236 8.63826864,23.9533414 8.63826864,18.439656 C8.63826864,12.9259706 13.1241632,8.43988852 18.6378486,8.43988852 C24.151534,8.43988852 28.637241,12.9257831 28.637241,18.4394685 C28.637241,23.9531539 24.151534,28.439236 18.6378486,28.439236 Z" id="Shape" fill="#4D3D36"></path>
                        <path d="M15.5927368,36.6261154 C15.6713215,36.6392441 15.7491561,36.6456209 15.8260528,36.6456209 C16.5012439,36.6456209 17.0969125,36.1581704 17.2118825,35.4704133 C17.3399813,34.7040714 16.8223348,33.9791788 16.0561804,33.8512676 C8.49760384,32.5894105 3.01167628,26.1079512 3.01167628,18.4394685 C3.01167628,9.82328003 10.0216602,2.81329618 18.6378486,2.81329618 C26.3063312,2.81329618 32.7877905,8.29941126 34.0496477,15.8579879 C34.1775591,16.6241422 34.9020764,17.1425389 35.6687932,17.01369 C36.4349476,16.8857788 36.9525942,16.1608861 36.8244956,15.3945443 C36.1147944,11.1430911 33.9078577,7.2476136 30.6101116,4.4260651 C27.2746679,1.57188235 23.022652,0 18.6378486,0 C8.47022107,0 0.198380079,8.27184099 0.198380079,18.4394685 C0.198380079,22.8244595 1.77026246,27.0762877 4.62425764,30.4119193 C7.44580614,33.7094775 11.341096,35.9164145 15.5927368,36.6261154 Z" id="Shape" fill="#4D3D36"></path>
                        <path d="M21.4492691,36.6456209 C21.5261662,36.6456209 21.6040003,36.6394317 21.6823977,36.6261154 C29.4439067,35.3306863 35.5288786,29.2455266 36.8243078,21.4843927 C36.9524069,20.7182384 36.4347602,19.9933457 35.6684181,19.8654345 C34.9017013,19.7360229 34.1773713,20.2549823 34.04946,21.0213242 C32.9517121,27.5974977 27.7956904,32.753707 21.2193293,33.8512676 C20.4529873,33.9791788 19.9353408,34.7040714 20.0634395,35.4702258 C20.1784095,36.1581705 20.7742657,36.6456209 21.4492691,36.6456209 Z" id="Shape" fill="#4D3D36"></path>
                    </g>
                </g>
            </g>
        </g>
    </g>
</svg>