<?xml version="1.0" encoding="UTF-8"?>
<svg width="200px" height="200px" viewBox="0 0 200 200" version="1.1" xmlns="http://www.w3.org/2000/svg" xmlns:xlink="http://www.w3.org/1999/xlink">
    <!-- Generator: Sketch 43.1 (39012) - http://www.bohemiancoding.com/sketch -->
    <title>petugas</title>
    <desc>Created with Sketch.</desc>
    <defs></defs>
    <g id="Page-1" stroke="none" stroke-width="1" fill="none" fill-rule="evenodd">
        <g id="Desktop-HD" transform="translate(-702.000000, -702.000000)">
            <g id="petani" transform="translate(703.000000, 702.000000)">
                <path d="M78.3184198,143.622715 C66.6802633,157.158042 59.4842183,175.740952 59.4842183,196.219605 L78.3978686,196.219605 C78.3473901,195.956489 78.3188588,195.683293 78.3188588,195.402536 L78.3188588,143.622715 L78.3184198,143.622715 Z" id="Shape" fill="#FFFFFF" fill-rule="nonzero"></path>
                <path d="M171.109388,195.402536 C171.109388,195.683293 171.080856,195.956489 171.030377,196.219605 L189.944028,196.219605 C189.944028,175.740952 182.747544,157.158042 171.109827,143.622211 L171.109827,195.402536 L171.109388,195.402536 Z" id="Shape" fill="#FFFFFF" fill-rule="nonzero"></path>
                <path d="M128.005982,121.409113 L128.005982,131.143883 C128.005982,133.232174 126.532448,134.924279 124.713904,134.924279 C122.89536,134.924279 121.421825,133.232174 121.421825,131.143883 L121.421825,121.409113 C115.21077,121.765479 109.227088,123.125917 103.588416,125.348286 L103.588416,156.438255 L145.838953,156.438255 L145.838953,125.347781 C140.200719,123.125917 134.217037,121.765479 128.005982,121.409113 Z" id="Shape" fill="#FFFFFF" fill-rule="nonzero"></path>
                <path d="M164.52523,136.926375 C160.790257,133.611725 156.735734,130.752235 152.423549,128.418974 L152.423549,160.21865 C152.423549,162.30694 150.950015,163.999045 149.13147,163.999045 L100.296337,163.999045 C98.4777926,163.999045 97.0042582,162.30694 97.0042582,160.21865 L97.0042582,128.419479 C92.6920741,130.752738 88.6371111,133.612229 84.9025771,136.92688 L84.9025771,195.402536 C84.9025771,195.683293 84.8740457,195.956489 84.8235673,196.219605 L164.60424,196.219605 C164.553762,195.956489 164.52523,195.683293 164.52523,195.402536 L164.52523,136.926375 L164.52523,136.926375 Z M109.076091,179.122138 L100.297215,179.122138 C98.4786705,179.122138 97.0051361,177.430033 97.0051361,175.341743 C97.0051361,173.253452 98.4786705,171.561348 100.297215,171.561348 L109.076091,171.561348 C110.894635,171.561348 112.36817,173.253452 112.36817,175.341743 C112.36817,177.430033 110.894635,179.122138 109.076091,179.122138 Z M149.129715,179.122138 L122.244406,179.122138 C120.425861,179.122138 118.952327,177.430033 118.952327,175.341743 C118.952327,173.253452 120.425861,171.561348 122.244406,171.561348 L149.129715,171.561348 C150.948259,171.561348 152.421794,173.253452 152.421794,175.341743 C152.421794,177.430033 150.948259,179.122138 149.129715,179.122138 Z" id="Shape" fill="#D35B38" fill-rule="nonzero"></path>
                <path d="M93.7451003,59.054268 C93.7451003,78.6634296 107.637673,94.6172012 124.714343,94.6172012 C141.791013,94.6172012 155.683146,78.6639337 155.683146,59.054268 C155.683146,57.6560258 155.603697,56.2597999 155.462796,54.8751671 L93.9654502,54.8751671 C93.8245492,56.2592958 93.7451003,57.6550177 93.7451003,59.054268 Z" id="Shape" fill="#FFE6B8" fill-rule="nonzero"></path>
                <path d="M170.205164,132.457444 C170.003249,132.212979 169.773242,132.000269 169.521289,131.824354 C163.84399,126.604385 157.465696,122.352196 150.575156,119.287556 C150.396945,119.187249 150.209955,119.104585 150.015064,119.042586 C142.932706,115.970889 135.32142,114.150755 127.384877,113.816064 C126.787035,112.863405 125.815213,112.240899 124.714781,112.240899 C123.614349,112.240899 122.642089,112.863405 122.044686,113.816064 C114.107704,114.151258 106.496419,115.970889 99.4144988,119.042586 C99.2191687,119.105088 99.0317397,119.187754 98.8530895,119.28806 C91.9629884,122.353204 85.5846958,126.604888 79.9078353,131.824354 C79.6554427,132.000269 79.4254362,132.212979 79.223083,132.457949 C63.1638845,147.594146 52.900939,170.555762 52.900939,196.219605 C52.900939,198.307895 54.3744734,200 56.1930176,200 C58.0115619,200 59.4850963,198.307895 59.4850963,196.219605 C59.4850963,175.740952 66.6815802,157.158042 78.3192977,143.622715 L78.3192977,195.402536 C78.3192977,195.683293 78.347829,195.956489 78.3983076,196.219605 C78.723565,197.91423 80.0373238,199.182931 81.6113764,199.182931 C83.1854289,199.182931 84.4987488,197.91423 84.8244451,196.219605 C84.8749236,195.956489 84.903455,195.683293 84.903455,195.402536 L84.903455,136.926375 C88.638428,133.612229 92.692952,130.752235 97.0051361,128.418974 L97.0051361,160.21865 C97.0051361,162.30694 98.4786705,163.999045 100.297215,163.999045 L149.13191,163.999045 C150.950454,163.999045 152.423988,162.30694 152.423988,160.21865 L152.423988,128.418974 C156.736172,130.752235 160.791135,133.611725 164.525669,136.926375 L164.525669,195.402536 C164.525669,195.683293 164.5542,195.956489 164.604679,196.219605 C164.929937,197.91423 166.243695,199.182931 167.817748,199.182931 C169.3918,199.182931 170.70512,197.91423 171.030817,196.219605 C171.081295,195.956489 171.109827,195.683293 171.109827,195.402536 L171.109827,143.622211 C182.747982,157.157538 189.944028,175.740449 189.944028,196.219605 C189.944028,198.307895 191.417563,200 193.236107,200 C195.054651,200 196.528185,198.307895 196.528185,196.219605 C196.527746,170.555762 186.264362,147.594146 170.205164,132.457444 Z M103.588416,156.438255 L103.588416,125.348286 C109.226649,123.125917 115.21077,121.765479 121.421825,121.409113 L121.421825,131.143883 C121.421825,133.232174 122.89536,134.924279 124.713904,134.924279 C126.532448,134.924279 128.005982,133.232174 128.005982,131.143883 L128.005982,121.409113 C134.216598,121.765479 140.200719,123.125917 145.838953,125.347781 L145.838953,156.438255 L103.588416,156.438255 Z" id="Shape" fill="#4D3D36" fill-rule="nonzero"></path>
                <path d="M58.2879653,99.6137183 L52.0703487,64.4946808 C52.0703487,62.4063906 50.5968143,60.7142857 48.7782701,60.7142857 L9.87314072,60.7142857 C8.05459647,60.7142857 6.58106206,62.4063906 6.58106206,64.4946808 L0.363445483,99.6137183 C0.363445483,110.392381 7.99931217,119.160881 17.3856868,119.160881 L26.0336267,119.160881 L26.0336267,196.219605 C26.0336267,198.307895 27.5071611,200 29.3257054,200 C31.1442496,200 32.617784,198.307895 32.617784,196.219605 L32.617784,119.160881 L41.2657239,119.160881 C50.6516596,119.160881 58.2879653,110.392381 58.2879653,99.6137183 Z" id="Shape" fill="#FFD9C7" fill-rule="nonzero"></path>
                <path d="M155.682707,59.054268 C155.682707,78.6634296 141.790574,94.6172012 124.713904,94.6172012 C107.637233,94.6172012 93.7446615,78.6639337 93.7446615,59.054268 C93.7446615,57.6550177 93.8241103,56.2592958 93.9650112,54.8751671 L155.462358,54.8751671 C155.603258,56.2597999 155.682707,57.6560258 155.682707,59.054268 Z" id="Shape" stroke="#4D3D36" stroke-width="6" fill="#FFE6B8" fill-rule="nonzero"></path>
                <path d="M195.933154,57.1428571 L52.9287923,57.1428571 C51.3742743,57.1428571 50.1308785,56.0714338 49.8201206,54.6430089 C49.5093628,53.2145839 50.1308785,51.4287388 51.3746386,50.7143171 L64.1208118,42.499932 C75.6232249,34.9999686 87.1260023,25.0001569 100.804449,10.3572318 C106.711035,3.57169015 115.415898,0 124.431155,0 C133.446412,0 142.151276,3.57127162 148.057861,9.99981166 C161.736673,24.6427368 173.239086,34.6425485 184.741499,42.1425119 L197.487672,50.356897 C198.731068,51.0713187 199.352948,52.8567453 199.04219,54.2855887 C198.731068,56.0714338 197.487672,57.1428571 195.933154,57.1428571 Z M64.7419633,49.9998954 L184.119619,49.9998954 L181.632463,48.2140503 L181.632463,48.2140503 C169.50817,40.3570853 158.005757,29.9998535 143.705065,14.9999268 C139.041876,9.99981166 131.89153,7.14296177 124.430427,7.14296177 C116.969323,7.14296177 109.818978,10.0002302 105.155788,14.9999268 C90.8554611,29.9998535 79.3526837,40.3570853 67.2283906,48.2140503 L64.7419633,49.9998954 Z" id="Shape" fill="#4D3D36" fill-rule="nonzero"></path>
                <path d="M176.352822,44.1670742 C164.302415,36.3015727 153.621468,26.2334507 143.488369,15.2214538 C138.832464,10.5020792 132.259574,7.35595238 124.591308,7.35595238 C116.923043,7.35595238 110.350152,10.5020792 105.694248,15.2214538 C95.5611484,25.91858 84.8802011,36.301204 72.8297947,44.1670742 L61.6013205,51.4035714 L83.5110629,51.4035714 L165.672196,51.4035714 L187.581938,51.4035714 L176.352822,44.1670742 Z" id="Shape" fill="#FCDB5A" fill-rule="nonzero"></path>
                <path d="M149.129715,171.561348 L122.244406,171.561348 C120.425861,171.561348 118.952327,173.253452 118.952327,175.341743 C118.952327,177.430033 120.425861,179.122138 122.244406,179.122138 L149.129715,179.122138 C150.948259,179.122138 152.421794,177.430033 152.421794,175.341743 C152.421794,173.253452 150.948259,171.561348 149.129715,171.561348 Z" id="Shape" fill="#4D3D36" fill-rule="nonzero"></path>
                <path d="M109.076091,171.561348 L100.297215,171.561348 C98.4786705,171.561348 97.0051361,173.253452 97.0051361,175.341743 C97.0051361,177.430033 98.4786705,179.122138 100.297215,179.122138 L109.076091,179.122138 C110.894635,179.122138 112.36817,177.430033 112.36817,175.341743 C112.36817,173.253452 110.894635,171.561348 109.076091,171.561348 Z" id="Shape" fill="#4D3D36" fill-rule="nonzero"></path>
                <rect id="Rectangle-3" fill="#C0B092" x="25.9067358" y="119.047619" width="7.25388601" height="80.952381" rx="3.62694301"></rect>
                <rect id="Rectangle-3-Copy" fill="#C0B092" x="23.8341969" y="104.761905" width="12.4352332" height="11.9047619" rx="5.95238095"></rect>
            </g>
        </g>
    </g>
</svg>