<?xml version="1.0" encoding="UTF-8"?>
<svg width="200px" height="200px" viewBox="0 0 200 200" version="1.1" xmlns="http://www.w3.org/2000/svg" xmlns:xlink="http://www.w3.org/1999/xlink">
    <!-- Generator: Sketch 42 (36781) - http://www.bohemiancoding.com/sketch -->
    <title>003-plant</title>
    <desc>Created with Sketch.</desc>
    <defs></defs>
    <g id="Page-1" stroke="none" stroke-width="1" fill="none" fill-rule="evenodd">
        <g id="002-farmer" transform="translate(3.000000, 1.000000)" fill-rule="nonzero">
            <g id="Capa_1">
                <g id="Group">
                    <path d="M47.821,70.7440766 C52.2652096,70.7440766 56.0435502,67.8509553 57.3774061,63.8510553 L7.22078166,63.8510553 C8.55463755,67.8509553 12.3334017,70.7440766 16.7771878,70.7440766 L47.821,70.7440766 Z" id="Shape" fill="#D35B38"></path>
                    <path d="M79.5772751,151.643081 C68.3464541,163.012755 61.4022707,178.6224 61.4022707,195.824468 L79.6539432,195.824468 C79.6052314,195.603451 79.5776987,195.373966 79.5776987,195.13813 L79.5776987,151.643081 L79.5772751,151.643081 Z" id="Shape" fill="#FFFFFF"></path>
                    <path d="M169.120559,195.13813 C169.120559,195.373966 169.093026,195.603451 169.044314,195.824468 L187.295987,195.824468 C187.295987,178.6224 180.35138,163.012755 169.120983,151.642657 L169.120983,195.13813 L169.120559,195.13813 Z" id="Shape" fill="#FFFFFF"></path>
                    <path d="M127.525773,132.983655 L127.525773,141.160862 C127.525773,142.915026 126.103812,144.336394 124.348917,144.336394 C122.594022,144.336394 121.172061,142.915026 121.172061,141.160862 L121.172061,132.983655 C115.178393,133.283002 109.40414,134.42577 103.962821,136.29256 L103.962821,162.408134 L144.73459,162.408134 L144.73459,136.292136 C139.293694,134.42577 133.519441,133.283002 127.525773,132.983655 Z" id="Shape" fill="#FFFFFF"></path>
                    <path d="M162.766847,146.018155 C159.162598,143.233849 155.249983,140.831877 151.088725,138.871938 L151.088725,165.583666 C151.088725,167.33783 149.666764,168.759198 147.911869,168.759198 L100.785965,168.759198 C99.0310699,168.759198 97.6091092,167.33783 97.6091092,165.583666 L97.6091092,138.872362 C93.4478515,140.8323 89.5348122,143.234272 85.9309869,146.018579 L85.9309869,195.13813 C85.9309869,195.373966 85.9034541,195.603451 85.8547424,195.824468 L162.843092,195.824468 C162.79438,195.603451 162.766847,195.373966 162.766847,195.13813 L162.766847,146.018155 L162.766847,146.018155 Z M109.258428,181.462596 L100.786812,181.462596 C99.031917,181.462596 97.6099563,180.041228 97.6099563,178.287064 C97.6099563,176.5329 99.031917,175.111532 100.786812,175.111532 L109.258428,175.111532 C111.013323,175.111532 112.435284,176.5329 112.435284,178.287064 C112.435284,180.041228 111.013323,181.462596 109.258428,181.462596 Z M147.910175,181.462596 L121.965852,181.462596 C120.210956,181.462596 118.788996,180.041228 118.788996,178.287064 C118.788996,176.5329 120.210956,175.111532 121.965852,175.111532 L147.910175,175.111532 C149.66507,175.111532 151.087031,176.5329 151.087031,178.287064 C151.087031,180.041228 149.66507,181.462596 147.910175,181.462596 Z" id="Shape" fill="#D35B38"></path>
                    <path d="M94.4640218,80.6055851 C94.4640218,97.0772809 107.870354,110.478449 124.349341,110.478449 C140.828328,110.478449 154.234236,97.0777043 154.234236,80.6055851 C154.234236,79.4310617 154.157568,78.2582319 154.021598,77.0951404 L94.6766594,77.0951404 C94.54069,78.2578085 94.4640218,79.4302149 94.4640218,80.6055851 Z" id="Shape" fill="#FFE6B8"></path>
                    <path d="M152.701721,70.7440766 L145.685105,41.5990447 C145.369114,40.2864915 144.572782,39.2063872 143.442245,38.5560383 C142.312555,37.9065362 140.977428,37.7617319 139.683389,38.1487234 L125.595515,42.364983 C125.000808,42.5428128 124.367978,42.5428128 123.772847,42.364983 L109.685397,38.1487234 C108.382039,37.7587681 107.027004,37.9048426 105.868511,38.5590021 C104.709594,39.2135851 103.884882,40.2983468 103.546865,41.615134 L96.0609214,70.7440766 L152.701721,70.7440766 Z" id="Shape" fill="#FCDB5A"></path>
                    <path d="M168.247983,142.264253 C168.053135,142.058902 167.831179,141.880226 167.588044,141.732457 C162.10945,137.347683 155.954397,133.775845 149.305026,131.201547 C149.133052,131.117289 148.952607,131.047851 148.764537,130.995772 C141.930061,128.415547 134.58517,126.886634 126.926406,126.605494 C126.349489,125.80526 125.411681,125.282355 124.349764,125.282355 C123.287847,125.282355 122.349616,125.80526 121.773122,126.605494 C114.113934,126.887057 106.769044,128.415547 99.9349913,130.995772 C99.7464978,131.048274 99.5656288,131.117713 99.3932314,131.20197 C92.7442838,133.776691 86.5892314,137.348106 81.1110611,141.732457 C80.8675022,141.880226 80.6455459,142.058902 80.4502751,142.264677 C64.9531485,154.979083 55.0494061,174.26684 55.0494061,195.824468 C55.0494061,197.578632 56.4713668,199 58.226262,199 C59.9811572,199 61.4031179,197.578632 61.4031179,195.824468 C61.4031179,178.6224 68.3477249,163.012755 79.5781223,151.643081 L79.5781223,195.13813 C79.5781223,195.373966 79.605655,195.603451 79.6543668,195.824468 C79.9682402,197.247953 81.2360175,198.313662 82.7549782,198.313662 C84.2739389,198.313662 85.5412926,197.247953 85.8555895,195.824468 C85.9043013,195.603451 85.9318341,195.373966 85.9318341,195.13813 L85.9318341,146.018155 C89.536083,143.234272 93.4486987,140.831877 97.6099563,138.871938 L97.6099563,165.583666 C97.6099563,167.33783 99.031917,168.759198 100.786812,168.759198 L147.912293,168.759198 C149.667188,168.759198 151.089148,167.33783 151.089148,165.583666 L151.089148,138.871938 C155.250406,140.831877 159.163445,143.233849 162.767271,146.018155 L162.767271,195.13813 C162.767271,195.373966 162.794803,195.603451 162.843515,195.824468 C163.157389,197.247953 164.425166,198.313662 165.944127,198.313662 C167.463087,198.313662 168.730441,197.247953 169.044738,195.824468 C169.09345,195.603451 169.120983,195.373966 169.120983,195.13813 L169.120983,151.642657 C180.351803,163.012332 187.295987,178.621977 187.295987,195.824468 C187.295987,197.578632 188.717948,199 190.472843,199 C192.227738,199 193.649699,197.578632 193.649699,195.824468 C193.649275,174.26684 183.745109,154.979083 168.247983,142.264253 Z M103.962821,162.408134 L103.962821,136.29256 C109.403716,134.42577 115.178393,133.283002 121.172061,132.983655 L121.172061,141.160862 C121.172061,142.915026 122.594022,144.336394 124.348917,144.336394 C126.103812,144.336394 127.525773,142.915026 127.525773,141.160862 L127.525773,132.983655 C133.519017,133.283002 139.293694,134.42577 144.73459,136.292136 L144.73459,162.408134 L103.962821,162.408134 Z" id="Shape" fill="#4D3D36"></path>
                    <path d="M64.2478865,60.6755234 L64.2478865,3.17553191 C64.2478865,1.42136809 62.8259258,0 61.0710306,0 C59.3161354,0 57.8941747,1.42136809 57.8941747,3.17553191 L57.8941747,57.4999915 L45.0668777,57.4999915 L45.0668777,3.17553191 C45.0668777,1.42136809 43.644917,0 41.8900218,0 C40.1351266,0 38.7131659,1.42136809 38.7131659,3.17553191 L38.7131659,57.4999915 L25.8854454,57.4999915 L25.8854454,3.17553191 C25.8854454,1.42136809 24.4634847,0 22.7085895,0 C20.9536943,0 19.5317336,1.42136809 19.5317336,3.17553191 L19.5317336,57.4999915 L6.70443668,57.4999915 L6.70443668,3.17553191 C6.70443668,1.42136809 5.28247598,0 3.52758079,0 C1.77268559,0 0.350724891,1.42136809 0.350724891,3.17553191 L0.350724891,60.6755234 C0.350724891,69.7296 7.71933624,77.0951404 16.7771878,77.0951404 L29.1224498,77.0951404 L29.1224498,195.824468 C29.1224498,197.578632 30.5444105,199 32.2993057,199 C34.0542009,199 35.4761616,197.578632 35.4761616,195.824468 L35.4761616,77.0951404 L47.8214236,77.0951404 C56.8788515,77.0951404 64.2478865,69.7296 64.2478865,60.6755234 Z M7.22078166,63.8510553 L57.3778297,63.8510553 C56.0439738,67.8509553 52.2652096,70.7440766 47.8214236,70.7440766 L16.7771878,70.7440766 C12.3334017,70.7440766 8.55463755,67.8509553 7.22078166,63.8510553 Z" id="Shape" fill="#4D3D36"></path>
                    <path d="M74.0813144,77.0951404 L88.2827074,77.0951404 C88.1704585,78.2603489 88.11031,79.4327553 88.11031,80.6055851 C88.11031,100.579681 104.366917,116.829513 124.349341,116.829513 C144.331341,116.829513 160.587948,100.579681 160.587948,80.6055851 C160.587948,79.4327553 160.527376,78.2603489 160.415127,77.0951404 L174.498341,77.0951404 C176.253236,77.0951404 177.675197,75.6737723 177.675197,73.9196085 C177.675197,72.1654447 176.253236,70.7440766 174.498341,70.7440766 L159.237572,70.7440766 L151.863454,40.1128957 C151.134895,37.0872489 149.269445,34.5790021 146.611052,33.0505128 C143.951812,31.5224468 140.846118,31.1718681 137.861991,32.0648277 L124.685664,36.0079915 L111.50976,32.0648277 C108.535799,31.1739851 105.422904,31.5169426 102.74545,33.0293426 C100.067572,34.5413191 98.1673886,37.0288191 97.3952009,40.034566 L89.5030437,70.7436532 L74.0825852,70.7436532 C72.32769,70.7436532 70.9057293,72.1650213 70.9057293,73.9191851 C70.9057293,75.6733489 72.3264192,77.0951404 74.0813144,77.0951404 Z M105.868934,38.5590021 C107.027004,37.9048426 108.382463,37.7587681 109.685821,38.1487234 L123.773271,42.364983 C124.367978,42.5428128 125.000808,42.5428128 125.595939,42.364983 L139.683812,38.1487234 C140.977852,37.7617319 142.312978,37.9065362 143.442668,38.5560383 C144.573205,39.2059638 145.369537,40.2864915 145.685528,41.5990447 L152.702144,70.7440766 L96.061345,70.7440766 L103.547288,41.615134 C103.885729,40.2987702 104.710017,39.2135851 105.868934,38.5590021 Z M154.233812,80.6055851 C154.233812,97.0772809 140.827904,110.478449 124.348917,110.478449 C107.86993,110.478449 94.4635983,97.0777043 94.4635983,80.6055851 C94.4635983,79.4302149 94.5402664,78.2578085 94.6762358,77.0951404 L154.021175,77.0951404 C154.157144,78.2582319 154.233812,79.4310617 154.233812,80.6055851 Z" id="Shape" fill="#4D3D36"></path>
                    <path d="M147.910175,175.111532 L121.965852,175.111532 C120.210956,175.111532 118.788996,176.5329 118.788996,178.287064 C118.788996,180.041228 120.210956,181.462596 121.965852,181.462596 L147.910175,181.462596 C149.66507,181.462596 151.087031,180.041228 151.087031,178.287064 C151.087031,176.5329 149.66507,175.111532 147.910175,175.111532 Z" id="Shape" fill="#4D3D36"></path>
                    <path d="M109.258428,175.111532 L100.786812,175.111532 C99.031917,175.111532 97.6099563,176.5329 97.6099563,178.287064 C97.6099563,180.041228 99.031917,181.462596 100.786812,181.462596 L109.258428,181.462596 C111.013323,181.462596 112.435284,180.041228 112.435284,178.287064 C112.435284,176.5329 111.013323,175.111532 109.258428,175.111532 Z" id="Shape" fill="#4D3D36"></path>
                </g>
            </g>
        </g>
    </g>
</svg>