<?xml version="1.0" encoding="UTF-8"?>
<svg width="200px" height="200px" viewBox="0 0 200 200" version="1.1" xmlns="http://www.w3.org/2000/svg" xmlns:xlink="http://www.w3.org/1999/xlink">
    <!-- Generator: Sketch 42 (36781) - http://www.bohemiancoding.com/sketch -->
    <title>003-plant</title>
    <desc>Created with Sketch.</desc>
    <defs></defs>
    <g id="Page-1" stroke="none" stroke-width="1" fill="none" fill-rule="evenodd">
        <g id="002-farmer" transform="translate(25.000000, 7.000000)" fill-rule="nonzero">
            <g id="Capa_1">
                <g id="Group">
                    <path d="M27.4330346,133.606764 C15.0102319,146.185581 7.32902856,163.455282 7.32902856,182.486756 L27.5178399,182.486756 C27.463958,182.242235 27.4335031,181.988344 27.4335031,181.727427 L27.4335031,133.606764 L27.4330346,133.606764 Z" id="Shape" fill="#FFFFFF"></path>
                    <path d="M126.479983,181.727427 C126.479983,181.988344 126.449528,182.242235 126.395646,182.486756 L146.584457,182.486756 C146.584457,163.455282 138.902785,146.185581 126.480451,133.606296 L126.480451,181.727427 L126.479983,181.727427 Z" id="Shape" fill="#FFFFFF"></path>
                    <path d="M80.4705398,112.962945 L80.4705398,122.009781 C80.4705398,123.950497 78.8976595,125.523025 76.9565087,125.523025 C75.0153579,125.523025 73.4424776,123.950497 73.4424776,122.009781 L73.4424776,112.962945 C66.8126723,113.294126 60.4255695,114.558426 54.4067371,116.623745 L54.4067371,145.51666 L99.5058118,145.51666 L99.5058118,116.623276 C93.4874479,114.558426 87.100345,113.294126 80.4705398,112.962945 Z" id="Shape" fill="#FFFFFF"></path>
                    <path d="M119.451921,127.383639 C115.465135,124.303227 111.137255,121.645809 106.534342,119.477435 L106.534342,149.029903 C106.534342,150.970619 104.961462,152.543147 103.020311,152.543147 L50.892706,152.543147 C48.9515552,152.543147 47.3786749,150.970619 47.3786749,149.029903 L47.3786749,119.477904 C42.7757628,121.646278 38.4474136,124.303695 34.4610967,127.384107 L34.4610967,181.727427 C34.4610967,181.988344 34.4306418,182.242235 34.37676,182.486756 L119.536257,182.486756 C119.482376,182.242235 119.451921,181.988344 119.451921,181.727427 L119.451921,127.383639 L119.451921,127.383639 Z M60.2643926,166.597527 L50.8936431,166.597527 C48.9524923,166.597527 47.379612,165.024999 47.379612,163.084283 C47.379612,161.143567 48.9524923,159.57104 50.8936431,159.57104 L60.2643926,159.57104 C62.2055433,159.57104 63.7784237,161.143567 63.7784237,163.084283 C63.7784237,165.024999 62.2055433,166.597527 60.2643926,166.597527 Z M103.018437,166.597527 L74.3205169,166.597527 C72.3793661,166.597527 70.8064858,165.024999 70.8064858,163.084283 C70.8064858,161.143567 72.3793661,159.57104 74.3205169,159.57104 L103.018437,159.57104 C104.959588,159.57104 106.532468,161.143567 106.532468,163.084283 C106.532468,165.024999 104.959588,166.597527 103.018437,166.597527 Z" id="Shape" fill="#D35B38"></path>
                    <path d="M43.8997842,55.014568 C43.8997842,73.2379967 58.7289953,88.0643531 76.9569772,88.0643531 C95.1849592,88.0643531 110.013702,73.2384651 110.013702,55.014568 C110.013702,53.7151363 109.928896,52.4175783 109.778496,51.1307943 L44.13499,51.1307943 C43.9845894,52.4171099 43.8997842,53.7141994 43.8997842,55.014568 Z" id="Shape" fill="#FFE6B8"></path>
                    <path d="M108.318533,44.1043071 L100.55721,11.8597574 C100.207681,10.4076167 99.3268305,9.21264542 98.076304,8.49313313 C96.8267145,7.77455771 95.3498844,7.6143538 93.9185024,8.04250109 L78.3354145,12.7071517 C77.6775879,12.9038934 76.9775929,12.9038934 76.3192977,12.7071517 L60.7366784,8.04250109 C59.2949885,7.61107477 57.7961372,7.77268398 56.5146872,8.49641216 C55.2327686,9.22060877 54.3205262,10.4207328 53.9466333,11.8775578 L45.6661704,44.1043071 L108.318533,44.1043071 Z" id="Shape" fill="#FCDB5A"></path>
                    <path d="M125.514796,123.230516 C125.299268,123.003326 125.053755,122.805648 124.784814,122.642165 C118.724751,117.791078 111.916432,113.839382 104.561331,110.991312 C104.371105,110.898094 104.171508,110.821271 103.963477,110.763654 C96.4036252,107.909027 88.2791853,106.217517 79.8075592,105.906478 C79.1694112,105.02114 78.1320692,104.442626 76.9574458,104.442626 C75.7828223,104.442626 74.7450118,105.02114 74.1073323,105.906478 C65.6352377,106.217985 57.5107978,107.909027 49.9514142,110.763654 C49.742915,110.82174 49.5428495,110.898563 49.3521548,110.991781 C41.997522,113.840319 35.189204,117.791547 29.1296088,122.642165 C28.8601997,122.805648 28.6146861,123.003326 28.3986903,123.230985 C11.2567782,137.297544 0.301903501,158.636517 0.301903501,182.486756 C0.301903501,184.427472 1.87478381,186 3.81593457,186 C5.75708533,186 7.32996564,184.427472 7.32996564,182.486756 C7.32996564,163.455282 15.0116376,146.185581 27.4339717,133.606764 L27.4339717,181.727427 C27.4339717,181.988344 27.4644266,182.242235 27.5183084,182.486756 C27.8654947,184.061626 29.2678273,185.240671 30.9480027,185.240671 C32.6281781,185.240671 34.0300422,184.061626 34.377697,182.486756 C34.4315789,182.242235 34.4620338,181.988344 34.4620338,181.727427 L34.4620338,127.383639 C38.4488192,124.303695 42.7766998,121.645809 47.379612,119.477435 L47.379612,149.029903 C47.379612,150.970619 48.9524923,152.543147 50.8936431,152.543147 L103.02078,152.543147 C104.961931,152.543147 106.534811,150.970619 106.534811,149.029903 L106.534811,119.477435 C111.137723,121.645809 115.466072,124.303227 119.452389,127.383639 L119.452389,181.727427 C119.452389,181.988344 119.482844,182.242235 119.536726,182.486756 C119.883912,184.061626 121.286245,185.240671 122.96642,185.240671 C124.646596,185.240671 126.04846,184.061626 126.396115,182.486756 C126.449996,182.242235 126.480451,181.988344 126.480451,181.727427 L126.480451,133.606296 C138.903254,146.185113 146.584457,163.454813 146.584457,182.486756 C146.584457,184.427472 148.157338,186 150.098488,186 C152.039639,186 153.61252,184.427472 153.61252,182.486756 C153.612051,158.636517 142.656708,137.297544 125.514796,123.230516 Z M54.4067371,145.51666 L54.4067371,116.623745 C60.4251009,114.558426 66.8126723,113.294126 73.4424776,112.962945 L73.4424776,122.009781 C73.4424776,123.950497 75.0153579,125.523025 76.9565087,125.523025 C78.8976595,125.523025 80.4705398,123.950497 80.4705398,122.009781 L80.4705398,112.962945 C87.0998765,113.294126 93.4874479,114.558426 99.5058118,116.623276 L99.5058118,145.51666 L54.4067371,145.51666 Z" id="Shape" fill="#4D3D36"></path>
                    <path d="M21.3537608,51.1307943 L37.0624168,51.1307943 C36.9382543,52.4199205 36.871722,53.71701 36.871722,55.014568 C36.871722,77.1128702 54.8537218,95.0908403 76.9569772,95.0908403 C99.0597641,95.0908403 117.041764,77.1128702 117.041764,55.014568 C117.041764,53.71701 116.974763,52.4199205 116.850601,51.1307943 L132.428535,51.1307943 C134.369685,51.1307943 135.942566,49.5582664 135.942566,47.6175507 C135.942566,45.6768349 134.369685,44.1043071 132.428535,44.1043071 L115.548066,44.1043071 L107.391298,10.2155594 C106.585413,6.86814086 104.521974,4.09314685 101.581433,2.4021056 C98.6399545,0.711532783 95.2046378,0.32367069 91.9037913,1.31159479 L77.328996,5.67410647 L62.7546693,1.31159479 C59.4650676,0.326012853 56.0217857,0.705443161 53.0601604,2.37868398 C50.0980664,4.05145636 47.9962073,6.80349718 47.1420635,10.1288993 L38.4122732,44.1038386 L21.3551664,44.1038386 C19.4140157,44.1038386 17.8411354,45.6763665 17.8411354,47.6170822 C17.8411354,49.557798 19.4126101,51.1307943 21.3537608,51.1307943 Z M56.5151557,8.49641216 C57.7961372,7.77268398 59.2954571,7.61107477 60.7371469,8.04250109 L76.3197663,12.7071517 C76.9775929,12.9038934 77.6775879,12.9038934 78.335883,12.7071517 L93.9189709,8.04250109 C95.3503529,7.6143538 96.827183,7.77455771 98.0767725,8.49313313 C99.327299,9.21217699 100.208149,10.4076167 100.557678,11.8597574 L108.319002,44.1043071 L45.666639,44.1043071 L53.9471018,11.8775578 C54.3214632,10.4212012 55.2332372,9.22060877 56.5151557,8.49641216 Z M110.013233,55.014568 C110.013233,73.2379967 95.1844907,88.0643531 76.9565087,88.0643531 C58.7285267,88.0643531 43.8993156,73.2384651 43.8993156,55.014568 C43.8993156,53.7141994 43.9841209,52.4171099 44.1345214,51.1307943 L109.778027,51.1307943 C109.928428,52.4175783 110.013233,53.7151363 110.013233,55.014568 Z" id="Shape" fill="#4D3D36"></path>
                    <path d="M103.018437,159.57104 L74.3205169,159.57104 C72.3793661,159.57104 70.8064858,161.143567 70.8064858,163.084283 C70.8064858,165.024999 72.3793661,166.597527 74.3205169,166.597527 L103.018437,166.597527 C104.959588,166.597527 106.532468,165.024999 106.532468,163.084283 C106.532468,161.143567 104.959588,159.57104 103.018437,159.57104 Z" id="Shape" fill="#4D3D36"></path>
                    <path d="M60.2643926,159.57104 L50.8936431,159.57104 C48.9524923,159.57104 47.379612,161.143567 47.379612,163.084283 C47.379612,165.024999 48.9524923,166.597527 50.8936431,166.597527 L60.2643926,166.597527 C62.2055433,166.597527 63.7784237,165.024999 63.7784237,163.084283 C63.7784237,161.143567 62.2055433,159.57104 60.2643926,159.57104 Z" id="Shape" fill="#4D3D36"></path>
                </g>
            </g>
        </g>
    </g>
</svg>