<?xml version="1.0" encoding="UTF-8"?>
<svg width="200px" height="200px" viewBox="0 0 200 200" version="1.1" xmlns="http://www.w3.org/2000/svg" xmlns:xlink="http://www.w3.org/1999/xlink">
    <!-- Generator: Sketch 43.1 (39012) - http://www.bohemiancoding.com/sketch -->
    <title>petugas</title>
    <desc>Created with Sketch.</desc>
    <defs></defs>
    <g id="Page-1" stroke="none" stroke-width="1" fill="none" fill-rule="evenodd">
        <g id="Desktop-HD" transform="translate(-924.000000, -737.000000)" fill-rule="nonzero">
            <g id="petugas" transform="translate(942.000000, 738.000000)">
                <path d="M29.3925371,142.944871 C16.0823913,156.402853 7.8525306,174.879576 7.8525306,195.241207 L29.4833999,195.241207 C29.4256693,194.979596 29.393039,194.707959 29.393039,194.428806 L29.393039,142.944871 L29.3925371,142.944871 Z" id="Shape" fill="#FFFFFF"></path>
                <path d="M135.514267,194.428806 C135.514267,194.707959 135.481637,194.979596 135.423906,195.241207 L157.054775,195.241207 C157.054775,174.879576 148.824412,156.402853 135.514769,142.94437 L135.514769,194.428806 L135.514267,194.428806 Z" id="Shape" fill="#FFFFFF"></path>
                <path d="M86.2184355,120.858205 L86.2184355,130.537346 C86.2184355,132.613704 84.5332066,134.29614 82.4534022,134.29614 C80.3735977,134.29614 78.6883689,132.613704 78.6883689,130.537346 L78.6883689,120.858205 C71.585006,121.212533 64.7416816,122.565198 58.2929326,124.774867 L58.2929326,155.687179 L106.61337,155.687179 L106.61337,124.774365 C100.165123,122.565198 93.3217982,121.212533 86.2184355,120.858205 Z" id="Shape" fill="#FFFFFF"></path>
                <path d="M127.984201,136.286797 C123.712645,132.991087 119.07563,130.147935 114.143938,127.828008 L114.143938,159.445971 C114.143938,161.522329 112.458709,163.204765 110.378905,163.204765 L54.5278993,163.204765 C52.4480949,163.204765 50.762866,161.522329 50.762866,159.445971 L50.762866,127.82851 C45.8311744,130.148437 41.1936574,132.991588 36.9226036,136.287297 L36.9226036,194.428806 C36.9226036,194.707959 36.8899734,194.979596 36.8322429,195.241207 L128.074561,195.241207 C128.016831,194.979596 127.984201,194.707959 127.984201,194.428806 L127.984201,136.286797 L127.984201,136.286797 Z M64.5689921,178.24144 L54.5289033,178.24144 C52.4490989,178.24144 50.76387,176.559004 50.76387,174.482647 C50.76387,172.406289 52.4490989,170.723855 54.5289033,170.723855 L64.5689921,170.723855 C66.6487964,170.723855 68.3340254,172.406289 68.3340254,174.482647 C68.3340254,176.559004 66.6487964,178.24144 64.5689921,178.24144 Z M110.376897,178.24144 L79.6291253,178.24144 C77.5493208,178.24144 75.8640919,176.559004 75.8640919,174.482647 C75.8640919,172.406289 77.5493208,170.723855 79.6291253,170.723855 L110.376897,170.723855 C112.456701,170.723855 114.14193,172.406289 114.14193,174.482647 C114.14193,176.559004 112.456701,178.24144 110.376897,178.24144 Z" id="Shape" fill="#5DDE6F"></path>
                <path d="M47.0354831,58.8596722 C47.0354831,78.3567814 62.9239235,94.2193885 82.4539041,94.2193885 C101.983885,94.2193885 117.871824,78.3572826 117.871824,58.8596722 C117.871824,57.46942 117.78096,56.0811725 117.619817,54.704452 L47.2874893,54.704452 C47.1263458,56.0806713 47.0354831,57.4684176 47.0354831,58.8596722 Z" id="Shape" fill="#FFE6B8"></path>
                <path d="M116.055571,47.1868662 L107.739868,12.6886652 C107.365373,11.1350308 106.421604,9.85653999 105.081754,9.08673921 C103.742908,8.31794078 102.16059,8.14653982 100.626967,8.60461138 L83.9308013,13.595286 C83.225987,13.8057784 82.4759924,13.8057784 81.7706761,13.595286 L65.0750126,8.60461138 C63.5303448,8.14303161 61.9244327,8.31593609 60.5514506,9.09024742 C59.1779664,9.86505992 58.2005638,11.1490636 57.7999643,12.7077097 L48.9280397,47.1868662 L116.055571,47.1868662 Z" id="Shape" fill="#FCDB5A"></path>
                <path d="M134.480139,131.843402 C134.249216,131.600333 133.986166,131.388838 133.698015,131.213929 C127.20509,126.023788 119.910463,121.795898 112.029998,118.748769 C111.826184,118.649036 111.61233,118.566844 111.38944,118.5052 C103.289598,115.451056 94.5848414,113.641322 85.5080991,113.308544 C84.8243691,112.361327 83.7129313,111.742379 82.4544062,111.742379 C81.195881,111.742379 80.0839412,112.361327 79.4007132,113.308544 C70.323469,113.641823 61.6187119,115.451056 53.5193724,118.5052 C53.2959804,118.567345 53.0816245,118.649538 52.8773087,118.749271 C44.997345,121.7969 37.7027186,126.02429 31.2102951,131.213929 C30.9216425,131.388838 30.6585922,131.600333 30.4271682,131.843903 C12.0608338,146.893609 0.323468037,169.724016 0.323468037,195.241207 C0.323468037,197.317564 2.00869694,199 4.08850132,199 C6.16830571,199 7.85353461,197.317564 7.85353461,195.241207 C7.85353461,174.879576 16.0838974,156.402853 29.3935411,142.944871 L29.3935411,194.428806 C29.3935411,194.707959 29.4261714,194.979596 29.4839019,195.241207 C29.8558872,196.926148 31.3583864,198.1876 33.1585743,198.1876 C34.9587622,198.1876 36.4607595,196.926148 36.8332468,195.241207 C36.8909774,194.979596 36.9236076,194.707959 36.9236076,194.428806 L36.9236076,136.286797 C41.1951634,132.991588 45.8321784,130.147935 50.76387,127.828008 L50.76387,159.445971 C50.76387,161.522329 52.4490989,163.204765 54.5289033,163.204765 L110.379407,163.204765 C112.459212,163.204765 114.14444,161.522329 114.14444,159.445971 L114.14444,127.828008 C119.076132,130.147935 123.713649,132.991087 127.984703,136.286797 L127.984703,194.428806 C127.984703,194.707959 128.017333,194.979596 128.075064,195.241207 C128.447049,196.926148 129.949548,198.1876 131.749736,198.1876 C133.549924,198.1876 135.051921,196.926148 135.424409,195.241207 C135.482139,194.979596 135.514769,194.707959 135.514769,194.428806 L135.514769,142.94437 C148.824915,156.402352 157.054775,174.879074 157.054775,195.241207 C157.054775,197.317564 158.740005,199 160.819809,199 C162.899613,199 164.584843,197.317564 164.584843,195.241207 C164.58434,169.724016 152.846473,146.893609 134.480139,131.843402 Z M58.2929326,155.687179 L58.2929326,124.774867 C64.7411795,122.565198 71.585006,121.212533 78.6883689,120.858205 L78.6883689,130.537346 C78.6883689,132.613704 80.3735977,134.29614 82.4534022,134.29614 C84.5332066,134.29614 86.2184355,132.613704 86.2184355,130.537346 L86.2184355,120.858205 C93.3212962,121.212533 100.165123,122.565198 106.61337,124.774365 L106.61337,155.687179 L58.2929326,155.687179 Z" id="Shape" fill="#4D3D36"></path>
                <path d="M22.8790294,54.704452 L39.7097323,54.704452 C39.576701,56.0836784 39.5054164,57.4714247 39.5054164,58.8596722 C39.5054164,82.5024794 58.7718448,101.736974 82.4539041,101.736974 C106.135462,101.736974 125.40189,82.5024794 125.40189,58.8596722 C125.40189,57.4714247 125.330103,56.0836784 125.197072,54.704452 L141.887716,54.704452 C143.96752,54.704452 145.652749,53.0220162 145.652749,50.9456591 C145.652749,48.8693019 143.96752,47.1868662 141.887716,47.1868662 L123.801499,47.1868662 L115.062105,10.9295501 C114.198657,7.34817221 111.987829,4.37922701 108.83725,2.5699947 C105.685666,0.761263569 102.004969,0.346292835 98.4683478,1.40326539 L82.8524957,6.0706838 L67.2371457,1.40326539 C63.7125724,0.348798698 60.0233418,0.754748328 56.8501719,2.54493609 C53.6764997,4.33462266 51.4245078,7.27901042 50.5093537,10.8368331 L41.156007,47.186365 L22.8805354,47.186365 C20.8007311,47.186365 19.1155022,48.8688007 19.1155022,50.9451578 C19.1155022,53.0215151 20.7992251,54.704452 22.8790294,54.704452 Z M60.5519525,9.09024742 C61.9244327,8.31593609 63.5308469,8.14303161 65.0755145,8.60461138 L81.7711782,13.595286 C82.4759924,13.8057784 83.225987,13.8057784 83.9313032,13.595286 L100.627469,8.60461138 C102.161092,8.14653982 103.74341,8.31794078 105.082256,9.08673921 C106.422106,9.85603882 107.365874,11.1350308 107.740369,12.6886652 L116.056074,47.1868662 L48.9285418,47.1868662 L57.8004662,12.7077097 C58.2015677,11.1495647 59.1784684,9.86505992 60.5519525,9.09024742 Z M117.871321,58.8596722 C117.871321,78.3567814 101.983383,94.2193885 82.4534022,94.2193885 C62.9234215,94.2193885 47.034981,78.3572826 47.034981,58.8596722 C47.034981,57.4684176 47.1258438,56.0806713 47.2869872,54.704452 L117.619315,54.704452 C117.780459,56.0811725 117.871321,57.46942 117.871321,58.8596722 Z" id="Shape" fill="#4D3D36"></path>
                <path d="M110.376897,170.723855 L79.6291253,170.723855 C77.5493208,170.723855 75.8640919,172.406289 75.8640919,174.482647 C75.8640919,176.559004 77.5493208,178.24144 79.6291253,178.24144 L110.376897,178.24144 C112.456701,178.24144 114.14193,176.559004 114.14193,174.482647 C114.14193,172.406289 112.456701,170.723855 110.376897,170.723855 Z" id="Shape" fill="#4D3D36"></path>
                <path d="M64.5689921,170.723855 L54.5289033,170.723855 C52.4490989,170.723855 50.76387,172.406289 50.76387,174.482647 C50.76387,176.559004 52.4490989,178.24144 54.5289033,178.24144 L64.5689921,178.24144 C66.6487964,178.24144 68.3340254,176.559004 68.3340254,174.482647 C68.3340254,172.406289 66.6487964,170.723855 64.5689921,170.723855 Z" id="Shape" fill="#4D3D36"></path>
            </g>
        </g>
    </g>
</svg>