<?xml version="1.0" encoding="UTF-8"?>
<svg width="200px" height="200px" viewBox="0 0 200 200" version="1.1" xmlns="http://www.w3.org/2000/svg" xmlns:xlink="http://www.w3.org/1999/xlink">
    <!-- Generator: Sketch 42 (36781) - http://www.bohemiancoding.com/sketch -->
    <title>003-plant</title>
    <desc>Created with Sketch.</desc>
    <defs></defs>
    <g id="Page-1" stroke="none" stroke-width="1" fill="none" fill-rule="evenodd">
        <g id="003-plant" transform="translate(14.000000, 8.000000)" fill-rule="nonzero">
            <g id="Group">
                <path d="M109.702297,34.5635424 C106.649068,24.6333898 99.8407297,15.658322 89.9391892,8.69283051 L89.9391892,52.435322 L93.6821486,49.0504237 C94.8836892,47.9651356 96.7428243,48.0524576 97.8342432,49.2472881 C98.9260541,50.4417288 98.8374865,52.2914746 97.6363378,53.3775424 L89.9391892,60.3379661 L89.9391892,84.5600847 C103.725162,74.8618814 111.525378,61.2708305 111.525378,46.6264576 C111.525378,44.783339 111.39723,42.9577627 111.153865,41.1532373 L106.335554,45.5103729 C105.772405,46.0194915 105.064649,46.2705424 104.359243,46.2705424 C103.559784,46.2705424 102.763851,45.9481525 102.183851,45.3135085 C101.091649,44.1190678 101.180216,42.2697119 102.381365,41.1832542 L109.702297,34.5635424 Z" id="Shape" fill="#BCC987"></path>
                <path d="M84.0608108,84.5604746 L84.0608108,60.3379661 L62.846527,41.1540169 C62.6031622,42.9581525 62.4750135,44.7837288 62.4750135,46.6268475 C62.4750135,61.2712203 70.2748378,74.8622712 84.0608108,84.5604746 Z" id="Shape" fill="#D4ED85"></path>
                <path d="M84.0608108,52.4357119 L84.0608108,8.69283051 C74.1592703,15.658322 67.3509324,24.6333898 64.2977027,34.5635424 L84.0608108,52.4357119 Z" id="Shape" fill="#D4ED85"></path>
                <path d="M136.935257,159.800492 C132.641689,159.800492 128.462162,160.605881 124.512284,162.19522 C123.240203,162.707068 121.780797,162.274746 120.997014,161.153593 C113.252838,150.072661 100.543392,143.457627 87,143.457627 C73.4566081,143.457627 60.7475541,150.073051 53.0029865,161.153983 C52.2192027,162.275136 50.7605811,162.707458 49.4877162,162.19561 C45.5374459,160.606661 41.3579189,159.800881 37.0647432,159.800881 C23.4461081,159.800881 11.1818514,168.151441 6.21031081,180.686051 L167.789689,180.686051 C162.818149,168.151441 150.553892,159.800492 136.935257,159.800492 Z M33.9985811,171.897322 C32.2699459,171.897322 30.8634459,170.49822 30.8634459,168.778678 C30.8634459,167.059136 32.2699459,165.660034 33.9985811,165.660034 C35.7272162,165.660034 37.1337162,167.059136 37.1337162,168.778678 C37.1337162,170.49822 35.7272162,171.897322 33.9985811,171.897322 Z M103.755338,162.151559 C102.026703,162.151559 100.620203,160.752458 100.620203,159.032915 C100.620203,157.313373 102.026703,155.914271 103.755338,155.914271 C105.483973,155.914271 106.890473,157.313373 106.890473,159.032915 C106.890473,160.752458 105.483973,162.151559 103.755338,162.151559 Z M113.944527,171.897322 C112.215892,171.897322 110.809392,170.49822 110.809392,168.778678 C110.809392,167.059136 112.215892,165.660034 113.944527,165.660034 C115.673162,165.660034 117.079662,167.059136 117.079662,168.778678 C117.079662,170.49822 115.673162,171.897322 113.944527,171.897322 Z" id="Shape" fill="#87635C"></path>
                <path d="M173.701378,179.700559 C168.159635,164.300305 153.384919,153.953034 136.935649,153.953034 C132.659716,153.953034 128.477054,154.632898 124.471527,155.976644 C115.947878,144.957695 102.944905,138.242085 88.9904189,137.656169 C85.0648378,127.612966 87.2288649,122.368186 89.7185541,116.349203 C92.2936757,110.124 95.1897568,103.116797 90.6524324,91.1232712 C98.4201216,86.1494237 104.891432,79.8614576 109.455797,72.8172203 C114.655811,64.7913898 117.404541,55.7348475 117.404541,46.6260678 C117.404541,42.7468644 116.901351,38.8777966 115.927108,35.093322 C115.896541,34.8847627 115.840892,34.6789322 115.764865,34.479339 C114.437919,29.5943729 112.321311,24.8579322 109.455797,20.4349153 C104.476027,12.7490169 97.2307297,5.95894915 88.5025135,0.799152542 C88.4919324,0.792915254 88.4801757,0.788627119 88.4695946,0.782779661 C88.2626757,0.663491525 88.040473,0.569152542 87.8057297,0.502881356 C87.7771216,0.494694915 87.7485135,0.488067797 87.7199054,0.481050847 C87.6317297,0.458830508 87.5419865,0.440898305 87.4510676,0.426864407 C87.4189324,0.42179661 87.3867973,0.415949153 87.3546622,0.412050847 C87.2425811,0.39879661 87.1289324,0.389830508 87.0129324,0.389440678 L86.9886351,0.389440678 C86.873027,0.389830508 86.7593784,0.39840678 86.6469054,0.412050847 C86.6143784,0.415949153 86.5826351,0.42179661 86.5505,0.426864407 C86.4591892,0.440898305 86.3698378,0.458830508 86.2812703,0.481050847 C86.2526622,0.488067797 86.2240541,0.495084746 86.1954459,0.502881356 C85.9607027,0.569152542 85.7385,0.663881356 85.5315811,0.782779661 C85.521,0.789016949 85.5092432,0.792915254 85.4986622,0.799152542 C76.7708378,5.95894915 69.5251486,12.7490169 64.5453784,20.4349153 C61.683,24.8528644 59.5683514,29.5838475 58.2410135,34.4629661 C58.1598919,34.6719153 58.1018919,34.8871017 58.0709324,35.1054068 C57.0990405,38.8863729 56.5966351,42.7511525 56.5966351,46.6260678 C56.5966351,55.7344576 59.3453649,64.7913898 64.5453784,72.8172203 C69.3636892,80.2536271 76.3072297,86.8472203 84.6584459,91.9411356 C89.0613514,102.560508 86.8436351,107.932373 84.2822297,114.124051 C81.8203649,120.075203 79.0677162,126.743254 82.795,137.797678 C69.6866081,138.964441 57.6002703,145.542831 49.5292568,155.976644 C45.5237297,154.632898 41.3410676,153.953034 37.0651351,153.953034 C20.6158649,153.953034 5.84075676,164.300305 0.299405405,179.700559 C-0.247675676,181.220508 0.547864865,182.894051 2.07624324,183.438644 C3.60305405,183.982458 5.28662162,183.191492 5.83409459,181.671153 C5.95362162,181.339407 6.08137838,181.012339 6.2107027,180.686051 C11.1822432,168.151441 23.4465,159.800881 37.0651351,159.800881 C41.3587027,159.800881 45.5382297,160.606271 49.4881081,162.19561 C50.760973,162.707458 52.2195946,162.275136 53.0033784,161.153983 C60.7475541,150.072661 73.457,143.457627 87,143.457627 C100.543,143.457627 113.252446,150.073051 120.997014,161.153983 C121.780797,162.275136 123.240203,162.707458 124.512284,162.19561 C128.462554,160.606661 132.642081,159.800881 136.935257,159.800881 C150.553892,159.800881 162.818149,168.151441 167.789689,180.686051 C167.919014,181.012339 168.047162,181.339407 168.166297,181.671153 C168.596203,182.865983 169.727203,183.610559 170.933838,183.610559 C171.262635,183.610559 171.596919,183.555203 171.924149,183.439034 C173.452527,182.894441 174.248068,181.220898 173.701378,179.700559 Z M102.183851,45.3142881 C102.763851,45.9489322 103.560176,46.271322 104.359243,46.271322 C105.064649,46.271322 105.772405,46.0198814 106.335554,45.5111525 L111.153865,41.1540169 C111.39723,42.9581525 111.525378,44.7841186 111.525378,46.6272373 C111.525378,61.2716102 103.725162,74.862661 89.9391892,84.5608644 L89.9391892,60.3379661 L97.6363378,53.3775424 C98.8374865,52.2914746 98.9260541,50.4421186 97.8342432,49.2472881 C96.7428243,48.0528475 94.8840811,47.9651356 93.6821486,49.0504237 L89.9391892,52.435322 L89.9391892,8.69283051 C99.8407297,15.658322 106.649068,24.6333898 109.702297,34.5635424 L102.381365,41.1840339 C101.180216,42.2704915 101.091649,44.1194576 102.183851,45.3142881 Z M84.0608108,8.69283051 L84.0608108,52.435322 L64.2977027,34.5635424 C67.3509324,24.6333898 74.1592703,15.658322 84.0608108,8.69283051 Z M62.846527,41.1540169 L84.0608108,60.3379661 L84.0608108,84.5600847 C70.2748378,74.8618814 62.4746216,61.2708305 62.4746216,46.6264576 C62.4750135,44.7837288 62.6031622,42.9581525 62.846527,41.1540169 Z" id="Shape" fill="#4D3D36"></path>
                <path d="M33.9985811,165.660034 C32.2699459,165.660034 30.8634459,167.059136 30.8634459,168.778678 C30.8634459,170.49822 32.2699459,171.897322 33.9985811,171.897322 C35.7272162,171.897322 37.1337162,170.49822 37.1337162,168.778678 C37.1337162,167.059136 35.7272162,165.660034 33.9985811,165.660034 Z" id="Shape" fill="#4D3D36"></path>
                <path d="M113.944527,165.660034 C112.215892,165.660034 110.809392,167.059136 110.809392,168.778678 C110.809392,170.49822 112.215892,171.897322 113.944527,171.897322 C115.673162,171.897322 117.079662,170.49822 117.079662,168.778678 C117.079662,167.059136 115.673162,165.660034 113.944527,165.660034 Z" id="Shape" fill="#4D3D36"></path>
                <path d="M103.755338,155.914271 C102.026703,155.914271 100.620203,157.313373 100.620203,159.032915 C100.620203,160.752458 102.026703,162.151559 103.755338,162.151559 C105.483973,162.151559 106.890473,160.752458 106.890473,159.032915 C106.890473,157.313373 105.483973,155.914271 103.755338,155.914271 Z" id="Shape" fill="#4D3D36"></path>
            </g>
        </g>
    </g>
</svg>