<?xml version="1.0" encoding="UTF-8"?>
<svg width="200px" height="200px" viewBox="0 0 200 200" version="1.1" xmlns="http://www.w3.org/2000/svg" xmlns:xlink="http://www.w3.org/1999/xlink">
    <!-- Generator: Sketch 43.1 (39012) - http://www.bohemiancoding.com/sketch -->
    <title>Jagung</title>
    <desc>Created with Sketch.</desc>
    <defs>
        <ellipse id="path-1" cx="22.6367747" cy="21.5297761" rx="18.8278626" ry="12.2888613"></ellipse>
        <ellipse id="path-2" cx="22.6367747" cy="21.5297761" rx="18.8278626" ry="12.2888613"></ellipse>
        <ellipse id="path-3" cx="22.6367747" cy="21.5297761" rx="18.8278626" ry="12.2888613"></ellipse>
    </defs>
    <g id="Page-1" stroke="none" stroke-width="1" fill="none" fill-rule="evenodd">
        <g id="Desktop-HD" transform="translate(-1035.000000, -396.000000)">
            <g id="open-Soybean" transform="translate(1039.000000, 421.000000)">
                <g id="Group-3-Copy">
                    <path d="M97.7525694,70.1886221 C97.7504724,70.0723373 97.7637055,69.8464993 97.8112814,69.5269267 C97.895106,68.9638679 98.0581001,68.3326705 98.3216956,67.648479 C99.0885115,65.6581235 100.528748,63.6376824 102.852571,61.6961881 C106.349479,58.7746107 111.506062,56.3301665 118.610835,54.5822195 C129.431444,51.9200866 136.067171,41.8873561 139.541723,27.0919195 C140.774423,21.8428027 141.536721,16.2552476 141.92141,10.5933129 C142.180671,6.7774494 142.239259,3.43629964 142.184427,0.839783155 C142.177914,0.531391435 142.171261,0.314306041 142.166542,0.19504241 L141.686099,-11.9453651 L137.334357,-0.601526994 C137.254325,-0.392905799 137.007609,0.0968724095 136.556623,0.776194086 C135.762232,1.97279004 134.686494,3.18409802 133.288741,4.32569446 C129.175886,7.68481358 123.232707,9.73001698 115.018648,9.73001698 C105.521044,9.73001698 98.5088002,12.9135332 93.7494574,18.2344372 C92.0719816,20.1098407 90.8009944,22.1182933 89.8773378,24.1332908 C89.3113607,25.367995 88.980587,26.3589307 88.8293838,26.9880115 L88.8049862,27.1009411 C88.7851509,27.2042657 88.7346061,27.4352667 88.649804,27.7751838 C88.5032806,28.3625018 88.315341,29.0222434 88.0827069,29.7355025 C87.4175199,31.7749742 86.534022,33.813007 85.413523,35.6976924 C82.331222,40.8821398 78.1376785,43.8782901 72.508925,43.8782901 C65.0584462,43.8782901 58.8767411,47.4221335 53.9418978,53.2261027 C52.2508963,55.2149238 50.8268317,57.3358549 49.6548361,59.4581866 C48.9453413,60.7429895 48.4705332,61.7595599 48.2212403,62.3778389 L48.1708382,62.5028428 L48.1341678,62.6325411 C48.1010065,62.7498281 48.024057,63.0008477 47.9021565,63.3660808 C47.6931809,63.9922042 47.4367904,64.6943341 47.1320352,65.4528195 C46.2607789,67.621233 45.1835059,69.7886052 43.8988572,71.7961478 C40.3804454,77.29443 36.0736901,80.4745811 30.935289,80.4745811 C23.7809082,80.4745811 18.0064072,84.7713812 13.4774673,91.7361417 C11.948442,94.0875297 10.6678644,96.5909239 9.61923212,99.0933224 C8.98739797,100.601097 8.56858441,101.787572 8.35316103,102.4975 L8.28855701,102.710403 L8.2625653,102.931368 C8.26557797,102.905757 8.25917991,102.942033 8.23753263,103.030934 C8.18937257,103.228717 8.11438997,103.462338 8.00707651,103.723234 C7.6808668,104.5163 7.15756461,105.326005 6.38514938,106.099406 C5.10102945,107.385163 3.26684578,108.43227 0.745606929,109.127199 C-1.56949485,109.765311 -2.7486194,111.746413 -2.36970284,114.057338 C-2.10924512,115.64581 -1.14196134,117.353735 0.357417667,119.078639 C3.36430033,122.537795 8.24326095,125.782898 13.718101,127.725504 C28.4755739,132.961812 44.0681774,128.418448 56.7016713,111.613395 L56.9493026,111.283997 L57.0781096,110.892546 C57.1102018,110.795017 57.1904655,110.572459 57.3211301,110.243121 C57.5478918,109.671571 57.8296845,109.028808 58.1684921,108.333122 C59.1407522,106.336744 60.3662468,104.338811 61.8555942,102.483932 C65.5517023,97.8806841 70.2091979,94.9384417 75.9785569,94.3386125 C83.4178403,93.5651646 89.0485895,89.1478738 93.0772357,82.4145634 C94.5952863,79.8773572 95.7810105,77.1774346 96.6798165,74.4789033 C97.2217189,72.8519217 97.5516373,71.5696318 97.7064165,70.7974749 L97.7696463,70.4820366 L97.7525694,70.1886221 Z" id="Path-2" stroke="#4D3D36" stroke-width="5"></path>
                    <path d="M139.668497,0.293899752 C139.668497,0.293899752 135.089544,12.230017 115.018648,12.230017 C94.9477518,12.230017 91.2601557,27.5722614 91.2601557,27.5722614 C91.2601557,27.5722614 87.6499515,46.3782901 72.508925,46.3782901 C57.3678985,46.3782901 50.5398611,63.3127172 50.5398611,63.3127172 C50.5398611,63.3127172 44.980744,82.9745811 30.935289,82.9745811 C16.8898339,82.9745811 10.7454473,103.223425 10.7454473,103.223425 C10.7454473,103.223425 10.0475477,109.156533 1.4099095,111.537324 C-7.22772874,113.918116 27.3342233,146.517527 54.703368,110.111136 C54.703368,110.111136 60.1799048,93.4676926 75.7200303,91.8520157 C91.2601557,90.2363388 95.2551774,70.3061228 95.2551774,70.3061228 C95.2551774,70.3061228 94.5349328,57.9309287 118.013584,52.1546094 C141.492236,46.3782901 139.668497,0.293899752 139.668497,0.293899752 Z" id="Path-2-Copy" fill="#5DDE6F"></path>
                    <path d="M2.03338653,117.191193 C9.12297304,125.67624 33.975885,137.6828 54.703368,110.111136 C54.703368,110.111136 60.1799048,93.4676926 75.7200303,91.8520157 C91.2601557,90.2363388 95.2551774,70.3061228 95.2551774,70.3061228 C95.2551774,70.3061228 94.5349328,57.9309287 118.013584,52.1546094 C141.492236,46.3782901 139.668497,0.293899752 139.668497,0.293899752 C139.668497,0.293899752 139.043547,1.9229788 137.243394,3.9774551 C136.80692,16.6932572 133.787023,45.2879285 115.622745,49.7567828 C92.1440931,55.5331021 92.8643377,67.9082962 92.8643377,67.9082962 C92.8643377,67.9082962 88.869316,87.8385122 73.3291906,89.4541891 C57.7890651,91.069866 52.3125283,107.713309 52.3125283,107.713309 C33.4920498,132.748279 11.2703311,125.152692 2.03338653,117.191193 Z" id="Combined-Shape" fill="#4CC15C"></path>
                    <path d="M16.6347103,109.113774 C16.6347103,109.113774 16.8007528,92.8053497 35.8956358,89.274398" id="Path-4" stroke="#4D3D36" stroke-width="5" stroke-linecap="round" stroke-linejoin="round" stroke-dasharray="25,12"></path>
                    <path d="M54.8881455,74.3452883 C54.8881455,74.3452883 55.0541879,58.036864 74.1490709,54.5059123" id="Path-4-Copy" stroke="#4D3D36" stroke-width="5" stroke-linecap="round" stroke-linejoin="round" stroke-dasharray="25,12"></path>
                    <path d="M94.3370004,38.3778893 C94.3370004,38.3778893 94.5030429,22.0694649 113.597926,18.5385133" id="Path-4-Copy-2" stroke="#4D3D36" stroke-width="5" stroke-linecap="round" stroke-linejoin="round" stroke-dasharray="25,12"></path>
                </g>
                <g id="Group-3" transform="translate(51.403053, 21.580439)">
                    <path d="M97.7525694,70.1886221 C97.7504724,70.0723373 97.7637055,69.8464993 97.8112814,69.5269267 C97.895106,68.9638679 98.0581001,68.3326705 98.3216956,67.648479 C99.0885115,65.6581235 100.528748,63.6376824 102.852571,61.6961881 C106.349479,58.7746107 111.506062,56.3301665 118.610835,54.5822195 C129.431444,51.9200866 136.067171,41.8873561 139.541723,27.0919195 C140.774423,21.8428027 141.536721,16.2552476 141.92141,10.5933129 C142.180671,6.7774494 142.239259,3.43629964 142.184427,0.839783155 C142.177914,0.531391435 142.171261,0.314306041 142.166542,0.19504241 L141.686099,-11.9453651 L137.334357,-0.601526994 C137.254325,-0.392905799 137.007609,0.0968724095 136.556623,0.776194086 C135.762232,1.97279004 134.686494,3.18409802 133.288741,4.32569446 C129.175886,7.68481358 123.232707,9.73001698 115.018648,9.73001698 C105.521044,9.73001698 98.5088002,12.9135332 93.7494574,18.2344372 C92.0719816,20.1098407 90.8009944,22.1182933 89.8773378,24.1332908 C89.3113607,25.367995 88.980587,26.3589307 88.8293838,26.9880115 L88.8049862,27.1009411 C88.7851509,27.2042657 88.7346061,27.4352667 88.649804,27.7751838 C88.5032806,28.3625018 88.315341,29.0222434 88.0827069,29.7355025 C87.4175199,31.7749742 86.534022,33.813007 85.413523,35.6976924 C82.331222,40.8821398 78.1376785,43.8782901 72.508925,43.8782901 C65.0584462,43.8782901 58.8767411,47.4221335 53.9418978,53.2261027 C52.2508963,55.2149238 50.8268317,57.3358549 49.6548361,59.4581866 C48.9453413,60.7429895 48.4705332,61.7595599 48.2212403,62.3778389 L48.1708382,62.5028428 L48.1341678,62.6325411 C48.1010065,62.7498281 48.024057,63.0008477 47.9021565,63.3660808 C47.6931809,63.9922042 47.4367904,64.6943341 47.1320352,65.4528195 C46.2607789,67.621233 45.1835059,69.7886052 43.8988572,71.7961478 C40.3804454,77.29443 36.0736901,80.4745811 30.935289,80.4745811 C23.7809082,80.4745811 18.0064072,84.7713812 13.4774673,91.7361417 C11.948442,94.0875297 10.6678644,96.5909239 9.61923212,99.0933224 C8.98739797,100.601097 8.56858441,101.787572 8.35316103,102.4975 L8.28855701,102.710403 L8.2625653,102.931368 C8.26557797,102.905757 8.25917991,102.942033 8.23753263,103.030934 C8.18937257,103.228717 8.11438997,103.462338 8.00707651,103.723234 C7.6808668,104.5163 7.15756461,105.326005 6.38514938,106.099406 C5.10102945,107.385163 3.26684578,108.43227 0.745606929,109.127199 C-1.56949485,109.765311 -2.7486194,111.746413 -2.36970284,114.057338 C-2.10924512,115.64581 -1.14196134,117.353735 0.357417667,119.078639 C3.36430033,122.537795 8.24326095,125.782898 13.718101,127.725504 C28.4755739,132.961812 44.0681774,128.418448 56.7016713,111.613395 L56.9493026,111.283997 L57.0781096,110.892546 C57.1102018,110.795017 57.1904655,110.572459 57.3211301,110.243121 C57.5478918,109.671571 57.8296845,109.028808 58.1684921,108.333122 C59.1407522,106.336744 60.3662468,104.338811 61.8555942,102.483932 C65.5517023,97.8806841 70.2091979,94.9384417 75.9785569,94.3386125 C83.4178403,93.5651646 89.0485895,89.1478738 93.0772357,82.4145634 C94.5952863,79.8773572 95.7810105,77.1774346 96.6798165,74.4789033 C97.2217189,72.8519217 97.5516373,71.5696318 97.7064165,70.7974749 L97.7696463,70.4820366 L97.7525694,70.1886221 Z" id="Path-2" stroke="#4D3D36" stroke-width="5"></path>
                    <path d="M139.668497,0.293899752 C139.668497,0.293899752 135.089544,12.230017 115.018648,12.230017 C94.9477518,12.230017 91.2601557,27.5722614 91.2601557,27.5722614 C91.2601557,27.5722614 87.6499515,46.3782901 72.508925,46.3782901 C57.3678985,46.3782901 50.5398611,63.3127172 50.5398611,63.3127172 C50.5398611,63.3127172 44.980744,82.9745811 30.935289,82.9745811 C16.8898339,82.9745811 10.7454473,103.223425 10.7454473,103.223425 C10.7454473,103.223425 10.0475477,109.156533 1.4099095,111.537324 C-7.22772874,113.918116 27.3342233,146.517527 54.703368,110.111136 C54.703368,110.111136 60.1799048,93.4676926 75.7200303,91.8520157 C91.2601557,90.2363388 95.2551774,70.3061228 95.2551774,70.3061228 C95.2551774,70.3061228 94.5349328,57.9309287 118.013584,52.1546094 C141.492236,46.3782901 139.668497,0.293899752 139.668497,0.293899752 Z" id="Path-2-Copy" fill="#5DDF6F"></path>
                </g>
                <g id="Group-2" transform="translate(60.966412, 104.305457)">
                    <g id="Oval-2" transform="translate(22.636775, 21.529776) rotate(-37.000000) translate(-22.636775, -21.529776) ">
                        <use fill="#FFE6B8" fill-rule="evenodd" xlink:href="#path-1"></use>
                        <ellipse stroke="#4D3D36" stroke-width="3" cx="22.6367747" cy="21.5297761" rx="20.3278626" ry="13.7888613"></ellipse>
                    </g>
                    <path d="M7.77417184,33.0834563 C11.9639082,38.2609842 21.8435004,37.5148727 30.0323961,31.3440972 C38.3368808,25.0862191 41.7578633,15.6191854 37.6733744,10.1988856 C37.2720068,9.66625286 36.8130999,9.19251649 36.3039578,8.77718267 C36.3630973,8.85026517 36.4211031,8.9245279 36.4779545,8.99997228 C40.5624434,14.4202721 37.1414609,23.8873058 28.8369762,30.1451839 C21.3485424,35.7881235 12.4462794,36.8947381 7.77417184,33.0834563 Z" id="Combined-Shape" fill="#E9CD99"></path>
                    <path d="M11.4422493,21.6222507 C11.4422493,21.6222507 13.9206935,14.3883283 24.0930382,10.5728539" id="Path-3" stroke="#4D3D36" stroke-width="3" stroke-linecap="round" stroke-dasharray="15,6"></path>
                </g>
                <g id="Group-2-Copy-3" transform="translate(98.622137, 71.335341)">
                    <g id="Oval-2" transform="translate(22.636775, 21.529776) rotate(-37.000000) translate(-22.636775, -21.529776) ">
                        <use fill="#FFE6B8" fill-rule="evenodd" xlink:href="#path-2"></use>
                        <ellipse stroke="#4D3D36" stroke-width="3" cx="22.6367747" cy="21.5297761" rx="20.3278626" ry="13.7888613"></ellipse>
                    </g>
                    <path d="M7.77417184,33.0834563 C11.9639082,38.2609842 21.8435004,37.5148727 30.0323961,31.3440972 C38.3368808,25.0862191 41.7578633,15.6191854 37.6733744,10.1988856 C37.2720068,9.66625286 36.8130999,9.19251649 36.3039578,8.77718267 C36.3630973,8.85026517 36.4211031,8.9245279 36.4779545,8.99997228 C40.5624434,14.4202721 37.1414609,23.8873058 28.8369762,30.1451839 C21.3485424,35.7881235 12.4462794,36.8947381 7.77417184,33.0834563 Z" id="Combined-Shape" fill="#E9CD99"></path>
                    <path d="M11.4422493,21.6222507 C11.4422493,21.6222507 13.9206935,14.3883283 24.0930382,10.5728539" id="Path-3" stroke="#4D3D36" stroke-width="3" stroke-linecap="round" stroke-dasharray="15,6"></path>
                </g>
                <g id="Group-2-Copy-4" transform="translate(138.668702, 35.367942)">
                    <g id="Oval-2" transform="translate(22.636775, 21.529776) rotate(-37.000000) translate(-22.636775, -21.529776) ">
                        <use fill="#FFE6B8" fill-rule="evenodd" xlink:href="#path-3"></use>
                        <ellipse stroke="#4D3D36" stroke-width="3" cx="22.6367747" cy="21.5297761" rx="20.3278626" ry="13.7888613"></ellipse>
                    </g>
                    <path d="M7.77417184,33.0834563 C11.9639082,38.2609842 21.8435004,37.5148727 30.0323961,31.3440972 C38.3368808,25.0862191 41.7578633,15.6191854 37.6733744,10.1988856 C37.2720068,9.66625286 36.8130999,9.19251649 36.3039578,8.77718267 C36.3630973,8.85026517 36.4211031,8.9245279 36.4779545,8.99997228 C40.5624434,14.4202721 37.1414609,23.8873058 28.8369762,30.1451839 C21.3485424,35.7881235 12.4462794,36.8947381 7.77417184,33.0834563 Z" id="Combined-Shape" fill="#E9CD99"></path>
                    <path d="M11.4422493,21.6222507 C11.4422493,21.6222507 13.9206935,14.3883283 24.0930382,10.5728539" id="Path-3" stroke="#4D3D36" stroke-width="3" stroke-linecap="round" stroke-dasharray="15,6"></path>
                </g>
            </g>
        </g>
    </g>
</svg>