<?xml version="1.0" encoding="UTF-8"?>
<svg width="200px" height="200px" viewBox="0 0 200 200" version="1.1" xmlns="http://www.w3.org/2000/svg" xmlns:xlink="http://www.w3.org/1999/xlink">
    <!-- Generator: Sketch 42 (36781) - http://www.bohemiancoding.com/sketch -->
    <title>sack</title>
    <desc>Created with Sketch.</desc>
    <defs></defs>
    <g id="Page-1" stroke="none" stroke-width="1" fill="none" fill-rule="evenodd">
        <g id="sack" transform="translate(37.000000, 18.000000)" fill-rule="nonzero">
            <g id="Group">
                <path d="M102.561407,41.3676064 C83.1901538,13.1533085 74.6025495,5.26595745 64,5.26595745 C53.3974505,5.26595745 44.8098462,13.1533085 25.4385934,41.3676064 L102.561407,41.3676064 Z M83.3406593,30.4498723 C84.8917802,30.4498723 86.1538462,31.7098404 86.1538462,33.258383 C86.1538462,34.8069255 84.8917802,36.0668936 83.3406593,36.0668936 C81.7895385,36.0668936 80.5274725,34.8069255 80.5274725,33.258383 C80.5274725,31.7098404 81.7895385,30.4498723 83.3406593,30.4498723 Z M76.3076923,19.9179574 C77.8588132,19.9179574 79.1208791,21.1779255 79.1208791,22.7264681 C79.1208791,24.2750106 77.8588132,25.5349787 76.3076923,25.5349787 C74.7565714,25.5349787 73.4945055,24.2750106 73.4945055,22.7264681 C73.4945055,21.1779255 74.7565714,19.9179574 76.3076923,19.9179574 Z M48.1758242,27.6413617 C49.7269451,27.6413617 50.989011,28.9013298 50.989011,30.4498723 C50.989011,31.9984149 49.7269451,33.258383 48.1758242,33.258383 C46.6247033,33.258383 45.3626374,31.9984149 45.3626374,30.4498723 C45.3626374,28.9013298 46.6247033,27.6413617 48.1758242,27.6413617 Z" id="Shape" fill="#FFE6B8"></path>
                <path d="M83.3406593,36.0668936 C84.8917802,36.0668936 86.1538462,34.8069255 86.1538462,33.258383 C86.1538462,31.7098404 84.8917802,30.4498723 83.3406593,30.4498723 C81.7895385,30.4498723 80.5274725,31.7098404 80.5274725,33.258383 C80.5274725,34.8069255 81.7895385,36.0668936 83.3406593,36.0668936 Z" id="Shape" fill="#4D3D36"></path>
                <path d="M76.3076923,25.5349787 C77.8588132,25.5349787 79.1208791,24.2750106 79.1208791,22.7264681 C79.1208791,21.1779255 77.8588132,19.9179574 76.3076923,19.9179574 C74.7565714,19.9179574 73.4945055,21.1779255 73.4945055,22.7264681 C73.4945055,24.2750106 74.7565714,25.5349787 76.3076923,25.5349787 Z" id="Shape" fill="#4D3D36"></path>
                <path d="M48.1758242,33.258383 C49.7269451,33.258383 50.989011,31.9984149 50.989011,30.4498723 C50.989011,28.9013298 49.7269451,27.6413617 48.1758242,27.6413617 C46.6247033,27.6413617 45.3626374,28.9013298 45.3626374,30.4498723 C45.3626374,31.9984149 46.6247033,33.258383 48.1758242,33.258383 Z" id="Shape" fill="#4D3D36"></path>
                <path d="M120.515516,147.419777 L115.936,142.847872 C115.463736,142.376394 115.188044,141.743777 115.165187,141.077809 L112.826374,73.9487872 L33.7255385,73.9487872 C32.2686593,73.9487872 31.0881758,72.7699149 31.0881758,71.3158085 L25.8134505,71.3158085 C25.8134505,72.7699149 24.632967,73.9487872 23.1760879,73.9487872 L15.173978,73.9487872 L12.8351648,141.077809 C12.8123077,141.744128 12.5362637,142.376745 12.0643516,142.847872 L7.48483516,147.419777 C4.95789011,149.942521 4.95789011,154.047511 7.48518681,156.570255 C8.70892308,157.792309 10.3363516,158.465298 12.0678681,158.465298 C13.799033,158.465298 15.4264615,157.792309 16.6501978,156.570255 L18.3198242,154.903404 C18.9992088,154.225851 19.9919121,153.969574 20.9163956,154.23533 C32.6864176,157.627309 49.1952527,159.734043 64,159.734043 C78.8047473,159.734043 95.3135824,157.627309 107.084308,154.23533 C108.007736,153.969574 109.001846,154.225851 109.680879,154.903404 L111.350505,156.570255 C112.574242,157.792309 114.20167,158.465298 115.932835,158.465298 C117.664352,158.465298 119.29178,157.792309 120.515516,156.570255 C123.042462,154.047511 123.042462,149.942521 120.515516,147.419777 Z M101.740308,92.8823617 L89.7895385,105.169596 C89.293011,105.680394 88.6101099,105.968266 87.8973187,105.968266 C87.1845275,105.968266 86.5016264,105.680043 86.0050989,105.169596 L75.9465495,94.8279574 L65.8894066,105.169596 C65.3928791,105.680394 64.709978,105.968617 63.9971868,105.968617 C63.2843956,105.968617 62.6014945,105.680394 62.104967,105.169596 L52.0485275,94.8283085 L41.9917363,105.169596 C41.4952088,105.680394 40.8123077,105.968617 40.0995165,105.968617 C39.3867253,105.968617 38.7038242,105.680394 38.2072967,105.169596 L26.2586374,92.8823617 C25.2437802,91.839 25.2687473,90.1721489 26.3134945,89.1593298 C27.3596484,88.1465106 29.0285714,88.1714362 30.0427253,89.2144468 L40.0991648,99.555734 L50.155956,89.2144468 C50.6524835,88.7036489 51.3353846,88.4154255 52.0481758,88.4154255 C52.760967,88.4154255 53.4438681,88.7036489 53.9403956,89.2144468 L63.9968352,99.555734 L74.053978,89.2144468 C74.5505055,88.7036489 75.2334066,88.4154255 75.9461978,88.4154255 C76.658989,88.4154255 77.3418901,88.7036489 77.8384176,89.2140957 L87.896967,99.555734 L97.9555165,89.2140957 C98.9703736,88.170383 100.640352,88.1461596 101.684747,89.1593298 C102.730549,90.1721489 102.755165,91.8393511 101.740308,92.8823617 Z" id="Shape" fill="#FCDB5A"></path>
                <path d="M124.245099,143.696043 L120.400176,139.857511 L118.089846,73.5552447 C122.070857,72.3819894 124.984967,68.7014362 124.984967,64.3521064 L124.984967,50.963234 C124.984967,45.672 120.673055,41.3672553 115.373011,41.3672553 L108.944879,41.3672553 C86.9007473,8.93176596 77.1439121,0 64,0 C50.8560879,0 41.0992527,8.93176596 19.0547692,41.3676064 L12.6266374,41.3676064 C7.32659341,41.3676064 3.01468132,45.6723511 3.01468132,50.9635851 L3.01468132,64.3524574 C3.01468132,68.7017872 5.92879121,72.3823404 9.9098022,73.5555957 L7.59947253,139.857862 L3.7541978,143.696394 C-0.829186813,148.272511 -0.829186813,155.718223 3.7541978,160.293989 C5.97450549,162.510606 8.92659341,163.731606 12.0671648,163.731606 C15.2073846,163.731606 18.1591209,162.510957 20.3797802,160.293989 L20.9589451,159.715787 C33.0443956,162.987351 49.3527912,165 64,165 C78.6472088,165 94.9556044,162.987351 107.040703,159.715436 L107.619868,160.293638 C109.840176,162.510255 112.792264,163.731255 115.932484,163.731255 C119.073055,163.731255 122.024791,162.510606 124.245451,160.293638 C128.828835,155.717872 128.828835,148.27216 124.245099,143.696043 Z M111.350154,156.570255 L109.680527,154.903404 C109.001495,154.225851 108.007385,153.969574 107.083956,154.23533 C95.3135824,157.627309 78.8047473,159.734043 64,159.734043 C49.1952527,159.734043 32.6864176,157.627309 20.9156923,154.23533 C19.9912088,153.969574 18.9985055,154.225851 18.3191209,154.903404 L16.6494945,156.570255 C15.4257582,157.792309 13.7983297,158.465298 12.0671648,158.465298 C10.3356484,158.465298 8.70821978,157.792309 7.48448352,156.570255 C4.95718681,154.04716 4.95718681,149.942521 7.48413187,147.419777 L12.064,142.847872 C12.5362637,142.376394 12.811956,141.743777 12.8348132,141.077809 L15.1736264,73.9487872 L23.1760879,73.9487872 C24.632967,73.9487872 25.8134505,72.7699149 25.8134505,71.3158085 C25.8134505,69.8617021 24.632967,68.6828298 23.1760879,68.6828298 L12.6266374,68.6828298 C10.2350769,68.6828298 8.28940659,66.7403936 8.28940659,64.3528085 L8.28940659,50.9639362 C8.28940659,48.5763511 10.2350769,46.6339149 12.6266374,46.6339149 L115.373363,46.6339149 C117.764923,46.6339149 119.710593,48.5763511 119.710593,50.9639362 L119.710593,64.3528085 C119.710593,66.7403936 117.764923,68.6828298 115.373363,68.6828298 L33.7255385,68.6828298 C32.2686593,68.6828298 31.0881758,69.8617021 31.0881758,71.3158085 C31.0881758,72.7699149 32.2686593,73.9487872 33.7255385,73.9487872 L112.826374,73.9487872 L115.165187,141.077809 C115.188044,141.744128 115.464088,142.376745 115.936,142.847872 L120.515165,147.419777 C123.042462,149.942521 123.042462,154.047511 120.515165,156.570255 C119.291429,157.792309 117.664,158.465298 115.932484,158.465298 C114.20167,158.465298 112.574242,157.792309 111.350154,156.570255 Z M64,5.26595745 C74.6025495,5.26595745 83.1901538,13.1533085 102.561407,41.3676064 L25.4385934,41.3676064 C44.8098462,13.1533085 53.3974505,5.26595745 64,5.26595745 Z" id="Shape" fill="#4D3D36"></path>
                <path d="M97.9562198,89.2140957 L87.8976703,99.555734 L77.8391209,89.2140957 C77.3425934,88.7032979 76.6596923,88.4154255 75.9469011,88.4154255 C75.2341099,88.4154255 74.5512088,88.7036489 74.0546813,89.2144468 L63.9975385,99.555734 L53.9410989,89.2144468 C53.4445714,88.7036489 52.7616703,88.4154255 52.0488791,88.4154255 C51.3360879,88.4154255 50.6531868,88.7036489 50.1566593,89.2144468 L40.0998681,99.555734 L30.0434286,89.2144468 C29.0289231,88.1710851 27.36,88.1465106 26.3141978,89.1593298 C25.2690989,90.1721489 25.2444835,91.8393511 26.2593407,92.8823617 L38.208,105.169596 C38.7045275,105.680394 39.3874286,105.968617 40.1002198,105.968617 C40.813011,105.968617 41.4959121,105.680394 41.9924396,105.169596 L52.0492308,94.8283085 L62.1056703,105.169596 C62.6021978,105.680394 63.2850989,105.968617 63.9978901,105.968617 C64.7106813,105.968617 65.3935824,105.680394 65.8901099,105.169596 L75.9472527,94.8279574 L86.0058022,105.169596 C86.5023297,105.680394 87.1852308,105.968266 87.898022,105.968266 C88.6108132,105.968266 89.2937143,105.680043 89.7902418,105.169596 L101.741011,92.8823617 C102.755868,91.839 102.730901,90.1721489 101.686154,89.1593298 C100.640703,88.1461596 98.9707253,88.170383 97.9562198,89.2140957 Z" id="Shape" fill="#4D3D36"></path>
                <path d="M31.0881758,71.3154574 C31.0881758,69.8613511 32.2686593,68.6824787 33.7255385,68.6824787 L115.373363,68.6824787 C117.764923,68.6824787 119.710593,66.7400426 119.710593,64.3524574 L119.710593,50.9635851 C119.710593,48.576 117.764923,46.6335638 115.373363,46.6335638 L12.6266374,46.6335638 C10.2350769,46.6335638 8.28940659,48.576 8.28940659,50.9635851 L8.28940659,64.3524574 C8.28940659,66.7400426 10.2350769,68.6824787 12.6266374,68.6824787 L23.1760879,68.6824787 C24.632967,68.6824787 25.8134505,69.8613511 25.8134505,71.3154574 L31.0881758,71.3154574 Z" id="Shape" fill="#FFAD61"></path>
            </g>
        </g>
    </g>
</svg>