<?xml version="1.0" encoding="UTF-8"?>
<svg width="200px" height="200px" viewBox="0 0 200 200" version="1.1" xmlns="http://www.w3.org/2000/svg" xmlns:xlink="http://www.w3.org/1999/xlink">
    <!-- Generator: Sketch 42 (36781) - http://www.bohemiancoding.com/sketch -->
    <title>tracker</title>
    <desc>Created with Sketch.</desc>
    <defs></defs>
    <g id="Page-1" stroke="none" stroke-width="1" fill="none" fill-rule="evenodd">
        <g id="tracker" transform="translate(18.000000, 18.000000)">
            <ellipse id="Oval" fill="#FCDB5A" cx="82.5" cy="81.9021739" rx="60.9782609" ry="57.3913043"></ellipse>
            <g id="Group" fill-rule="nonzero" fill="#000000">
                <path d="M82.3009239,100.447337 C92.3067391,100.447337 100.447337,92.3067391 100.447337,82.3009239 C100.447337,72.2951087 92.3067391,64.1545109 82.3009239,64.1545109 C72.2951087,64.1545109 64.1545109,72.2951087 64.1545109,82.3009239 C64.1545109,92.3067391 72.2951087,100.447337 82.3009239,100.447337 Z M82.3009239,71.3284239 C88.3515217,71.3284239 93.2734239,76.2503261 93.2734239,82.3009239 C93.2734239,88.3515217 88.3515217,93.2734239 82.3009239,93.2734239 C76.2503261,93.2734239 71.3284239,88.3515217 71.3284239,82.3009239 C71.3284239,76.2503261 76.2503261,71.3284239 82.3009239,71.3284239 Z" id="Shape"></path>
                <path d="M161.014891,78.7139674 L146.801576,78.7139674 C144.99913,45.942337 118.659511,19.6027174 85.8878804,17.8002717 L85.8878804,3.58695652 C85.8878804,1.6063587 84.2815217,0 82.3009239,0 C80.3203261,0 78.7139674,1.6063587 78.7139674,3.58695652 L78.7139674,21.2855978 C78.7139674,23.2661957 80.3203261,24.8725543 82.3009239,24.8725543 C113.967174,24.8725543 139.729293,50.6346739 139.729293,82.3009239 C139.729293,113.967174 113.967174,139.729293 82.3009239,139.729293 C50.6346739,139.729293 24.8725543,113.967174 24.8725543,82.3009239 C24.8725543,60.311087 37.6971196,39.9646739 57.5443478,30.4670109 C59.33125,29.6115217 60.0869022,27.4701087 59.231413,25.6832065 C58.3765217,23.8969022 56.2333152,23.14125 54.4476087,23.9961413 C43.6084239,29.1828804 34.4365761,37.2780435 27.9244565,47.4058152 C21.8804348,56.8060326 18.4208152,67.5633152 17.8068478,78.7139674 L3.58695652,78.7139674 C1.6063587,78.7139674 0,80.3203261 0,82.3009239 C0,84.2815217 1.6063587,85.8878804 3.58695652,85.8878804 L17.8002717,85.8878804 C19.6027174,118.659511 45.942337,144.99913 78.7139674,146.801576 L78.7139674,161.014891 C78.7139674,162.995489 80.3203261,164.601848 82.3009239,164.601848 C84.2815217,164.601848 85.8878804,162.995489 85.8878804,161.014891 L85.8878804,146.801576 C118.659511,144.99913 144.99913,118.659511 146.801576,85.8878804 L161.014891,85.8878804 C162.995489,85.8878804 164.601848,84.2815217 164.601848,82.3009239 C164.601848,80.3203261 162.995489,78.7139674 161.014891,78.7139674 Z" id="Shape"></path>
            </g>
        </g>
    </g>
</svg>