<?xml version="1.0" encoding="UTF-8"?>
<svg width="200px" height="200px" viewBox="0 0 200 200" version="1.1" xmlns="http://www.w3.org/2000/svg" xmlns:xlink="http://www.w3.org/1999/xlink">
    <!-- Generator: Sketch 42 (36781) - http://www.bohemiancoding.com/sketch -->
    <title>corn</title>
    <desc>Created with Sketch.</desc>
    <defs></defs>
    <g id="Page-1" stroke="none" stroke-width="1" fill="none" fill-rule="evenodd">
        <g id="warning" transform="translate(12.000000, 24.000000)" fill-rule="nonzero">
            <g id="Layer_1">
                <path d="M174.125,141.421407 L93.0433723,3.20003846 C90.6295322,-0.914882353 84.7115984,-0.914882353 82.2977583,3.20003846 L1.2161306,141.421407 C-1.23796296,145.604654 1.76023392,150.886238 6.58893762,150.886238 L168.751511,150.886238 C173.580556,150.885896 176.579094,145.604654 174.125,141.421407 Z" id="Shape" fill="#4D3D36"></path>
                <path d="M86.3725634,20.0666018 L18.6898635,135.447 C17.8131579,136.941285 18.889425,138.824002 20.6199805,138.824002 L154.721832,138.824002 C156.452388,138.824002 157.528655,136.941285 156.651949,135.447 L88.9685673,20.0666018 C88.3865984,19.0745113 86.9545322,19.0745113 86.3725634,20.0666018 Z" id="Shape" fill="#FFDC64"></path>
                <g id="Group" transform="translate(81.530214, 57.393665)" fill="#4D3D36">
                    <ellipse id="Oval" cx="6.14990253" cy="60.3207421" rx="6.02197856" ry="6.03077602"></ellipse>
                    <path d="M0.357846004,3.47470814 L2.93884016,42.2444706 C3.05141326,43.9348507 4.3627193,45.2453394 5.94249513,45.2453394 L6.35730994,45.2453394 C7.93708577,45.2453394 9.24839181,43.9355339 9.36096491,42.2444706 L11.9419591,3.47470814 C12.0664717,1.60428959 10.6859162,0.0136651584 8.93830409,0.0136651584 L3.36184211,0.0136651584 C1.61388889,0.0136651584 0.233333333,1.60463122 0.357846004,3.47470814 Z" id="Shape"></path>
                </g>
                <path d="M154.721832,141.839561 L20.618616,141.839561 C18.7427388,141.839561 16.995809,140.82629 16.063499,139.195011 C15.1311891,137.562025 15.1431287,135.540606 16.0928363,133.919577 L83.7772417,18.5361041 C84.5976608,17.1402081 86.0532651,16.3069751 87.6736355,16.3069751 C89.2909357,16.3069751 90.74654,17.1402081 91.5669591,18.5361041 L159.247612,133.919235 C160.19732,135.541973 160.209259,137.563391 159.276949,139.19467 C158.344639,140.82629 156.59771,141.839561 154.721832,141.839561 Z M21.9684698,135.808785 L153.37232,135.808785 L87.669883,23.8060724 L21.9684698,135.808785 Z" id="Shape" fill="#FFC850"></path>
            </g>
        </g>
    </g>
</svg>