<?xml version="1.0" encoding="UTF-8"?>
<svg width="200px" height="200px" viewBox="0 0 200 200" version="1.1" xmlns="http://www.w3.org/2000/svg" xmlns:xlink="http://www.w3.org/1999/xlink">
    <!-- Generator: Sketch 42 (36781) - http://www.bohemiancoding.com/sketch -->
    <title>wheat</title>
    <desc>Created with Sketch.</desc>
    <defs></defs>
    <g id="Page-1" stroke="none" stroke-width="1" fill="none" fill-rule="evenodd">
        <g id="wheat" transform="translate(40.000000, 17.000000)" fill-rule="nonzero">
            <g id="Group">
                <polygon id="Shape" fill="#FFE6B8" points="105.347384 81.5279043 115.434703 71.2905319 115.434703 55.214617 105.347384 65.4516383"></polygon>
                <path d="M102.709302,94.1040638 C101.252026,94.1040638 100.071221,92.9255426 100.071221,91.4710851 L100.071221,89.0382128 L89.9835494,78.8008404 L89.9835494,94.8767553 L100.071221,105.114479 L100.071221,102.003 C100.071221,100.548543 101.252026,99.3700213 102.709302,99.3700213 C102.710358,99.3700213 102.710358,94.1040638 102.709302,94.1040638 Z" id="Shape" fill="#FFE6B8"></path>
                <polygon id="Shape" fill="#FFE6B8" points="115.434703 102.387064 105.347384 112.624436 105.347384 128.700702 115.434703 118.46333"></polygon>
                <path d="M63.1380814,54.4412234 L63.1380814,57.5527021 L73.2254012,47.3156809 L73.2254012,31.2394149 L63.1380814,41.4764362 L63.1380814,43.9096596 C63.1380814,45.363766 61.9572762,46.5419362 60.5007035,46.5426383 L60.5007035,51.8085957 C61.9572762,51.8089468 63.1380814,52.9874681 63.1380814,54.4412234 Z" id="Shape" fill="#FFE6B8"></path>
                <polygon id="Shape" fill="#FFE6B8" points="57.8619186 65.0626596 47.7745988 54.8256383 47.7745988 70.9022553 57.8619186 81.1392766"></polygon>
                <polygon id="Shape" fill="#FFE6B8" points="73.2254012 78.4122128 63.1380814 88.649234 63.1380814 104.7255 73.2254012 94.4881277"></polygon>
                <polygon id="Shape" fill="#FFE6B8" points="20.9287791 81.5279043 31.0160988 71.290883 31.0160988 55.214266 20.9287791 65.4516383"></polygon>
                <polygon id="Shape" fill="#FFE6B8" points="15.6526163 89.0378617 5.56529651 78.8008404 5.56529651 94.8767553 15.6526163 105.114479"></polygon>
                <path d="M31.0160988,118.46333 L31.0160988,102.387064 L20.9287791,112.624436 L20.9287791,115.057309 C20.9287791,116.511415 19.7483256,117.689585 18.2917529,117.690287 L18.2917529,122.956245 C19.7483256,122.956947 20.9287791,124.135117 20.9287791,125.589223 L20.9287791,128.700702 L31.0160988,118.46333 Z" id="Shape" fill="#FFE6B8"></path>
                <polygon id="Shape" fill="#FCDB5A" points="100.071221 112.624436 89.9839012 102.387064 89.9839012 118.46333 100.071221 128.700702"></polygon>
                <path d="M105.347384,91.4710851 C105.347384,92.9251915 104.16693,94.1037128 102.710006,94.1040638 L102.710006,99.3700213 C104.166578,99.3703723 105.347384,100.548894 105.347384,102.003 L105.347384,105.114479 L115.434703,94.8771064 L115.434703,78.8011915 L105.347384,89.0382128 L105.347384,91.4710851 Z" id="Shape" fill="#FCDB5A"></path>
                <polygon id="Shape" fill="#FCDB5A" points="89.9839012 71.2905319 100.071221 81.5279043 100.071221 65.4516383 89.9839012 55.214617"></polygon>
                <polygon id="Shape" fill="#FCDB5A" points="57.8619186 88.649234 47.7745988 78.4118617 47.7745988 94.4881277 57.8619186 104.7255"></polygon>
                <polygon id="Shape" fill="#FCDB5A" points="63.1380814 81.1389255 73.2254012 70.9019043 73.2254012 54.8256383 63.1380814 65.0626596"></polygon>
                <path d="M47.7745988,31.2390638 L47.7745988,47.3156809 L57.8619186,57.5527021 L57.8619186,54.4412234 C57.8619186,52.986766 59.0430756,51.8082447 60.5,51.8082447 C60.5010552,51.8082447 60.5010552,46.5422872 60.5010552,46.5422872 C59.0430756,46.5422872 57.8619186,45.363766 57.8619186,43.9093085 L57.8619186,41.4764362 L47.7745988,31.2390638 Z" id="Shape" fill="#FCDB5A"></path>
                <path d="M18.2906977,117.690287 C16.8337733,117.690287 15.6526163,116.511766 15.6526163,115.057309 L15.6526163,112.624436 L5.56529651,102.387064 L5.56529651,118.46333 L15.6526163,128.700702 L15.6526163,125.589223 C15.6526163,124.134766 16.8337733,122.956245 18.2906977,122.956245 C18.2917529,122.956245 18.2917529,117.690287 18.2906977,117.690287 Z" id="Shape" fill="#FCDB5A"></path>
                <polygon id="Shape" fill="#FCDB5A" points="20.9287791 105.114479 31.0160988 94.8767553 31.0160988 78.8008404 20.9287791 89.0382128"></polygon>
                <polygon id="Shape" fill="#FCDB5A" points="5.56529651 71.290883 15.6526163 81.5279043 15.6526163 65.4516383 5.56529651 55.214266"></polygon>
                <path d="M118.072785,23.9752021 C116.615509,23.9752021 115.434703,25.1537234 115.434703,26.6081809 L115.434703,47.7043085 L105.347384,57.9416809 L105.347384,26.6081809 C105.347384,25.1537234 104.166578,23.9752021 102.709302,23.9752021 C101.252026,23.9752021 100.071221,25.1537234 100.071221,26.6081809 L100.071221,57.9416809 L89.9835494,47.7043085 L89.9835494,26.6081809 C89.9835494,25.1537234 88.8027442,23.9752021 87.345468,23.9752021 C85.8881919,23.9752021 84.7073866,25.1537234 84.7073866,26.6081809 L84.7073866,119.541447 C84.7073866,120.23234 84.9792849,120.895149 85.4643401,121.387691 L100.070869,136.211362 L100.070869,162.367021 C100.070869,163.821479 101.251674,165 102.708951,165 C104.166227,165 105.347032,163.821479 105.347032,162.367021 L105.347032,136.211011 L119.953209,121.387691 C120.438265,120.8955 120.710163,120.23234 120.710163,119.541447 L120.710163,26.6081809 C120.710866,25.1537234 119.530061,23.9752021 118.072785,23.9752021 Z M115.434703,94.8767553 L105.347384,105.114479 L105.347384,102.003 C105.347384,100.548894 104.16693,99.3703723 102.710006,99.3700213 C101.252026,99.3700213 100.071221,100.548543 100.071221,102.003 L100.071221,105.114479 L89.9835494,94.8767553 L89.9835494,78.8008404 L100.071221,89.0382128 L100.071221,91.4710851 C100.071221,92.9255426 101.252026,94.1040638 102.709302,94.1040638 C104.16693,94.1037128 105.347384,92.9251915 105.347384,91.4710851 L105.347384,89.0382128 L115.434703,78.8008404 L115.434703,94.8767553 Z M115.434703,71.2905319 L105.347384,81.5279043 L105.347384,65.4516383 L115.434703,55.214266 L115.434703,71.2905319 Z M100.071221,81.5279043 L89.9835494,71.2905319 L89.9835494,55.214266 L100.071221,65.4516383 L100.071221,81.5279043 Z M89.9839012,102.387064 L100.071573,112.624436 L100.071573,128.700702 L89.9839012,118.46333 L89.9839012,102.387064 Z M105.347384,112.624436 L115.434703,102.387064 L115.434703,118.46333 L105.347384,128.700702 L105.347384,112.624436 Z" id="Shape" fill="#4D3D36"></path>
                <path d="M33.6541802,23.9752021 C32.1972558,23.9752021 31.0160988,25.1537234 31.0160988,26.6081809 L31.0160988,47.7043085 L20.9287791,57.9416809 L20.9287791,26.6081809 C20.9287791,25.1537234 19.7476221,23.9752021 18.2906977,23.9752021 C16.8337733,23.9752021 15.6526163,25.1537234 15.6526163,26.6081809 L15.6526163,57.9416809 L5.56529651,47.7046596 L5.56529651,26.6081809 C5.56529651,25.1537234 4.38413953,23.9752021 2.92721512,23.9752021 C1.4702907,23.9752021 0.289133721,25.1537234 0.289133721,26.6081809 L0.289133721,119.541447 C0.289133721,120.23234 0.561031977,120.895149 1.04643895,121.387691 L15.6526163,136.211011 L15.6526163,162.367021 C15.6526163,163.821479 16.8337733,165 18.2906977,165 C19.7476221,165 20.9287791,163.821479 20.9287791,162.367021 L20.9287791,136.211011 L35.5349564,121.387691 C36.0203634,120.8955 36.2922616,120.23234 36.2922616,119.541447 L36.2922616,26.6081809 C36.2922616,25.1537234 35.1111047,23.9752021 33.6541802,23.9752021 Z M18.2917529,122.956245 C16.8337733,122.956245 15.6526163,124.134766 15.6526163,125.589223 L15.6526163,128.700702 L5.56529651,118.46333 L5.56529651,102.387064 L15.6526163,112.624436 L15.6526163,115.057309 C15.6526163,116.511766 16.8337733,117.690287 18.2906977,117.690287 C19.7483256,117.689585 20.9287791,116.511415 20.9287791,115.057309 L20.9287791,112.624436 L31.0160988,102.387064 L31.0160988,118.46333 L20.9287791,128.700702 L20.9287791,125.589223 C20.9287791,124.135468 19.7479738,122.956947 18.2917529,122.956245 Z M31.0160988,94.8767553 L20.9287791,105.114479 L20.9287791,89.0382128 L31.0160988,78.8008404 L31.0160988,94.8767553 Z M5.56529651,78.8008404 L15.6526163,89.0382128 L15.6526163,105.114479 L5.56529651,94.8771064 L5.56529651,78.8008404 Z M31.0160988,71.290883 L20.9287791,81.5279043 L20.9287791,65.4516383 L31.0160988,55.214266 L31.0160988,71.290883 Z M15.6526163,81.5279043 L5.56529651,71.290883 L5.56529651,55.214266 L15.6526163,65.4516383 L15.6526163,81.5279043 Z" id="Shape" fill="#4D3D36"></path>
                <path d="M75.8634826,0 C74.4062064,0 73.2254012,1.17852128 73.2254012,2.63297872 L73.2254012,23.7291064 L63.1380814,33.9661277 L63.1380814,2.63297872 C63.1380814,1.17852128 61.9569244,0 60.5,0 C59.0430756,0 57.8619186,1.17852128 57.8619186,2.63297872 L57.8619186,33.9664787 L47.7745988,23.7294574 L47.7745988,2.63297872 C47.7745988,1.17852128 46.5934419,0 45.1365174,0 C43.679593,0 42.498436,1.17852128 42.498436,2.63297872 L42.498436,95.5662447 C42.498436,96.2571383 42.7703343,96.9199468 43.2557413,97.4124894 L57.8619186,112.235809 L57.8619186,162.367021 C57.8619186,163.821479 59.0430756,165 60.5,165 C61.9569244,165 63.1380814,163.821479 63.1380814,162.367021 L63.1380814,112.235457 L77.7442587,97.4121383 C78.229314,96.9199468 78.5012122,96.2567872 78.5012122,95.5658936 L78.5012122,2.63297872 C78.501564,1.17852128 77.3207587,0 75.8634826,0 Z M60.5,46.5422872 C61.9576279,46.5415851 63.1380814,45.3634149 63.1380814,43.9093085 L63.1380814,41.4760851 L73.2254012,31.2390638 L73.2254012,47.3153298 L63.1380814,57.5523511 L63.1380814,54.4408723 C63.1380814,52.986766 61.9572762,51.8085957 60.5007035,51.8078936 C59.0427238,51.8078936 57.8615669,52.9864149 57.8615669,54.4408723 L57.8615669,57.5523511 L47.7742471,47.3153298 L47.7742471,31.2390638 L57.8615669,41.4764362 L57.8615669,43.9093085 C57.8619186,45.363766 59.0430756,46.5422872 60.5,46.5422872 Z M73.2254012,70.9019043 L63.1380814,81.1389255 L63.1380814,65.0626596 L73.2254012,54.8256383 L73.2254012,70.9019043 Z M47.7745988,54.8256383 L57.8619186,65.0626596 L57.8619186,81.1389255 L47.7745988,70.9019043 L47.7745988,54.8256383 Z M47.7745988,78.4118617 L57.8619186,88.649234 L57.8619186,104.7255 L47.7745988,94.4881277 L47.7745988,78.4118617 Z M63.1380814,88.649234 L73.2254012,78.4122128 L73.2254012,94.4884787 L63.1380814,104.7255 L63.1380814,88.649234 Z" id="Shape" fill="#4D3D36"></path>
            </g>
        </g>
    </g>
</svg>